<?xml version="1.0" encoding="utf-8"?>
<!-- Generator: Adobe Illustrator 25.2.1, SVG Export Plug-In . SVG Version: 6.00 Build 0)  -->
<svg version="1.1" id="Layer_1" xmlns="http://www.w3.org/2000/svg" xmlns:xlink="http://www.w3.org/1999/xlink" x="0px" y="0px"
	 viewBox="0 0 154 64" style="enable-background:new 0 0 154 64;" xml:space="preserve">
<style type="text/css">
	.st0{fill:#84A13D;}
	.st1{fill:#38533F;}
</style>
<g>
	<g>
		<path class="st0" d="M51.6,48.9h0.8v3.5h3.7v-3.5h0.8v7.9h-0.8v-3.7h-3.7v3.7h-0.8V48.9z"/>
		<path class="st0" d="M58.8,51.9c0-2.1,1.3-3.2,2.8-3.2c1.6,0,2.8,1,2.8,3.2v1.9c0,2.1-1.3,3.1-2.8,3.1c-1.6,0-2.8-1-2.8-3.1V51.9z
			 M61.6,56.3c1.2,0,2-0.8,2-2.4V52c0-1.7-0.9-2.5-2-2.5c-1.2,0-2,0.8-2,2.5v1.8C59.6,55.5,60.4,56.3,61.6,56.3z"/>
		<path class="st0" d="M66.3,48.9h2.5c1.4,0,2.3,1.1,2.3,2.3c0,1.3-0.9,2.3-2.3,2.3h-1.7v3.2h-0.8V48.9z M68.9,52.9
			c0.9,0,1.5-0.7,1.5-1.6c0-0.9-0.5-1.6-1.5-1.6h-1.7v3.2H68.9z"/>
		<path class="st0" d="M72.7,48.9h4.1v0.7h-3.3v2.8h2.9l-0.1,0.7h-2.8v2.9H77v0.7h-4.2V48.9z"/>
		<path class="st0" d="M81.4,55.9c0.6,0.2,1.3,0.4,2.1,0.4c0.8,0,1.6-0.5,1.6-1.4c0-2.2-3.7-1.4-3.7-4.1c0-1.2,1-2,2.4-2
			c0.7,0,1.3,0.1,2,0.4l-0.2,0.7c-0.6-0.2-1.2-0.3-1.8-0.3c-0.9,0-1.5,0.4-1.5,1.2c0,2,3.7,1.3,3.7,4.1c0,1.4-1.1,2.2-2.4,2.2
			c-0.9,0-1.7-0.2-2.2-0.4L81.4,55.9z"/>
		<path class="st0" d="M89.2,49.7h-2.2v-0.7h5.2v0.7H90v7.2h-0.8V49.7z"/>
		<path class="st0" d="M94.7,48.9h0.9l2.6,7.9h-0.8l-0.7-2.2h-3l-0.7,2.2h-0.8L94.7,48.9z M96.4,53.9L95.5,51
			c-0.1-0.3-0.2-0.8-0.4-1.2c-0.1,0.4-0.2,0.9-0.4,1.2l-0.9,2.9H96.4z"/>
		<path class="st0" d="M99.7,48.9h2.6c1.4,0,2.3,1.1,2.3,2.3c0,1.1-0.6,1.9-1.6,2.2l1.6,3.4h-0.9l-1.5-3.3h-1.6v3.3h-0.8V48.9z
			 M102.2,52.9c0.9,0,1.5-0.7,1.5-1.6c0-0.9-0.5-1.6-1.5-1.6h-1.8v3.2H102.2z"/>
		<path class="st0" d="M107.7,49.7h-2.2v-0.7h5.2v0.7h-2.2v7.2h-0.8V49.7z"/>
		<path class="st0" d="M111.9,55.9c0.6,0.2,1.3,0.4,2.1,0.4c0.8,0,1.6-0.5,1.6-1.4c0-2.2-3.7-1.4-3.7-4.1c0-1.2,1-2,2.4-2
			c0.7,0,1.3,0.1,2,0.4l-0.2,0.7c-0.6-0.2-1.2-0.3-1.8-0.3c-0.9,0-1.5,0.4-1.5,1.2c0,2,3.7,1.3,3.7,4.1c0,1.4-1.1,2.2-2.4,2.2
			c-0.9,0-1.7-0.2-2.2-0.4L111.9,55.9z"/>
		<path class="st0" d="M120.9,48.9h0.8v3.5h3.7v-3.5h0.8v7.9h-0.8v-3.7h-3.7v3.7h-0.8V48.9z"/>
		<path class="st0" d="M128.3,48.9h4.1v0.7h-3.3v2.8h2.9l-0.1,0.7h-2.8v2.9h3.4v0.7h-4.2V48.9z"/>
		<path class="st0" d="M134.4,48.9h2.6c1.4,0,2.3,1.1,2.3,2.3c0,1.1-0.6,1.9-1.6,2.2l1.6,3.4h-0.9l-1.5-3.3h-1.6v3.3h-0.8V48.9z
			 M137,52.9c0.9,0,1.5-0.7,1.5-1.6c0-0.9-0.5-1.6-1.5-1.6h-1.8v3.2H137z"/>
		<path class="st0" d="M140.9,48.9h4.1v0.7h-3.3v2.8h2.9l-0.1,0.7h-2.8v2.9h3.4v0.7h-4.2V48.9z"/>
		<path class="st0" d="M146.8,56.4c0-0.3,0.2-0.5,0.5-0.5c0.3,0,0.5,0.2,0.5,0.5c0,0.3-0.2,0.5-0.5,0.5
			C147.1,57,146.8,56.7,146.8,56.4z"/>
	</g>
	<g>
		<path class="st1" d="M51.9,16.7h2.8v5.2h4v-5.2h2.8v12.9h-2.8v-5.4h-4v5.4h-2.8V16.7z"/>
		<path class="st1" d="M67.1,16.7h3.3l3.9,12.9h-2.9l-0.9-3.1H67l-0.9,3.1h-2.9L67.1,16.7z M69.9,24.2l-0.7-2.5
			c-0.2-0.6-0.3-1.4-0.5-2.2c-0.2,0.8-0.3,1.6-0.5,2.2l-0.7,2.5H69.9z"/>
		<path class="st1" d="M77.1,24.7l-3.9-8h3l2.2,5.1l2.2-5.1h3l-3.9,8v4.9h-2.8V24.7z"/>
		<path class="st1" d="M85.8,16.7H89l2.2,6.3c0.2,0.4,0.3,1.1,0.5,1.7c0.1-0.6,0.3-1.2,0.5-1.7l2.2-6.3h3.2l1.4,12.9h-2.8L95.6,23
			c-0.1-0.7-0.1-1.6-0.1-2.5c-0.2,0.9-0.5,1.8-0.7,2.5l-1.6,4.5h-3L88.6,23c-0.2-0.7-0.5-1.6-0.7-2.5c0,0.9-0.1,1.8-0.1,2.5
			l-0.6,6.6h-2.8L85.8,16.7z"/>
		<path class="st1" d="M103.9,16.7h3.3l3.9,12.9h-2.9l-0.9-3.1h-3.6l-0.9,3.1H100L103.9,16.7z M106.7,24.2l-0.7-2.5
			c-0.2-0.6-0.3-1.4-0.5-2.2c-0.2,0.8-0.3,1.6-0.5,2.2l-0.7,2.5H106.7z"/>
		<path class="st1" d="M112.7,16.7h4.6c2.6,0,4.3,2,4.3,4.1c0,1.6-0.8,2.9-2.3,3.6l2.5,5.2h-3.1l-2.1-4.8h-1v4.8h-2.8V16.7z
			 M117.2,22.6c0.9,0,1.6-0.7,1.6-1.7c0-1-0.7-1.7-1.6-1.7h-1.7v3.5H117.2z"/>
		<path class="st1" d="M123.7,16.7h2.8v4.8l3.4-4.8h3.3l-4.2,5.7l4.8,7.3h-3.3l-3.1-5l-0.8,1.1v3.9h-2.8V16.7z"/>
		<path class="st1" d="M135.4,16.7h7.7v2.4h-4.9V22h4.1l-0.1,2.3h-4v3h5.1v2.4h-7.9V16.7z"/>
		<path class="st1" d="M147.9,19.1h-3.1v-2.4h9.1v2.4h-3.1v10.6h-2.8V19.1z"/>
	</g>
	<g>
		<path class="st1" d="M59.7,45.4C58.5,45.9,57.3,46,56,46c-3,0-5.3-1.7-5.3-5.3v-2.8c0-3.6,2.3-5.3,5.3-5.3c1.3,0,2.5,0.2,3.7,0.6
			l-0.5,2.3C58.2,35.2,57.1,35,56,35c-1.5,0-2.5,0.8-2.5,3.2v2.3c0,2.4,1,3.2,2.5,3.2c1.1,0,2.1-0.2,3.2-0.5L59.7,45.4z"/>
		<path class="st1" d="M61.8,32.8h7.7v2.4h-4.9v2.9h4.1l-0.1,2.3h-4v3h5.1v2.4h-7.9V32.8z"/>
		<path class="st1" d="M71.9,32.8h2.3l4.4,7.4c0-0.7-0.1-1.4-0.1-2v-5.4h2.8v12.9h-2.3l-4.4-7.4c0.1,0.7,0.1,1.5,0.1,2v5.3h-2.8
			V32.8z"/>
		<path class="st1" d="M86.2,35.2h-3.1v-2.4h9.1v2.4H89v10.6h-2.8V35.2z"/>
		<path class="st1" d="M93.8,32.8h7.7v2.4h-4.9v2.9h4.1l-0.1,2.3h-4v3h5.1v2.4h-7.9V32.8z"/>
		<path class="st1" d="M103.9,32.8h4.6c2.6,0,4.3,2,4.3,4.1c0,1.6-0.8,2.9-2.3,3.6l2.5,5.2h-3.1l-2.1-4.8h-1v4.8h-2.8V32.8z
			 M108.4,38.7c0.9,0,1.6-0.7,1.6-1.7c0-1-0.7-1.7-1.6-1.7h-1.7v3.5H108.4z"/>
	</g>
	<g>
		<path class="st1" d="M37,29.2c1.1-0.2,2-0.5,2.8-0.8c1.5-0.6,2.4-1.1,2.3-1.2c-0.1-0.1-1,0.2-2.5,0.6c-1.7,0.4-3.4,0.7-5.2,0.8
			c-1.8,0.1-3.5-0.3-5.2,0.2c-0.3,0.1-0.5,0.2-0.8,0.3c-0.2,0.1-0.5,0.2-0.7,0.4c-0.5,0.3-0.9,0.7-1.2,1.3c0,0,0,0,0,0
			c-0.1,0.1-0.1,0.3-0.1,0.4c0,0.1-0.1,0.3-0.1,0.4c0,0.2,0,0.5,0,0.6c0.2,0.6,0.6,0.6,0.8,0c0.1-0.6,0.3-1.2,0.8-1.6
			c1-1,2.8-1.2,4.2-1.1c0.3,0,0.5,0.1,0.8,0.1c0.1,0,0.2,0,0.3,0.1c0,0,0.1,0,0.1,0c0.4,0.1,0.8,0.2,1.2,0.3c0.7,0.2,1.4,0.5,2,0.8
			c1.2,0.6,2.1,1.1,2.8,1.5c0.7,0.4,1,0.6,1.1,0.5c0-0.1-0.3-0.3-0.9-0.8c-0.6-0.5-1.5-1.1-2.7-1.8c-0.4-0.2-0.8-0.4-1.3-0.6
			c0.3,0,0.5-0.1,0.7-0.1C36.5,29.3,36.7,29.2,37,29.2z"/>
		<path class="st1" d="M7,50.1c1,0,2.1,0,3.4-0.1c0.6-0.1,1.3-0.2,2-0.3c0.7-0.2,1.4-0.4,2.1-0.6c0.7-0.3,1.4-0.6,2-1
			c0.2-0.1,0.3-0.2,0.4-0.3c0.1-0.1,0.3-0.2,0.4-0.3c0.1-0.1,0.3-0.2,0.4-0.4c0.1-0.1,0.2-0.2,0.3-0.4c0.4-0.5,0.8-1,1-1.5
			c0.3-0.5,0.5-0.9,0.7-1.4c0.4-0.9,0.5-1.6,0.6-2.1c0-0.1,0-0.2,0-0.3c0-0.1,0-0.2,0-0.3c0-0.1,0-0.2-0.1-0.2c0,0-0.1,0.1-0.1,0.2
			c0,0.1-0.1,0.1-0.1,0.2c0,0.1-0.1,0.2-0.1,0.3c-0.4,1-0.9,1.9-1.7,2.8c-0.8,0.9-1.8,1.4-3.1,1.7c-0.5,0.1-1,0.2-1.5,0.2
			c-0.5,0-1.1,0-1.7,0c-1.1-0.1-2.2-0.4-3.2-0.6c-1-0.3-1.8-0.6-2.5-0.8c-0.7-0.3-1.3-0.5-1.7-0.6C4.3,44.1,4,44.1,4,44.1
			c0,0,0.2,0.1,0.6,0.3c0.4,0.2,0.9,0.5,1.6,0.8c0.7,0.3,1.5,0.6,2.5,0.9c0.2,0.1,0.3,0.1,0.5,0.2c-0.4,0-0.8,0.1-1.2,0.2
			c-0.5,0.1-1,0.3-1.4,0.5c-0.2,0.1-0.4,0.2-0.6,0.3c-0.1,0.1-0.2,0.1-0.2,0.2c-0.1,0.1-0.1,0.1-0.2,0.2c-0.1,0.1-0.3,0.2-0.4,0.3
			c0,0-0.1,0.1-0.1,0.1c0,0-0.1,0.1-0.1,0.1c-0.1,0.1-0.2,0.2-0.2,0.3c0.1,0.1,0.4-0.2,1-0.5c0.1,0,0.1-0.1,0.2-0.1
			c0.1,0,0.2-0.1,0.3-0.1c0.2-0.1,0.4-0.2,0.6-0.3c0.4-0.2,0.9-0.3,1.3-0.5c0.5-0.1,1-0.2,1.4-0.2c0.2,0,0.4,0,0.6,0
			c1.2,0,2.3,0.2,3.5,0.1c0.2,0,0.4,0,0.6-0.1c-0.2,0.1-0.5,0.1-0.8,0.2c-1.9,0.5-3.4,0.5-3.4,0.6c0,0.1,0.4,0.1,1,0.1
			c0.3,0,0.7,0,1.1-0.1c0.4-0.1,0.9-0.1,1.4-0.2c1.4-0.4,2.7-0.8,4.1-1.7c-0.2,0.2-0.3,0.3-0.5,0.5c-0.1,0.1-0.2,0.2-0.3,0.3
			c-0.1,0.1-0.2,0.2-0.3,0.3c-0.1,0.1-0.2,0.2-0.4,0.3c-0.1,0.1-0.3,0.2-0.4,0.3c-0.6,0.3-1.2,0.6-1.8,0.9c-0.6,0.3-1.3,0.4-1.9,0.6
			c-0.6,0.2-1.3,0.3-1.9,0.3C9,49.4,7.9,49.4,7,49.5c-0.9,0-1.7,0.1-2.2,0.1c-0.5,0-0.8,0.1-0.8,0.2c0,0.1,0.3,0.1,0.8,0.2
			C5.2,50,6,50.1,7,50.1z"/>
		<path class="st1" d="M16.6,54.3c0.3-0.3,0.5-0.6,0.8-0.8c0.1-0.1,0.1-0.1,0.2-0.2c0.1-0.1,0.1-0.2,0.2-0.2
			c0.1-0.1,0.1-0.2,0.2-0.2c0.1-0.1,0.1-0.2,0.2-0.2c0.1-0.2,0.2-0.3,0.3-0.5c0.1-0.2,0.2-0.3,0.3-0.5c0.1-0.2,0.2-0.3,0.3-0.5
			c0.1-0.2,0.2-0.3,0.2-0.5c0.3-0.7,0.5-1.3,0.8-1.9c0.4-1.3,0.7-2.4,0.8-3.4c0-0.1,0-0.2,0.1-0.4c0-0.1,0-0.2,0-0.3
			c0-0.2,0.1-0.4,0.1-0.6c0-0.2,0-0.4,0-0.5c0-0.2,0-0.3,0-0.5c0-0.3,0-0.5-0.1-0.6c0-0.1-0.1-0.3-0.1-0.2c-0.3,0.7-0.6,2.1-0.6,2.4
			c-0.4,1.8-1.6,3.4-3.2,4.4c-0.9,0.6-1.8,1-2.7,1.4c-2.3,1-4.7,1.7-7.2,1.5c-0.2,0-0.5-0.1-0.7-0.1c-0.2,0-0.4-0.1-0.6-0.1
			c-0.7-0.1-1.1-0.3-1.2-0.2c0,0,0.4,0.2,1.1,0.4c0.2,0.1,0.4,0.1,0.6,0.1C6.4,51.9,6.7,52,6.9,52c0.4,0.1,0.8,0.1,1.2,0.1
			c-1,0.2-1.8,0.4-2.4,0.5c-0.8,0.2-1.3,0.2-1.3,0.3C4.4,53,4.9,53,5.7,53c0.9,0,2.1-0.2,3.6-0.5c1.5-0.3,3.3-0.8,5.2-1.5
			c0.9-0.4,1.9-0.8,2.9-1.4c0.1-0.1,0.2-0.1,0.3-0.2c-0.4,0.4-0.8,0.8-1.3,1.2c-0.6,0.5-1.2,0.9-1.7,1.2c-0.3,0.2-0.6,0.3-0.8,0.4
			c-0.1,0.1-0.3,0.1-0.4,0.2c-0.1,0.1-0.2,0.1-0.4,0.2c-0.2,0.1-0.4,0.2-0.6,0.3c-0.1,0-0.2,0.1-0.3,0.1c-0.1,0-0.2,0.1-0.2,0.1
			c-0.3,0.1-0.4,0.2-0.4,0.2c0,0,0.2,0,0.5,0c0.1,0,0.2,0,0.2,0c0.1,0,0.2,0,0.3-0.1c0.2-0.1,0.4-0.1,0.7-0.2c0.1,0,0.2-0.1,0.4-0.1
			c0.1,0,0.3-0.1,0.4-0.2c0.3-0.1,0.6-0.3,0.9-0.4c0.6-0.3,1.2-0.7,1.8-1.2c0.6-0.5,1.3-1.1,1.7-1.7c-0.1,0.2-0.2,0.5-0.3,0.7
			c-0.1,0.3-0.3,0.5-0.4,0.8c-0.3,0.5-0.7,0.9-1.2,1.3c-1,0.8-2.1,1.4-3.3,1.8c-2,0.7-4.2,0.7-6.4,0.6c0.3,0,0.7,0.2,1.1,0.3
			c0.4,0.1,0.8,0.2,1.2,0.2c0.8,0.1,1.7,0,2.5-0.1c1.6-0.2,3.2-0.9,4.5-1.8c0.1,0,0.1-0.1,0.2-0.1c0,0,0,0,0,0
			c-0.2,0.3-0.5,0.5-0.7,0.8c-0.5,0.5-1,1-1.5,1.4c-1,0.8-2,1.5-2.8,2c-0.9,0.5-1.6,0.9-2.1,1.1c-0.3,0.1-0.5,0.2-0.6,0.3
			c-0.1,0.1-0.2,0.1-0.2,0.2c0,0,0.1,0,0.3,0c0.2,0,0.4,0,0.7-0.1c0.6-0.1,1.4-0.4,2.3-0.8c0.9-0.4,2-1.1,3.1-1.9
			C15.5,55.4,16.1,54.9,16.6,54.3z"/>
		<path class="st1" d="M24.4,57.3c-0.4-0.9-0.7-1.9-0.9-3c-0.1-0.6-0.2-1.1-0.3-1.6c0-0.1,0-0.3,0-0.4c0-0.1,0-0.3,0-0.4
			c0-0.3,0-0.5-0.1-0.8c-0.1-1-0.1-1.9-0.1-2.7c-0.1-0.8-0.2-1.4-0.3-1.8c-0.1-0.4-0.2-0.7-0.3-0.6c-0.2,0-0.2,1-0.3,2.5
			c-0.1,0.8-0.1,1.7-0.2,2.7c0,0.3,0,0.5,0,0.8c0,0.1,0,0.3,0,0.4c0,0.1,0,0.3,0,0.4c0,0.6,0.1,1.1,0.3,1.7c0.2,0.7,0.3,1.3,0.4,2.1
			c0.1,0.7,0.1,1.6-0.2,2.2c0-0.1-0.1-0.3-0.2-0.4c-0.4-1.2-0.8-2.5-0.9-3.9c0-0.2,0-0.3,0-0.5c0-0.2,0-0.3,0-0.5c0-0.2,0-0.3,0-0.5
			c0-0.2,0-0.3,0-0.5c0-0.7,0.1-1.3,0.1-1.9c0.1-1.2,0.3-2.4,0.3-3.3c0.1-1,0-1.7,0-2.3c0-0.3-0.1-0.5-0.1-0.6
			c0-0.1-0.1-0.2-0.1-0.2c-0.2,0-0.2,1.2-0.5,3c-0.2,1.1-0.4,2.3-0.8,3.4c-0.4,1.1-1.1,2.2-1.8,3.2c-0.4,0.6-0.9,1.1-1.4,1.6
			c-0.2,0.2-0.4,0.5-0.7,0.7c-0.1,0.1-0.2,0.2-0.3,0.3c-0.1,0.1-0.2,0.2-0.3,0.3c-0.2,0.2-0.4,0.3-0.5,0.4c-0.1,0.1-0.1,0.1-0.2,0.2
			c-0.1,0.1-0.1,0.1-0.2,0.1c-0.2,0.2-0.3,0.3-0.3,0.3c0,0,0.2,0,0.4-0.2c0.1,0,0.1-0.1,0.2-0.1c0.1,0,0.2-0.1,0.2-0.1
			c0.2-0.1,0.4-0.2,0.6-0.4c0.1-0.1,0.2-0.2,0.3-0.2c0.1-0.1,0.2-0.2,0.3-0.3c0.2-0.2,0.5-0.4,0.7-0.6c0.5-0.5,1-1,1.5-1.7
			c0.3-0.4,0.5-0.8,0.8-1.2c0,0,0,0.1,0,0.1c-0.1,0.1-0.1,0.3-0.2,0.5c-0.1,0.3-0.3,0.6-0.4,1c-0.3,0.7-0.7,1.4-1.2,2.2
			c-0.5,0.8-1,1.4-1.5,2c-0.3,0.3-0.5,0.6-0.7,0.8c-0.1,0.1-0.2,0.3-0.3,0.4c-0.1,0.1-0.2,0.2-0.3,0.3c-0.2,0.2-0.4,0.4-0.6,0.6
			c-0.1,0.1-0.2,0.2-0.2,0.2c-0.1,0.1-0.1,0.1-0.2,0.2c-0.2,0.2-0.4,0.4-0.3,0.4c0,0,0.2,0,0.5-0.2c0.1,0,0.2-0.1,0.2-0.2
			c0.1-0.1,0.2-0.1,0.3-0.2c0.2-0.1,0.4-0.3,0.7-0.5c0.1-0.1,0.2-0.2,0.4-0.3c0.1-0.1,0.2-0.2,0.4-0.4c0.3-0.2,0.5-0.5,0.8-0.8
			c0.5-0.6,1.1-1.3,1.6-2.1c0.5-0.8,0.9-1.6,1.2-2.3c0.2-0.4,0.3-0.7,0.4-1.1c0.1-0.2,0.1-0.3,0.2-0.5c0-0.2,0.1-0.3,0.1-0.5
			c0-0.1,0.1-0.3,0.1-0.4c-0.1,0.5,0,1.1-0.1,1.7c-0.1,1-0.6,2-0.9,3c-0.3,0.9-0.5,1.7-0.7,2.5c-0.2,0.8-0.2,1.5-0.2,2.1
			c0,0.6,0.1,1.1,0.2,1.4c0.1,0.3,0.2,0.5,0.3,0.5c0.1,0,0.1-0.8,0.2-1.9c0.1-0.6,0.2-1.2,0.4-2c0.2-0.7,0.4-1.6,0.7-2.4
			c0.1-0.4,0.2-0.7,0.3-1.1c0.2,1,0.5,1.9,0.8,2.7c0.2,0.5,0.5,1.1,0.7,1.5c-0.1,0.3-0.2,0.6-0.3,0.8c-0.1,0.3-0.2,0.5-0.3,0.7
			c0,0.1-0.1,0.2-0.1,0.3c0,0.1-0.1,0.2-0.1,0.3c-0.3,0.8-0.6,1.3-0.5,1.3c0.1,0,0.4-0.4,0.8-1.2c0.1-0.1,0.1-0.2,0.2-0.3
			c0.1-0.1,0.1-0.2,0.2-0.3c0.1-0.2,0.2-0.5,0.3-0.8c0.1-0.1,0.1-0.3,0.2-0.4c0.2,0.3,0.4,0.7,0.6,1c0.6,0.8,1.1,1.4,1.5,1.8
			c0.4,0.4,0.7,0.5,0.7,0.5c0.1-0.1-0.7-1-1.6-2.6c-0.3-0.5-0.6-1.1-0.9-1.8c0-0.1,0-0.1,0.1-0.2c0.2-0.6,0.3-1.3,0.3-1.8
			c0-0.1,0-0.1,0-0.2c0.1,0.1,0.1,0.3,0.2,0.4c0.4,1,0.9,1.8,1.4,2.4c0.2,0.3,0.5,0.6,0.7,0.8c0.2,0.2,0.4,0.4,0.6,0.6
			c0.3,0.3,0.6,0.4,0.6,0.4c0.1-0.1-0.4-0.9-1.1-2.2C25.1,59,24.8,58.2,24.4,57.3z"/>
		<path class="st1" d="M27.1,54.9c-0.8-2.1-1.8-4-2.6-5.3c-0.7-1.3-1.2-2.1-1.3-2.1c0,0,0,0,0,0c0,0,0,0,0,0c0,0,0,0,0,0
			c0,0,0,0,0,0c0,0.2,0.1,0.7,0.2,1.4c0.2,0.9,0.4,2.2,0.6,3.6c0.3,1.4,0.6,2.7,0.9,3.6c0.3,0.9,0.6,1.4,0.6,1.4
			c0.1,0-0.1-0.6-0.3-1.5c-0.2-0.9-0.5-2.2-0.7-3.6c-0.2-0.9-0.3-1.8-0.5-2.6c0.6,1.4,1.5,3.2,2.3,5.2c0.4,1,0.7,2.1,1,3
			c0.2,0.9,0.3,1.8,0.4,2.5c0.1,1.4-0.2,2.3-0.1,2.4c0,0,0.1,0,0.1-0.1c0-0.1,0.1-0.1,0.1-0.2c0-0.1,0.1-0.2,0.1-0.3
			c0.1-0.4,0.3-1,0.3-1.8c0-0.8,0-1.7-0.2-2.7C27.9,57.1,27.6,56,27.1,54.9z"/>
		<path class="st1" d="M41.6,49.1c-0.3,0.2-0.8,0.4-1.4,0.7c-0.2,0.1-0.5,0.2-0.7,0.3c-0.2-0.1-0.5-0.1-0.7-0.2
			c-0.6-0.1-1.2-0.2-1.9-0.3c-0.7-0.1-1.5-0.1-2.2-0.1c-0.8,0-1.6,0-2.4-0.1c-0.6,0-1.2-0.1-1.9-0.3c-0.3-0.1-1-0.4-2.5-1
			c-0.1-0.1-0.2-0.1-0.3-0.2c-0.7-0.4-1.3-1-1.8-1.5c0,0-0.1-0.1-0.1-0.1c-1.7-2.1-2.8-4.5-3.8-7c-1-2.4-1.6-5.1-3.1-7.3
			c-0.1-0.1-0.1-0.2-0.2-0.3c-0.9-1.3-2-2.3-3.2-3.2c-1.2-0.8-2.4-1.4-3.5-1.8c-1.2-0.4-2.2-0.6-3.2-0.7c-1-0.1-1.8-0.1-2.5,0
			c-1.3,0.2-2,0.4-2,0.5c0,0.1,0.7,0,2.1,0c0.7,0,1.4,0,2.4,0.2c0.9,0.1,1.9,0.4,3,0.8c0.8,0.3,1.6,0.7,2.5,1.2c0,0,0,0,0,0
			c-0.4-0.1-0.9-0.1-1.3-0.2c-0.4,0-0.8,0-1.3,0c-0.8,0-1.6,0.2-2.3,0.3c-0.7,0.2-1.3,0.3-1.9,0.5c-1.1,0.4-2,0.8-2.6,1
			c-0.6,0.3-0.9,0.5-0.9,0.5c0,0.1,0.4,0,1-0.2c0.6-0.2,1.5-0.5,2.7-0.8c0.6-0.1,1.2-0.3,1.9-0.4c0.7-0.1,1.4-0.2,2.1-0.2
			c0.4,0,0.8,0,1.2,0c0.4,0,0.8,0.1,1.2,0.2c3.5,0.7,4.6,3.8,5.6,6.8c0.5,1.5,1.1,3.1,1.6,4.8c0.5,1.7,1.2,3.2,2,4.7
			c0.4,0.7,0.8,1.4,1.3,2.1c0.1,0.2,0.2,0.3,0.4,0.5c0,0,0,0,0,0c0.1,0.1,0.1,0.2,0.2,0.3c0.2,0.2,0.3,0.5,0.5,0.8
			c0.1,0.2,0.2,0.3,0.3,0.5c0.1,0.2,0.2,0.3,0.3,0.5c0.2,0.4,0.4,0.8,0.7,1.2c0.4,0.8,0.9,1.8,1.3,2.8c0.4,1,0.7,2,1,2.9
			c0.1,0.5,0.2,0.9,0.3,1.3c0,0.2,0.1,0.4,0.1,0.6c0,0.2,0.1,0.4,0.1,0.6c0.1,0.4,0.1,0.7,0.2,1c0,0.1,0,0.3,0.1,0.4
			c0,0.1,0,0.2,0.1,0.3c0.1,0.4,0.1,0.6,0.2,0.6c0.1,0,0.1-0.2,0.1-0.6c0-0.1,0-0.2,0-0.3c0-0.1,0-0.3,0-0.4c0-0.3,0-0.6,0-1
			c0-0.2,0-0.4-0.1-0.6c0-0.2-0.1-0.4-0.1-0.6c-0.1-0.4-0.2-0.9-0.3-1.4c-0.1-0.3-0.1-0.5-0.2-0.8c0.1,0.2,0.2,0.4,0.4,0.6
			c0.3,0.5,0.6,1,1,1.4c0.2,0.2,0.3,0.4,0.5,0.6c0.1,0.1,0.2,0.2,0.2,0.2c0.1,0.1,0.2,0.1,0.2,0.2c0.6,0.5,1,0.8,1,0.8
			c0,0-0.3-0.4-0.8-1c-0.1-0.1-0.1-0.1-0.2-0.2c-0.1-0.1-0.1-0.2-0.2-0.3c-0.1-0.2-0.3-0.4-0.4-0.6c-0.3-0.4-0.6-0.9-0.9-1.4
			c-0.3-0.5-0.5-1-0.8-1.4c-0.1-0.2-0.2-0.4-0.3-0.7c0-0.1-0.1-0.2-0.1-0.3c0-0.1-0.1-0.2-0.1-0.3c0.2,0.2,0.4,0.4,0.7,0.5
			c0.8,0.6,1.6,1,2.5,1.3c0.4,0.2,0.8,0.3,1.2,0.4c0.4,0.1,0.7,0.1,1,0.2c0,0,0,0,0,0c0.1,0.2,0.1,0.3,0.2,0.4
			c0.1,0.3,0.2,0.5,0.3,0.8c0,0.1,0.1,0.2,0.1,0.3c0,0.1,0.1,0.2,0.1,0.3c0.1,0.3,0.2,0.5,0.3,0.5c0,0,0-0.2,0-0.6
			c0-0.1,0-0.2-0.1-0.3c0-0.1-0.1-0.2-0.1-0.3c-0.1-0.2-0.1-0.5-0.2-0.8c0-0.1-0.1-0.2-0.1-0.3c0.4,0,0.7,0,1,0
			c0.4,0,0.6-0.1,0.6-0.1c0-0.1-0.7-0.1-1.7-0.3c0-0.1-0.1-0.2-0.1-0.3c-0.1-0.4-0.3-0.7-0.5-1.1c0,0,0-0.1-0.1-0.1
			c0.7,0.2,1.3,0.3,2,0.3c1,0.1,1.8,0.1,2.5,0c0.2,0,0.3,0,0.5-0.1c0.1,0,0.3-0.1,0.4-0.1c0.1,0,0.2-0.1,0.3-0.1
			c0.1,0,0.2-0.1,0.3-0.1c0.3-0.1,0.5-0.2,0.5-0.2c0,0-0.2,0-0.5,0c-0.1,0-0.2,0-0.3,0c-0.1,0-0.2,0-0.3,0c-0.1,0-0.3,0-0.4,0
			c-0.1,0-0.3,0-0.5,0c-0.6,0-1.4,0-2.3-0.2c-0.8-0.1-1.7-0.3-2.6-0.7c-0.3-0.4-0.5-0.8-0.8-1.3c-0.4-0.6-0.9-1.1-1.4-1.6
			c0.3,0.2,0.7,0.3,1.1,0.5c0.5,0.1,0.9,0.3,1.5,0.3c0.5,0.1,1.1,0.1,1.6,0.1c1.1-0.1,2.1-0.3,3-0.7c0.4-0.2,0.8-0.3,1.2-0.5
			c0.1,0,0.1-0.1,0.2-0.1c0.6,0.2,1.1,0.4,1.5,0.6c0.1,0.1,0.3,0.1,0.4,0.2c0.1,0,0.1,0.1,0.1,0.1c0,0,0.1,0.1,0.1,0.1
			c0.1,0.1,0.2,0.1,0.2,0.1c0,0,0-0.1-0.1-0.2c0,0-0.1-0.1-0.1-0.1c0,0-0.1-0.1-0.1-0.1c-0.1-0.1-0.2-0.2-0.3-0.3
			c-0.3-0.2-0.7-0.4-1.2-0.7c0.1-0.1,0.2-0.1,0.3-0.2c0.6-0.4,1-0.7,1.3-0.9c0.3-0.2,0.4-0.4,0.4-0.4C42.1,48.9,41.9,49,41.6,49.1z
			 M32.6,54.7c0.1,0,0.2,0.1,0.4,0.1c0.1,0.2,0.2,0.4,0.4,0.6c0.2,0.3,0.4,0.7,0.5,1c-0.2-0.1-0.4-0.1-0.6-0.2
			c-0.3-0.1-0.7-0.2-1.1-0.4c-0.7-0.3-1.5-0.7-2.3-1.3c-0.7-0.6-1.4-1.2-1.9-1.8c-0.2-0.3-0.4-0.5-0.6-0.8c-0.1-0.1-0.1-0.2-0.2-0.3
			c0-0.1-0.1-0.1-0.1-0.2c0.1,0.1,0.1,0.1,0.2,0.2c0.3,0.3,0.6,0.5,0.9,0.7c0.1,0.1,0.3,0.2,0.4,0.3c0.1,0.1,0.3,0.2,0.4,0.3
			C30.2,53.7,31.4,54.3,32.6,54.7z M31.8,53.1c0.1,0.2,0.2,0.3,0.3,0.5c-0.8-0.4-1.7-0.9-2.6-1.4c-0.1-0.1-0.3-0.2-0.4-0.3
			c-0.1-0.1-0.3-0.2-0.4-0.3c-0.3-0.2-0.5-0.4-0.8-0.7c-0.5-0.5-1-1-1.5-1.6c-0.1-0.1-0.2-0.3-0.4-0.4c-0.1-0.1-0.2-0.3-0.3-0.4
			c-0.1-0.1-0.1-0.1-0.2-0.2c-0.1-0.1-0.1-0.2-0.2-0.2c-0.1-0.2-0.2-0.3-0.3-0.5c-0.4-0.6-0.8-1.3-1.2-2c-0.1-0.1-0.1-0.2-0.2-0.3
			c0.4,0.6,0.8,1.1,1.3,1.7c0.8,0.9,1.8,1.5,2.8,2.3C29.5,50.2,30.7,51.7,31.8,53.1z M38,50.7c-0.8,0.3-1.8,0.5-2.8,0.6
			c-0.5,0-1,0-1.5,0c-0.5,0-0.9-0.1-1.3-0.3c-0.8-0.2-1.5-0.6-2.1-0.9c-0.1-0.1-0.2-0.2-0.4-0.3c0.7,0.2,1.4,0.3,2.1,0.3
			c0.9,0.1,1.7,0.1,2.5,0.1c0.8,0,1.5,0,2.2,0c0.7,0,1.3,0.1,1.9,0.2c0,0,0.1,0,0.1,0C38.5,50.6,38.2,50.7,38,50.7z"/>
		<path class="st1" d="M45,26.6c-0.3-0.2-0.7-0.4-0.9-0.6c-0.6-0.3-1.1-0.6-1.7-0.9c-0.6-0.3-1.3-0.6-2-0.8c-0.3-0.1-0.7-0.2-1-0.3
			c-0.1,0-0.9-0.2-0.6-0.4c0,0,0,0,0,0c0.3-0.2,0.7-0.3,1-0.5c0.3-0.2,0.6-0.4,0.9-0.6c0.1-0.1,0.3-0.2,0.4-0.3
			c0.1-0.1,0.3-0.2,0.4-0.3c1-0.8,1.8-1.7,2.3-2.5c0.6-0.8,0.9-1.5,1.2-1.9c0.2-0.5,0.3-0.8,0.2-0.8c-0.1-0.1-0.7,0.9-1.9,2.3
			c-0.6,0.7-1.4,1.5-2.4,2.2c-0.1,0.1-0.2,0.2-0.4,0.3c-0.1,0.1-0.3,0.2-0.4,0.3c-0.3,0.2-0.5,0.4-0.8,0.5c-0.3,0.2-0.6,0.3-0.9,0.5
			c-0.2,0.1-0.3,0.1-0.5,0.2c-0.1,0-0.2,0.1-0.2,0.1c-0.1,0-0.2,0.1-0.2,0.1l0,0c-0.1,0.1-0.3,0.1-0.4,0.2c0,0-0.1,0-0.1,0
			c0,0-0.1,0-0.1,0c-0.1,0-0.1-0.1-0.1-0.2c0.4-0.4,0.7-0.9,1-1.3c0.8-1,1.3-2.1,1.6-3c0-0.1,0-0.1,0.1-0.2c0,0,0,0,0,0
			c0.1-0.2,0.1-0.3,0.2-0.5c0-0.1,0.1-0.2,0.1-0.3c0-0.1,0.1-0.2,0.1-0.3c0.1-0.2,0.1-0.4,0.1-0.6c0,0,0,0,0,0
			c0-0.2,0.1-0.4,0.1-0.5c0.1-0.3,0.1-0.7,0.1-0.9c0-0.1,0-0.3,0-0.4c0-0.1,0-0.2,0-0.3c0-0.4-0.1-0.6-0.1-0.6
			c-0.1,0-0.1,0.2-0.2,0.5c0,0.1,0,0.2-0.1,0.3c0,0.1-0.1,0.2-0.1,0.4c-0.1,0.3-0.1,0.5-0.2,0.9c0,0.2-0.1,0.3-0.1,0.5c0,0,0,0,0,0
			c-0.1,0.2-0.1,0.4-0.2,0.5c0,0.1-0.1,0.2-0.1,0.3c0,0.1-0.1,0.2-0.1,0.3c0,0.1-0.1,0.2-0.1,0.3l-0.1,0.2c0,0,0,0,0,0
			c0,0.1-0.1,0.1-0.1,0.2c-0.4,0.9-1,1.8-1.7,2.7c-0.5,0.6-1.1,1.2-1.7,1.8c0,0-0.1,0-0.1,0c-0.8-0.1-1.6-0.1-2.5-0.1
			c-0.7,0-1.4,0-2.1,0.1c-0.4,0-0.7,0.1-1.1,0.1c-0.4,0-0.7,0.1-1.1,0.2c-0.7,0.1-1.5,0.4-2.2,0.7l0,0c-0.1,0.1-0.2-0.1-0.2-0.2
			c0-0.1,0.1-0.1,0.1-0.2c0.2-0.3,0.5-0.6,0.7-0.9c0.2-0.3,0.5-0.5,0.8-0.8c1.1-1,2.2-1.9,3.3-2.8c1.1-0.9,2.1-1.7,2.9-2.6
			c0.8-0.9,1.4-1.8,1.8-2.7c0.4-0.9,0.5-1.7,0.5-2.4c0-0.7-0.1-1.2-0.2-1.5c-0.1-0.2-0.1-0.3-0.2-0.4c0-0.1-0.1-0.1-0.1-0.1
			c0,0,0,0.1,0,0.1c0,0.1,0,0.2,0,0.4c0,0.3,0,0.8-0.1,1.4c-0.1,0.6-0.3,1.3-0.7,2.1c-0.4,0.8-1,1.6-1.8,2.4
			c-0.8,0.8-1.8,1.6-2.9,2.4c-0.5,0.4-1,0.7-1.5,1.2c-0.1,0.1-0.2,0-0.2-0.1c0.1-0.2,0.2-0.4,0.3-0.6c0-0.1,0.1-0.2,0.1-0.3
			c0-0.1,0.1-0.2,0.1-0.3c0.1-0.2,0.1-0.4,0.2-0.6c0.1-0.2,0.1-0.4,0.2-0.6c0-0.1,0.1-0.2,0.1-0.3c0-0.1,0-0.2,0.1-0.3
			c0.4-1.5,0.5-3,0.5-4.2c0-1.2-0.2-2.1-0.4-2.8c-0.2-0.6-0.3-1-0.4-1c-0.1,0-0.1,0.4-0.1,1c0,0.6,0,1.6-0.1,2.7
			c-0.1,1.1-0.3,2.4-0.8,3.9c0,0.1-0.1,0.2-0.1,0.3c0,0.1-0.1,0.2-0.1,0.3c-0.1,0.2-0.1,0.4-0.2,0.5c-0.1,0.2-0.1,0.4-0.2,0.5
			c0,0.1-0.1,0.2-0.1,0.3c0,0.1-0.1,0.2-0.1,0.3c-0.2,0.5-0.5,0.9-0.7,1.4c-0.1,0.1-0.2,0.1-0.2-0.1c0-0.9,0-1.7-0.1-2.6
			C26,16.8,26,16.4,25.9,16c-0.1-0.2-0.1-0.4-0.2-0.6c0-0.1-0.1-0.2-0.1-0.3c0-0.1-0.1-0.2-0.1-0.3c-0.3-0.8-0.7-1.5-1.2-2.1
			c-0.1-0.2-0.3-0.3-0.4-0.5c0,0,0,0,0,0c0.2-0.4,0.5-0.7,0.8-1.1c0.2-0.3,0.4-0.5,0.6-0.7c0,0,0,0,0,0c0.1-0.1,0.1-0.1,0.2-0.2
			c0,0,0,0,0,0c0.9-1,1.7-1.9,2.5-2.7c1.1-1,2.1-1.8,2.9-2.4c1.7-1.3,2.7-1.9,2.6-2c0-0.1-1.1,0.4-2.9,1.6c-0.9,0.6-2,1.3-3.1,2.3
			c-0.4,0.3-0.7,0.6-1.1,1c0,0,0,0,0-0.1c0-0.1,0-0.1,0-0.2c0-0.1,0.1-0.3,0.1-0.4c0-0.1,0-0.3,0.1-0.4c0-0.1,0-0.1,0-0.2
			c0-0.1,0-0.1,0-0.2c0.1-1.1,0.1-2,0-2.8c-0.1-0.8-0.3-1.4-0.4-1.9c-0.2-0.4-0.3-0.6-0.4-0.6c-0.1,0,0.1,1,0.1,2.5
			c0,0.8,0,1.7-0.2,2.7c0,0.1,0,0.1,0,0.2c0,0.1,0,0.1,0,0.2c0,0.1-0.1,0.3-0.1,0.4c0,0.1-0.1,0.3-0.1,0.4c0,0.1,0,0.1,0,0.2
			c0,0.1,0,0.1-0.1,0.2c-0.4,1.3-1.1,2.2-1.9,3.3c-0.1,0.1-0.2,0.1-0.2,0c0,0,0,0,0-0.1c-0.1-0.1-0.1-0.3-0.2-0.4l0,0
			c-0.3-0.6-0.6-1.3-0.8-1.9C22,8.3,22,8,21.9,7.7c0-0.2-0.1-0.3-0.1-0.5c0-0.1,0-0.2-0.1-0.2c0-0.1,0-0.2,0-0.2
			c-0.2-1.2-0.3-2.3-0.3-3.3c0-1.9,0.3-3.1,0.2-3.1c-0.1,0-0.2,0.3-0.4,0.8c-0.2,0.5-0.4,1.3-0.5,2.3c-0.1,1-0.1,2.2,0.1,3.5
			c0,0.1,0,0.2,0,0.2c0,0.1,0,0.2,0,0.2c0,0.2,0.1,0.3,0.1,0.5c0.1,0.3,0.2,0.7,0.3,1c0.1,0.5,0.3,1,0.6,1.5c0,0.1-0.1,0.2-0.2,0.1
			c-0.3-0.2-0.6-0.3-0.9-0.5c-0.6-0.3-1.2-0.5-1.7-0.8c-0.5-0.3-1-0.6-1.4-0.9c-0.1-0.1-0.2-0.2-0.3-0.3c-0.1-0.1-0.2-0.2-0.3-0.3
			c-0.1-0.1-0.2-0.2-0.3-0.3c0,0-0.1-0.1-0.1-0.1c0,0-0.1-0.1-0.1-0.1c-0.3-0.4-0.5-0.8-0.7-1.1c-0.4-0.7-0.6-1.4-0.7-2
			c-0.3-1.1-0.2-1.8-0.3-1.8c-0.1,0-0.1,0.2-0.2,0.5c0,0,0,0,0,0c0,0.2-0.1,0.4-0.1,0.6c0,0.1,0,0.3,0,0.4c0,0.1,0,0.3,0,0.4
			c0.1,0.6,0.2,1.4,0.6,2.2c0.2,0.4,0.4,0.9,0.7,1.3c0,0,0.1,0.1,0.1,0.1C16,7.9,16,8,16.1,8.1c0.1,0.1,0.2,0.2,0.3,0.3
			c0.1,0.1,0.2,0.2,0.3,0.3c0.1,0.1,0.2,0.2,0.3,0.3c0.4,0.4,0.9,0.8,1.5,1.1c0.6,0.3,1.1,0.6,1.7,0.9c0.6,0.3,1.2,0.6,1.7,1
			c0.2,0.1,0.4,0.3,0.5,0.4c0,0,0,0.1,0,0.1c-0.6,1-1.1,2.1-1.5,3.3c-0.2,0.5-0.3,1-0.5,1.6c0,0.1-0.2,0.1-0.2,0
			c0-0.1-0.1-0.2-0.1-0.4c-0.1-0.1-0.1-0.3-0.2-0.4c-0.1-0.1-0.1-0.3-0.2-0.4c-0.5-1.1-1-2-1.6-2.6c-0.6-0.7-1.1-1.2-1.5-1.5
			C16.3,12,16,11.9,16,11.9c-0.1,0.1,0.7,0.9,1.6,2.3c0.5,0.7,0.9,1.6,1.3,2.6c0.1,0.1,0.1,0.3,0.1,0.4c0.9,2.6,0.8,5.1,1,7.7
			c0,0.1,0,0.3,0.1,0.4c-0.2-0.4-0.4-0.8-0.6-1.3c-0.7-1.3-1.3-2.5-2.1-3.7c-0.4-0.6-0.7-1.1-1.1-1.6c-0.4-0.5-0.8-1-1.3-1.4
			c-0.4-0.4-0.9-0.8-1.3-1.2c-0.2-0.2-0.5-0.4-0.7-0.5c-0.1-0.1-0.2-0.2-0.3-0.2c-0.1-0.1-0.2-0.1-0.3-0.2c-0.6-0.3-1.1-0.6-1.7-0.8
			c-0.1,0-0.1-0.1-0.1-0.1c0.1-0.2,0.1-0.4,0.2-0.6c0.2-0.7,0.5-1.3,0.7-1.9c0.3-0.6,0.5-1.1,0.7-1.5c0.5-0.9,0.9-1.6,1.1-2.1
			c0.3-0.5,0.4-0.7,0.3-0.8c0,0-0.2,0.2-0.6,0.6c-0.3,0.4-0.8,1.1-1.4,2c-0.3,0.4-0.6,0.9-0.9,1.5c-0.3,0.6-0.6,1.2-0.9,1.9
			c-0.1,0.2-0.2,0.4-0.2,0.7c0,0,0,0-0.1,0c-0.8-0.2-1.6-0.3-2.2-0.3c-0.6,0-1.1,0.1-1.4,0.1c-0.3,0.1-0.5,0.1-0.5,0.2
			c0,0.1,0.7,0.1,1.8,0.2c0.6,0.1,1.2,0.2,2,0.5c0.1,0,0.1,0.1,0.1,0.1c-0.1,0.2-0.1,0.5-0.2,0.8C9,16.4,8.9,17.3,9,18.3
			c0,0.2,0,0.5,0,0.7c0,0.1,0,0.2,0,0.4c0,0.1,0,0.2,0,0.3c-0.1-0.1-0.2-0.2-0.3-0.2c-0.1-0.1-0.2-0.1-0.3-0.2
			c-0.1-0.1-0.2-0.1-0.3-0.2c-0.7-0.4-1.4-0.7-2-0.8C5.7,18,5.2,18,4.9,18c-0.3,0-0.5,0-0.5,0.1c0,0.1,0.7,0.3,1.7,0.7
			c0.5,0.2,1.1,0.5,1.7,0.9c0.1,0,0.1,0.1,0.2,0.2l0.2,0.2c0,0,0,0,0,0c0.1,0.1,0.3,0.2,0.4,0.4c0.3,0.3,0.6,0.5,0.8,0.9l0,0
			c0,0,0,0,0.1,0.1c0,0.1,0.1,0.1,0.1,0.1c0,0.2,0.1,0.3,0.2,0.5c0.1,0.3,0.2,0.5,0.3,0.7c0,0,0,0,0,0c0,0.1,0,0.2-0.1,0.2
			c-0.2,0-0.4,0-0.6,0c-1.3-0.1-2.4,0-3.2,0.1c-0.7,0.1-1.1,0.2-1.1,0.3c0,0.1,0.4,0.1,1.1,0.1c0.7,0,1.8,0.1,3.1,0.2
			c0.4,0.1,0.9,0.1,1.4,0.2c0,0,0.1,0,0.1,0c0.1,0.1,0.2,0.2,0.3,0.4l0.1,0.2c0,0.1,0.1,0.1,0.1,0.2c0.1,0.1,0.2,0.2,0.3,0.3
			c0,0,0,0,0,0c0.1,0.1,0.2,0.2,0.3,0.3c0.1,0.1,0.2,0.2,0.3,0.3c0.5,0.4,0.9,0.8,1.4,1.1c1,0.7,2,1.3,3,2.1
			c0.5,0.4,0.9,0.8,1.3,1.2c0.4,0.4,0.7,0.9,1.1,1.4c0.6,1,1.1,2.2,1.6,3.4c0.5,1.2,0.9,2.5,1.4,3.8c0.5,1.3,1.1,2.6,1.9,3.8l0,0
			c0.6,1,1.2,1.9,1.8,2.6c0,0,0,0,0,0c0.1,0.2,0.3,0.4,0.4,0.6c0.6,0.8,1.6,1.6,2.8,2.2c0.6,0.3,1.3,0.6,2,0.7
			c0.2,0,0.4,0.1,0.6,0.1l0.1,0c0,0,0,0,0,0l0.1,0c0.1,0,0.2,0,0.3,0c0.4,0,0.8,0,1.2,0c0.8,0,1.6-0.2,2.3-0.3
			c0.7-0.2,1.4-0.4,2-0.6c0.2-0.1,0.4-0.1,0.5-0.2c0,0,0.1,0,0.1,0c0.3,0.1,0.7,0.2,1,0.4c0.7,0.3,1.2,0.6,1.6,0.8
			c0.4,0.2,0.6,0.3,0.6,0.3c0,0-0.2-0.2-0.5-0.4c-0.3-0.3-0.9-0.6-1.6-0.9c-0.1-0.1-0.2-0.1-0.3-0.2c-0.1,0-0.1-0.2,0-0.2
			c0.7-0.2,1.4-0.5,1.9-0.7c1.9-0.7,3.1-1.1,3-1.2c0-0.1-1.2,0.2-3.2,0.8C40,46.3,39,46.6,38,46.9c0,0-0.1,0-0.1,0
			c-0.4-0.1-0.7-0.2-1.2-0.3c-1-0.2-2.2-0.4-3.4-0.4c-0.6,0-1.2,0.1-1.7,0.1c-0.6,0-1.1,0.1-1.6,0c-0.2,0-0.5,0-0.7-0.1
			c-0.2,0-0.5-0.1-0.7-0.1c-0.3-0.1-0.5-0.1-0.8-0.2c-0.1-0.1-0.3-0.1-0.4-0.2c-0.1,0-0.1-0.1-0.2-0.1c0,0-0.1-0.1-0.1-0.1l0.2,0.1
			l0,0c0,0,0,0,0.1,0c0.3,0.1,0.8,0.2,1.4,0.3c0.3,0.1,0.6,0.1,1,0.1c0.4,0,0.8,0,1.2,0c0.8,0,1.7-0.2,2.6-0.5
			c0.9-0.3,1.7-0.7,2.4-1.1c0.3-0.2,0.7-0.4,0.9-0.6c0.3-0.2,0.5-0.4,0.8-0.6c0.4-0.4,0.7-0.8,0.9-1.1c0.2-0.3,0.3-0.4,0.3-0.4
			c-0.1,0-0.5,0.5-1.4,1.3c-0.2,0.2-0.5,0.4-0.8,0.6c-0.3,0.2-0.6,0.4-0.9,0.6c-0.7,0.4-1.5,0.8-2.3,1c-0.9,0.3-1.7,0.4-2.5,0.5
			c-0.4,0-0.8,0-1.1,0c-0.1,0-0.1,0-0.2,0c-1.7-0.1-2.6-1-3.1-1.6c-0.4-0.7-0.9-1.6-1.5-2.5l0,0c-0.7-1.2-1.3-2.4-1.8-3.6
			c-0.5-1.2-0.9-2.5-1.4-3.8c-0.5-1.3-1-2.5-1.7-3.6c-0.4-0.6-0.8-1.1-1.2-1.6c-0.4-0.5-1-1-1.5-1.4c-1-0.8-2.1-1.4-3.1-2.1
			c-0.5-0.3-0.9-0.6-1.4-1c-0.1-0.1-0.2-0.2-0.3-0.3c0,0,0,0,0,0c0.3,0.1,0.6,0.2,0.9,0.3c0.1,0,0.2,0.1,0.3,0.1
			c0.1,0,0.2,0.1,0.3,0.1c0.2,0.1,0.4,0.1,0.6,0.2c0.2,0.1,0.4,0.2,0.6,0.3c0.1,0,0.2,0.1,0.3,0.1c0.1,0,0.2,0.1,0.3,0.1
			c0.8,0.4,1.8,0.8,2.5,1.3c0.7,0.5,1.2,1.3,1.6,2c2.3,4.3,3.3,9.1,5.7,13.3c0.1,0.1,0.3,0.1,0.3-0.1c0-0.8,0-1.7-0.1-2.5
			c-0.2-0.8-0.6-1.7-0.9-2.5c-0.3-0.7-0.6-1.5-0.8-2.2c-0.7-1.8-1.4-3.6-1.1-5.5c0.2-1.2,1.1-2.3,2.1-3.1l0,0c0,0,3.1-2,7.3-1.7
			c0.1,0,0.3,0,0.4,0.1c0.1,0,0.2,0,0.3,0c-0.5,0.1-0.9,0.2-1.2,0.3c-1.6,0.5-3,0.6-4.5,1.2c-1.2,0.4-2.4,1.1-3.1,2.2
			c-1,1.6-0.5,3.6,0.1,5.3c0.2,0.6,0.3,1,0.5,1.6c0.2,0.5,0.4,1,0.7,1.5c0,0,0.1,0.1,0.1,0.1c0.1,0.1,0.2,0,0.2-0.1
			c0-0.9,0.1-1.7-0.1-2.6c-0.2-0.8-0.6-1.6-0.6-2.5c0-1.3,0.6-2.4,1.6-3.3c1.1-0.9,2.3-1.1,3.5-1.6c1.5-0.5,3-1.1,4.5-1.6
			c0.8-0.3,1.4-0.5,2.3-0.4c0.9,0.1,1.8,0.3,2.6,0.5c1,0.2,1.9,0.5,2.9,0.8c0.5,0.2,1,0.3,1.4,0.5c0.2,0.1,0.5,0.2,0.7,0.2
			C45.1,26.8,45.1,26.7,45,26.6z M28.4,46.5c0,0,0.1,0,0.1,0c0.2,0.1,0.5,0.1,0.7,0.2c0.2,0,0.5,0.1,0.8,0.1
			c1.1,0.1,2.2-0.1,3.4-0.1c1.2,0,2.3,0.1,3.2,0.3c0.1,0,0.1,0,0.2,0c0.1,0,0.1,0.2,0,0.2c-1.1,0.3-2.3,0.6-3.6,0.7
			c-0.4,0-0.7,0-1.1,0c-0.1,0-0.2,0-0.3,0l-0.1,0c0,0,0,0,0,0l-0.1,0c-0.2,0-0.4-0.1-0.5-0.1c-0.7-0.1-1.3-0.4-1.9-0.6
			c-0.3-0.1-0.6-0.3-0.8-0.4C28.2,46.6,28.3,46.5,28.4,46.5z M18.4,25.5c-0.6-0.3-1.2-0.6-1.8-0.9c-0.1,0-0.2-0.1-0.3-0.1
			c-0.1,0-0.2-0.1-0.3-0.1c-0.2-0.1-0.4-0.2-0.7-0.3c-0.2-0.1-0.4-0.1-0.6-0.2c-0.1,0-0.2-0.1-0.3-0.1c-0.1,0-0.2-0.1-0.3-0.1
			c-0.8-0.2-1.5-0.4-2.2-0.5c0,0-0.1,0-0.1,0c-0.2-0.3-0.4-0.6-0.6-0.9c-0.1-0.2-0.2-0.4-0.3-0.7c0-0.1-0.1-0.2-0.1-0.3
			c0-0.1-0.1-0.2-0.1-0.3c0-0.1-0.1-0.2-0.1-0.3c0-0.1-0.1-0.2-0.1-0.3c0-0.1-0.1-0.2-0.1-0.3l0-0.2c0,0,0,0,0,0l0-0.2
			c0-0.1,0-0.2-0.1-0.3c0-0.1,0-0.2,0-0.3c0-0.2,0-0.4-0.1-0.7c-0.1-1.1,0-2.1,0.2-3c0-0.1,0.1-0.1,0.2-0.1c0.4,0.2,0.9,0.5,1.3,0.7
			c0.1,0.1,0.2,0.1,0.3,0.2c0.1,0.1,0.2,0.2,0.3,0.2c0.2,0.2,0.4,0.3,0.6,0.5c0.4,0.4,0.8,0.7,1.2,1.2c0.4,0.4,0.8,0.9,1.1,1.4
			c0.4,0.5,0.7,1,1,1.6c0.7,1.1,1.3,2.3,1.9,3.6c0.1,0.3,0.3,0.5,0.4,0.8C18.6,25.5,18.5,25.6,18.4,25.5z M24.4,22.9
			c-0.3,1.1-0.6,2.1-1.1,3.1c-0.4,0.8-1.1,2.3-0.9,3.2c-0.1-0.3-0.2-0.6-0.3-0.9c-0.1-0.3-0.2-0.6-0.2-0.9c-0.1-0.4-0.2-0.8-0.3-1.1
			c0-0.1,0-0.2-0.1-0.2c0-0.1-0.1-0.3-0.1-0.4c0-0.2-0.1-0.3-0.1-0.4c0-0.1-0.1-0.3-0.1-0.4c0-0.3-0.1-0.6-0.1-0.9
			c0-0.1,0-0.1,0-0.2l0-0.2c0-0.1,0-0.3,0-0.4c0-0.1,0-0.3,0-0.4c0-0.1,0-0.3,0-0.4c0-0.3,0-0.6,0-0.9l0-0.2l0-0.2
			c0-0.1,0-0.3,0-0.4c0-0.3,0.1-0.6,0.1-0.8c0.1-1.1,0.4-2.2,0.7-3.2c0.3-1,0.7-1.8,1.1-2.7c0-0.1,0.2-0.1,0.2,0
			c0.3,0.5,0.6,1,0.8,1.6c0,0.1,0.1,0.2,0.1,0.2c0,0.1,0.1,0.2,0.1,0.3c0.1,0.2,0.1,0.3,0.1,0.5C25.1,18.4,24.9,20.7,24.4,22.9z"/>
	</g>
	<g>
		<path class="st0" d="M18.4,18.2c-0.3-0.3-0.5-0.4-0.8-0.6c-0.1,0-0.1,0-0.1,0.1c-0.1,0.3-0.2,0.6-0.2,1c0,0.7,0.2,1.4,0.5,2
			c0.3,0.5,0.7,0.9,1.2,1.1c-0.6-1.6-1-2.8-0.9-2.8c0.1,0,0.6,1.1,1.3,2.7c0.2-0.4,0.2-1,0.1-1.6C19.3,19.4,18.9,18.7,18.4,18.2z"/>
		<path class="st0" d="M20.8,12.7c-0.2-0.4-0.5-0.8-0.8-1c-0.4-0.3-0.7-0.4-1.1-0.5c-0.1,0-0.1,0-0.2,0.1c-0.1,0.3-0.1,0.7-0.1,1.1
			c0,0.7,0.2,1.4,0.5,2.1c0.2,0.5,0.6,1.1,0.9,1.5c0-0.9-0.1-1.8-0.3-2.4c-0.1-0.6-0.3-0.9-0.2-1c0,0,0.3,0.3,0.5,0.9
			c0.2,0.6,0.5,1.4,0.5,2.4c0.4-0.4,0.7-1.1,0.6-1.9C21.1,13.6,21,13.1,20.8,12.7z"/>
		<path class="st0" d="M13.4,9.8c-0.1,0.1,0,0.1,0,0.2c0.3,0.2,0.6,0.4,0.9,0.6c0.6,0.3,1.2,0.6,1.9,0.8c0.5,0.2,1.1,0.3,1.7,0.4
			c-0.6-0.7-1.4-1.2-1.9-1.4C15.4,10.1,15,10,15,9.9c0,0,0.4-0.1,1,0.2c0.3,0.1,0.7,0.3,1,0.5c0.4,0.2,0.8,0.5,1.1,0.9
			c0-0.1,0-0.3,0-0.4c0-0.1-0.1-0.3-0.2-0.5c-0.2-0.3-0.4-0.6-0.7-0.9c-0.4-0.3-0.9-0.5-1.4-0.6c-0.5-0.1-1-0.1-1.4,0
			C14,9.3,13.6,9.5,13.4,9.8z"/>
		<path class="st0" d="M17.1,6.9c0.3,0.5,0.7,1,1.2,1.3c0.2,0.2,0.5,0.3,0.7,0.4c0.2,0.1,0.5,0.2,0.7,0.3c-0.9-1.4-1.4-2.7-1.7-3.7
			c-0.3-1-0.3-1.6-0.2-1.6c0.1,0,0.3,0.5,0.7,1.5c0.4,0.9,1,2.1,1.9,3.4c0.2-0.9,0.1-1.8-0.1-2.8C20,5.1,19.8,4.5,19.6,4
			c-0.2-0.6-0.5-1.1-0.9-1.6c-0.4-0.5-0.8-1-1.2-1.4c-0.1-0.1-0.2-0.1-0.3,0c-0.4,0.4-0.7,1-0.9,1.7c-0.2,0.6-0.2,1.4-0.1,2.1
			C16.4,5.5,16.7,6.3,17.1,6.9z"/>
		<path class="st0" d="M26.8,14c0.3,0.6,0.6,1.5,0.7,2.6c0.4-0.5,0.6-1.2,0.5-2c-0.1-0.5-0.2-1-0.5-1.4c-0.3-0.4-0.6-0.8-1-1.1
			c-0.4-0.3-0.8-0.4-1.2-0.5c-0.1,0-0.1,0-0.2,0.1c0,0.4,0,0.8,0,1.2c0.1,0.7,0.3,1.5,0.7,2.2c0.3,0.6,0.7,1.1,1.1,1.5
			c-0.1-1-0.3-1.9-0.5-2.5c-0.2-0.6-0.4-1-0.3-1C26.3,13.1,26.5,13.4,26.8,14z"/>
		<path class="st0" d="M23.3,16.8c-0.3-0.2-0.6-0.4-0.8-0.4c-0.1,0-0.1,0-0.1,0.1c-0.1,0.3-0.1,0.6-0.1,0.9c0,0.6,0.1,1.2,0.4,1.7
			c0.2,0.4,0.5,0.9,0.8,1.2c0-0.8-0.1-1.4-0.2-1.9c-0.1-0.5-0.2-0.7-0.1-0.8c0,0,0.2,0.2,0.4,0.7c0.2,0.5,0.3,1.1,0.4,1.9
			c0.3-0.3,0.5-0.9,0.5-1.5c0-0.4-0.1-0.7-0.3-1.1C23.8,17.3,23.6,17,23.3,16.8z"/>
		<path class="st0" d="M23.7,21c0-0.1-0.1-0.1-0.1-0.1c-0.3,0.1-0.6,0.2-0.8,0.5c-0.5,0.5-0.8,1.2-0.8,1.9c0,0.6,0.2,1.1,0.5,1.5
			c0-0.8,0.2-1.5,0.3-2c0.2-0.5,0.3-0.7,0.4-0.7c0,0,0,0.3-0.1,0.8c-0.1,0.5-0.2,1.2-0.2,1.9c0.3-0.3,0.6-0.7,0.8-1.2
			c0.2-0.6,0.3-1.2,0.3-1.8C23.8,21.6,23.7,21.3,23.7,21z"/>
		<path class="st0" d="M36.3,14.9c1-0.9,1.6-1.9,2.1-2.6c0.5-0.7,0.7-1.1,0.8-1.1c0.1,0,0,0.5-0.4,1.3c-0.4,0.8-1,1.8-2,2.8
			c0.8-0.1,1.7-0.5,2.4-1.3c0.4-0.5,0.8-1,1-1.6c0.2-0.6,0.3-1.2,0.3-1.8c-0.1-0.6-0.3-1.1-0.5-1.5c-0.1-0.1-0.2-0.1-0.2,0
			c-0.4,0.3-0.8,0.6-1.2,1c-0.7,0.7-1.3,1.6-1.7,2.5C36.5,13.4,36.3,14.2,36.3,14.9z"/>
		<path class="st0" d="M28.5,2.8c0.1,0,0,0.4-0.1,1.1c-0.2,0.6-0.4,1.5-0.9,2.5C28,6.1,28.6,5.6,29,4.9c0.5-0.8,0.6-1.9,0.4-2.7
			c-0.1-0.4-0.3-0.8-0.5-1.1c0-0.1-0.1-0.1-0.2,0c-0.3,0.2-0.6,0.5-0.9,0.9c-0.5,0.6-0.8,1.5-1,2.3C26.8,5,26.8,5.6,27,6.2
			C27.9,4.3,28.3,2.8,28.5,2.8z"/>
		<path class="st0" d="M23.6,2.8c0.2,0,0.3,2.5,0.3,5.9C24.6,8,25.1,7,25.3,5.8c0.3-1.4,0.1-2.9-0.4-4.1c-0.3-0.6-0.7-1.2-1.1-1.6
			c-0.1-0.1-0.2-0.1-0.3,0c-0.4,0.4-0.9,1-1.2,1.6c-0.6,1.2-0.8,2.7-0.6,4.1C22,6.9,22.4,8,23.1,8.7C23.2,5.3,23.4,2.8,23.6,2.8z"/>
		<path class="st0" d="M4,12.6c0.8,0.5,1.7,0.8,2.7,0.9c0.8,0.1,1.6,0,2.2-0.2c-1.1-0.4-2.1-0.7-2.8-0.9c-0.7-0.2-1.1-0.3-1.1-0.4
			c0-0.1,0.5-0.1,1.2,0.1c0.7,0.1,1.8,0.4,2.9,0.8c-0.3-0.6-0.9-1.1-1.7-1.5c-1-0.4-2.2-0.5-3.1-0.3C3.7,11,3.3,11.3,3,11.5
			c-0.1,0.1-0.1,0.1,0,0.2C3.2,12,3.6,12.3,4,12.6z"/>
		<path class="st0" d="M2.6,15.6c0.6,0.8,1.7,1.5,2.7,1.8c0.9,0.3,1.8,0.3,2.5,0.2c-2.3-1.2-4.1-2.3-4-2.4c0.1-0.1,1.9,0.7,4.3,1.9
			c-0.2-0.7-0.8-1.4-1.5-1.9c-0.9-0.7-2-1.1-3.1-1.2c-0.6,0-1.1,0-1.5,0.1c-0.1,0-0.1,0.1-0.1,0.2C2.1,14.7,2.3,15.2,2.6,15.6z"/>
		<path class="st0" d="M13,20.3c0.6,0.7,1.5,1.6,2.6,2.4c-0.1-0.8-0.4-1.6-0.9-2.4c-0.6-0.9-1.3-1.8-2.2-2.4
			c-0.5-0.3-0.9-0.6-1.4-0.8c-0.1,0-0.2,0-0.3,0.1c-0.2,0.5-0.3,1-0.3,1.7c0,0.6,0.2,1.2,0.6,1.8c0.3,0.6,0.8,1.1,1.3,1.6
			c0.4,0.4,0.9,0.6,1.4,0.8c0.2,0.1,0.5,0.1,0.7,0.2c0.2,0,0.5,0,0.7,0c-1.2-0.9-2-1.9-2.5-2.7c-0.5-0.8-0.7-1.3-0.6-1.3
			C12.1,19.2,12.4,19.6,13,20.3z"/>
		<path class="st0" d="M40.1,19.6c0.9-1,1.4-2,1.8-2.7c0.4-0.7,0.6-1.2,0.7-1.2c0.1,0,0,0.5-0.3,1.3c-0.3,0.8-0.8,1.9-1.7,2.9
			c0.8-0.1,1.6-0.6,2.3-1.5c0.4-0.5,0.7-1.1,0.8-1.7c0.2-0.6,0.2-1.2,0.1-1.7c-0.1-0.6-0.3-1.1-0.6-1.5c-0.1-0.1-0.2-0.1-0.2,0
			c-0.4,0.3-0.8,0.6-1.1,1c-0.6,0.8-1.1,1.7-1.4,2.6C40.2,18,40.1,18.8,40.1,19.6z"/>
		<path class="st0" d="M40.9,23.1c1-0.3,1.9-0.7,2.4-1.1c0.6-0.3,0.9-0.6,0.9-0.5c0,0-0.2,0.4-0.8,0.8c-0.5,0.4-1.4,0.9-2.5,1.3
			c0.6,0.2,1.4,0.3,2.2,0c0.5-0.2,0.9-0.5,1.3-0.8c0.4-0.3,0.7-0.8,0.8-1.2c0.2-0.4,0.2-0.9,0.2-1.2c0-0.1-0.1-0.1-0.2-0.1
			c-0.4,0.1-0.8,0.2-1.2,0.3c-0.7,0.3-1.5,0.7-2.1,1.2C41.6,22.1,41.2,22.6,40.9,23.1z"/>
		<path class="st0" d="M46.5,25.1c-0.1-0.2-0.3-0.4-0.5-0.6c-0.4-0.3-1-0.6-1.6-0.6c-0.5,0-1,0-1.3,0.2c1.4,0.4,2.4,0.7,2.4,0.8
			c0,0.1-1.1-0.1-2.5-0.5c0.2,0.3,0.6,0.6,1,0.8c0.5,0.2,1.2,0.3,1.8,0.3c0.3,0,0.6-0.1,0.8-0.2C46.5,25.2,46.5,25.2,46.5,25.1z"/>
		<path class="st0" d="M43.5,28.8c-0.4-0.1-0.8-0.1-1.2-0.2c-0.8,0-1.6,0-2.3,0.2c-0.6,0.1-1.2,0.4-1.7,0.7c1,0.2,1.9,0.2,2.6,0.1
			c0.7-0.1,1-0.1,1.1-0.1c0,0-0.3,0.2-1,0.4c-0.7,0.1-1.6,0.2-2.7,0c0.1,0.1,0.2,0.2,0.3,0.3c0.1,0.1,0.3,0.2,0.4,0.3
			c0.3,0.2,0.7,0.3,1.1,0.3c0.5,0.1,1.1,0,1.5-0.2c0.5-0.2,0.9-0.4,1.3-0.7c0.3-0.3,0.6-0.7,0.7-1C43.7,28.9,43.6,28.8,43.5,28.8z"
			/>
		<path class="st0" d="M3.3,29.2c0-0.1,0.4-0.3,1-0.5c0.7-0.2,1.7-0.5,2.8-0.7c-0.5-0.3-1.3-0.5-2.2-0.5c-0.5,0-1,0.2-1.5,0.4
			c-0.5,0.2-0.9,0.5-1.2,0.8c-0.3,0.4-0.6,0.8-0.7,1.1c0,0.1,0,0.1,0.1,0.2c0.4,0.1,0.8,0.1,1.3,0.1c0.8,0,1.7-0.2,2.6-0.5
			c0.7-0.3,1.3-0.7,1.7-1.2C4.9,28.8,3.3,29.4,3.3,29.2z"/>
		<path class="st0" d="M1.7,20.7c0.9,0.8,2.3,1.4,3.6,1.6c1.1,0.2,2.2,0.1,3-0.2c-3-1.1-5.3-2-5.2-2.1c0.1-0.2,2.4,0.5,5.4,1.5
			c-0.4-0.8-1.2-1.5-2.2-2c-1.2-0.6-2.6-1-3.9-0.9c-0.7,0-1.3,0.2-1.8,0.4c-0.1,0-0.2,0.2-0.1,0.3C0.9,19.8,1.3,20.2,1.7,20.7z"/>
		<path class="st0" d="M9.1,24.8c0.6,0.1,1.4,0.4,2.3,0.8c-0.2-0.5-0.6-1-1.3-1.4c-0.4-0.2-0.9-0.3-1.3-0.4c-0.5,0-0.9,0-1.3,0.1
			c-0.4,0.1-0.7,0.4-1,0.6c-0.1,0.1,0,0.1,0,0.2c0.3,0.2,0.6,0.4,0.9,0.6c0.6,0.3,1.3,0.5,2,0.6c0.6,0.1,1.2,0.1,1.7,0
			c-0.8-0.5-1.6-0.8-2.2-0.9c-0.6-0.2-0.9-0.2-0.9-0.3C8.2,24.7,8.5,24.6,9.1,24.8z"/>
		<path class="st0" d="M3.8,25.8c0.9,0.3,1.8,0.3,2.6,0.1c-2.4-1.2-4.2-2.1-4.2-2.3c0.1-0.1,2,0.6,4.4,1.7c-0.3-0.7-0.9-1.4-1.6-1.9
			c-0.9-0.6-2.1-1-3.2-1.1c-0.6,0-1.1,0.1-1.6,0.2c-0.1,0-0.1,0.1-0.1,0.2c0.2,0.4,0.4,0.9,0.8,1.3C1.7,24.8,2.7,25.5,3.8,25.8z"/>
		<path class="st0" d="M35,25.7c-0.3,0-0.6,0.1-0.9,0.2c-0.6,0.2-1.1,0.5-1.6,0.9c-0.4,0.3-0.7,0.7-0.9,1.1c1.5-0.6,2.5-1.3,2.5-1.2
			c0,0-0.2,0.3-0.6,0.6c-0.4,0.3-1,0.7-1.8,1c0.4,0.1,1,0.1,1.6-0.1c0.7-0.3,1.3-0.8,1.6-1.4c0.2-0.3,0.2-0.6,0.2-0.9
			C35.1,25.7,35,25.7,35,25.7z"/>
		<path class="st0" d="M40.3,26L40.3,26C40.2,26,40.3,25.9,40.3,26c0.1-0.1,0.1-0.1,0-0.2c0,0,0,0,0-0.1l-0.1,0
			c-0.3-0.2-0.7-0.3-1.1-0.3c-0.8-0.1-1.8,0.2-2.6,0.7c-0.6,0.4-1.1,1-1.3,1.5c0.9-0.5,1.8-0.8,2.4-1c0.6-0.2,1-0.3,1-0.2
			c0,0.1-1.4,0.6-3.2,1.6c0.6,0.1,1.2,0.1,1.9-0.1c0.8-0.2,1.6-0.6,2.2-1.1C39.9,26.5,40.1,26.2,40.3,26z"/>
		<path class="st0" d="M45.1,27.1c-0.2-0.1-0.4-0.2-0.7-0.2c-0.5,0-1,0.1-1.5,0.3c-0.4,0.2-0.7,0.5-0.9,0.7c1.2-0.3,2.1-0.6,2.1-0.5
			c0,0.1-0.8,0.4-2,0.7c0.3,0.1,0.7,0.2,1.1,0.1c0.5-0.1,1-0.3,1.4-0.6C44.9,27.5,45,27.4,45.1,27.1C45.1,27.1,45.1,27.1,45.1,27.1z
			"/>
		<path class="st0" d="M2.7,27.7c0.6,0,1.1-0.2,1.3-0.4c-0.7,0.1-1.3-0.1-1.7-0.3c-0.4-0.2-0.6-0.3-0.6-0.4c0,0,0.2,0.1,0.6,0.2
			c0.4,0.1,1,0.2,1.6,0.1c-0.3-0.2-0.6-0.4-1-0.5c-0.4-0.2-0.9-0.3-1.3-0.4c-0.2-0.1-0.5-0.1-0.7-0.1c-0.1,0-0.1,0-0.1,0.1
			c0,0.2,0,0.5,0.2,0.8c0.1,0.2,0.4,0.5,0.7,0.6C2,27.5,2.3,27.6,2.7,27.7z"/>
		<path class="st0" d="M41.6,12.2c0.1-0.5,0.1-0.8,0.1-0.8c0,0,0.1,0.3,0.1,0.9c0,0.5-0.2,1.3-0.7,2.1c0.1,0,0.3-0.1,0.4-0.1
			c0.1-0.1,0.3-0.2,0.4-0.3c0.2-0.2,0.4-0.5,0.6-0.8c0.2-0.4,0.3-0.8,0.2-1.3c0-0.4-0.2-0.8-0.4-1.2c-0.2-0.3-0.5-0.6-0.8-0.7
			c-0.1,0-0.1,0-0.2,0.1c-0.1,0.3-0.2,0.6-0.3,0.9c-0.2,0.6-0.3,1.2-0.3,1.7c0,0.5,0,1,0.1,1.4C41.3,13.4,41.5,12.7,41.6,12.2z"/>
		<path class="st0" d="M29.8,17.8c0.6-0.1,1.2-0.4,1.7-1c0.3-0.3,0.5-0.8,0.7-1.2c0.1-0.4,0.2-0.9,0.2-1.3c0-0.4-0.2-0.8-0.4-1.1
			c0-0.1-0.1-0.1-0.2,0c-0.3,0.2-0.6,0.4-0.9,0.7c-0.5,0.5-0.9,1.2-1.2,1.9c-0.2,0.6-0.3,1.2-0.3,1.7c0.7-0.7,1.1-1.4,1.5-2
			c0.3-0.5,0.5-0.8,0.5-0.8c0,0,0,0.4-0.3,1C30.9,16.3,30.5,17.1,29.8,17.8z"/>
		<path class="st0" d="M29.7,9.9c0,0.2,0.1,0.4,0.1,0.5c0.1,0.3,0.2,0.6,0.3,0.9c0.1,0.3,0.2,0.7,0.3,1c0.1-0.3,0.3-0.5,0.3-0.8
			c0.1-0.3,0.1-0.5,0.2-0.8c0-0.2,0-0.5,0-0.7c0-0.2,0-0.4-0.1-0.6c-0.1-0.8-0.2-1.2-0.1-1.3c0.1,0,0.3,0.4,0.5,1.2
			c0.1,0.2,0.1,0.4,0.2,0.7c0,0.2,0.1,0.5,0,0.8c0,0.3-0.1,0.6-0.1,0.9c-0.1,0.3-0.2,0.6-0.4,0.9c0.4-0.1,0.7-0.4,1-0.8
			c0.3-0.4,0.5-0.9,0.6-1.5c0-0.2,0-0.3,0-0.5c0-0.1,0-0.2,0-0.3l0-0.1l0-0.1c-0.1-0.3-0.1-0.5-0.2-0.8c-0.2-0.5-0.5-1-0.9-1.4
			c-0.4-0.4-0.8-0.7-1.3-0.9c-0.1,0-0.2,0-0.2,0.1c-0.2,0.4-0.3,0.9-0.3,1.4c-0.1,0.5,0,0.9,0,1.4C29.6,9.4,29.6,9.7,29.7,9.9z"/>
		<path class="st0" d="M33.9,8.5c-0.1,0-0.1,0-0.2,0c-0.2,0.3-0.4,0.6-0.5,1c-0.3,0.6-0.5,1.4-0.5,2.1c0,0.2,0,0.3,0,0.4
			c0,0.1,0,0.3,0,0.4c0,0.3,0.1,0.5,0.1,0.8c0.3-0.4,0.4-0.8,0.6-1.2c0.1-0.4,0.2-0.7,0.3-1c0.1-0.6,0.2-1,0.2-1
			c0.1,0,0.1,0.4,0.1,1c0,0.3-0.1,0.7-0.2,1.1c-0.1,0.4-0.3,0.9-0.6,1.3c0.6-0.2,1.2-0.7,1.5-1.4c0.4-0.9,0.4-1.9,0-2.7
			C34.5,9,34.2,8.7,33.9,8.5z"/>
		<path class="st0" d="M36.1,9.7l0,0.1l0,0.1c0,0.1,0.1,0.2,0.1,0.2c0.1,0.2,0.1,0.3,0.2,0.4c0.4-1,0.5-2,0.4-2.7
			c0-0.7-0.2-1.1-0.1-1.1c0.1,0,0.3,0.4,0.5,1.1c0.1,0.4,0.1,0.8,0.1,1.3c0,0.5-0.1,1.1-0.3,1.6c0.1-0.1,0.3-0.2,0.4-0.3
			c0.1-0.1,0.1-0.1,0.2-0.2c0,0,0.1-0.1,0.1-0.1c0,0,0.1-0.1,0.1-0.1c0.2-0.3,0.4-0.8,0.5-1.3c0.1-0.6,0-1.2-0.2-1.7
			c-0.2-0.6-0.5-1.1-0.9-1.4c-0.4-0.4-0.9-0.6-1.3-0.6c-0.1,0-0.2,0-0.2,0.1c-0.1,0.4-0.1,0.8-0.1,1.3c0,0.8,0.1,1.6,0.2,2.4
			C35.9,9.1,36,9.4,36.1,9.7z"/>
		<path class="st0" d="M32.7,8.2c0-1,0.3-1.9,0.5-2.5c0.3-0.6,0.5-0.9,0.6-0.9c0.1,0-0.1,0.4-0.3,1c-0.2,0.6-0.4,1.4-0.3,2.4
			c0.4-0.4,0.7-0.9,1-1.5c0.3-0.7,0.5-1.4,0.6-2.1c0-0.4,0-0.7,0-1.1c0-0.1-0.1-0.1-0.1-0.1c-0.4,0-0.8,0.2-1.2,0.4
			c-0.4,0.2-0.7,0.6-0.9,1c-0.2,0.4-0.4,0.9-0.4,1.4C32,7,32.3,7.7,32.7,8.2z"/>
		<path class="st0" d="M27.8,12.8c-0.3-0.8-0.4-1.6-0.4-2.2c0-0.6,0.1-0.9,0.1-0.9c0.1,0,0.1,0.3,0.1,0.9c0.1,0.5,0.2,1.3,0.5,2.1
			c0.2-0.4,0.3-1,0.3-1.5c0-0.6-0.1-1.3-0.3-1.9c-0.1-0.3-0.3-0.6-0.4-0.9c0-0.1-0.1-0.1-0.2,0c-0.3,0.2-0.5,0.4-0.8,0.8
			c-0.2,0.3-0.3,0.7-0.4,1.1c0,0.4,0,0.8,0.1,1.2C26.9,12.1,27.4,12.6,27.8,12.8z"/>
		<path class="st0" d="M16.5,15.4c0.1,0,0,0.3,0,0.8c0,0.5,0.1,1.2,0.4,1.9c0.2-0.4,0.3-0.9,0.3-1.4c0.1-0.6,0-1.2-0.1-1.7
			c-0.1-0.3-0.2-0.6-0.3-0.9c0-0.1-0.1-0.1-0.1-0.1c-0.3,0.1-0.6,0.3-0.8,0.6c-0.2,0.3-0.4,0.6-0.5,1c-0.1,0.4-0.1,0.8,0,1.2
			c0.2,0.6,0.6,1.1,1,1.3c-0.3-0.8-0.4-1.6-0.3-2.1C16.3,15.7,16.5,15.4,16.5,15.4z"/>
		<path class="st0" d="M13.3,12c0.1,0,0.8,1.7,2,3.9c0.2-0.7,0.2-1.5,0-2.3c-0.2-1-0.7-1.9-1.4-2.6c-0.3-0.4-0.7-0.7-1.1-0.9
			c-0.1-0.1-0.2,0-0.2,0.1c-0.2,0.4-0.4,0.9-0.5,1.4c-0.1,1,0.2,2.2,0.8,3.1c0.5,0.8,1.2,1.3,1.9,1.6c-0.6-1.1-1-2.1-1.3-2.9
			C13.3,12.5,13.2,12,13.3,12z"/>
		<path class="st0" d="M13.6,6.9c0.1,0.3,0.2,0.5,0.3,0.8c0.3,0.4,0.7,0.6,1,0.6c-0.4-0.5-0.6-0.9-0.7-1.3c-0.1-0.3-0.1-0.6-0.1-0.6
			c0,0,0.1,0.2,0.3,0.5c0.1,0.3,0.4,0.8,0.8,1.2c0-0.3,0-0.7-0.1-1c-0.1-0.4-0.3-0.8-0.5-1.1c-0.1-0.2-0.3-0.3-0.4-0.5
			c0,0-0.1,0-0.1,0c-0.1,0.2-0.3,0.4-0.3,0.6C13.5,6.4,13.5,6.7,13.6,6.9z"/>
		<path class="st0" d="M1.4,17c0.3,0.3,0.7,0.6,1.2,0.8C3,18,3.3,18.1,3.7,18.1C2.8,17.3,2,16.9,2,16.8c0,0,0.2,0,0.6,0.2
			c0.3,0.2,0.8,0.5,1.3,0.9c0-0.3-0.2-0.7-0.6-1c-0.4-0.4-1-0.6-1.5-0.6c-0.3,0-0.5,0-0.7,0.1c0,0-0.1,0.1,0,0.1
			C1.1,16.7,1.3,16.8,1.4,17z"/>
		<path class="st0" d="M6.5,9.4C6.8,9.7,7,10,7.3,10.2c0.3,0.3,0.5,0.5,0.8,0.8c0.5,0.4,1,0.8,1.5,1.2c-0.1-0.5-0.3-1-0.5-1.4
			c-0.2-0.4-0.5-0.7-0.7-1C8.1,9.6,7.9,9.4,7.7,9.2C7.6,9.1,7.5,9,7.5,9c0,0,0.1,0,0.3,0.1C8,9.2,8.3,9.3,8.6,9.6
			c0.3,0.2,0.6,0.6,0.9,1c0.3,0.4,0.5,0.9,0.6,1.5c0.2-0.3,0.3-0.6,0.3-1c0-0.4-0.1-0.9-0.3-1.3c-0.3-0.5-0.7-1-1.2-1.3
			C8.3,8.1,7.7,7.9,7.1,7.9c-0.6,0-1,0.1-1.4,0.4c-0.1,0-0.1,0.1,0,0.2C6,8.8,6.2,9.1,6.5,9.4z"/>
		<path class="st0" d="M11.7,6.7C11.8,6.9,11.9,7,12,7.1c-0.2-1.1,0-2,0.3-2.6c0.2-0.6,0.5-0.9,0.5-0.9c0.1,0-0.1,0.4-0.2,1
			C12.4,5.1,12.3,6,12.5,7c0.3-0.5,0.6-1,0.8-1.6c0.3-0.7,0.4-1.4,0.5-2.1c0-0.4,0.1-0.8,0-1.1c0-0.1-0.1-0.1-0.1-0.1
			c-0.4,0-0.8,0.2-1.2,0.4c-0.4,0.3-0.7,0.6-1,1.1c-0.2,0.5-0.4,1-0.4,1.5c0,0.4,0.1,0.8,0.2,1.1C11.5,6.4,11.6,6.6,11.7,6.7z"/>
		<path class="st0" d="M8.5,6.9C9,7.4,9.3,7.9,9.7,8.3c0.3,0.4,0.7,0.8,1,1.2c0-0.5,0-0.9-0.1-1.3c-0.1-0.4-0.3-0.7-0.5-0.9
			C9.9,7.1,9.7,6.9,9.6,6.8C9.5,6.7,9.4,6.6,9.5,6.6c0,0,0.1,0,0.3,0.1c0.2,0.1,0.4,0.2,0.6,0.5c0.2,0.2,0.5,0.6,0.6,1
			c0.2,0.4,0.3,0.9,0.2,1.4c0.2-0.2,0.4-0.5,0.5-0.9c0.1-0.4,0.1-0.8-0.1-1.2c-0.2-0.5-0.5-1-1-1.3c-0.5-0.3-1-0.5-1.5-0.6
			c-0.5,0-0.9,0.1-1.3,0.3c-0.1,0-0.1,0.1,0,0.2C8.1,6.4,8.3,6.7,8.5,6.9z"/>
		<path class="st0" d="M35.2,20.9c-0.1-0.4-0.4-0.8-0.7-1.2c-0.3-0.3-0.7-0.6-1.1-0.7c-0.4-0.1-0.8-0.1-1.2,0
			c-0.1,0-0.1,0.1-0.1,0.1c0.1,0.3,0.2,0.6,0.4,0.9c0.3,0.6,0.6,1.1,1,1.6c0.3,0.4,0.7,0.8,1.1,1.1c-0.1-0.9-0.5-1.6-0.8-2.1
			c-0.3-0.5-0.5-0.7-0.5-0.8c0,0,0.3,0.2,0.7,0.6c0.4,0.5,0.8,1.2,1,2.2c0.1-0.1,0.1-0.2,0.2-0.4c0-0.1,0.1-0.3,0.1-0.5
			C35.4,21.6,35.3,21.3,35.2,20.9z"/>
		<path class="st0" d="M34,16.8c-0.2,0.3-0.3,0.7-0.3,1.1c0,0.6,0.2,1.2,0.6,1.4c-0.1-0.8,0.1-1.5,0.3-1.9c0.2-0.5,0.4-0.7,0.4-0.7
			c0,0-0.1,0.3-0.2,0.7c-0.1,0.5-0.2,1.1-0.1,1.8c0.3-0.3,0.5-0.7,0.7-1.1c0.2-0.5,0.3-1,0.4-1.6c0-0.3,0-0.6,0-0.8
			c0-0.1,0-0.1-0.1-0.1c-0.3,0-0.6,0.1-0.9,0.4C34.4,16.2,34.2,16.4,34,16.8z"/>
		<path class="st0" d="M36,20.9c0.1,0,0.3-0.1,0.5-0.1c0.2-0.1,0.3-0.2,0.5-0.3c0.3-0.2,0.6-0.5,0.8-0.9c0.3-0.4,0.5-0.9,0.5-1.4
			c0.1-0.5,0-1-0.1-1.4c-0.2-0.4-0.4-0.8-0.7-1c-0.1-0.1-0.1,0-0.2,0c-0.2,0.3-0.5,0.6-0.7,1c-0.4,0.6-0.6,1.4-0.8,2.1
			c-0.1,0.6-0.2,1.2-0.1,1.8c0.7-0.8,1-1.6,1.3-2.2c0.2-0.6,0.3-1,0.4-1c0.1,0,0.1,0.4-0.1,1.1C37.1,19.1,36.7,20,36,20.9z"/>
		<path class="st0" d="M32.8,21.1c0.1-0.1,0-0.1,0-0.2c-0.3-0.2-0.7-0.4-1.1-0.5c-0.4-0.1-0.9,0-1.4,0.1c-0.5,0.1-0.9,0.4-1.3,0.6
			c-0.6,0.5-1,1-1.1,1.6c0.9-0.5,1.7-0.9,2.3-1.2c0.6-0.2,1-0.3,1-0.2c0,0.1-0.3,0.2-0.9,0.5c-0.6,0.3-1.3,0.7-2.2,1.3
			c0.6,0.1,1.2,0,1.9-0.2c0.4-0.1,0.7-0.3,1.1-0.5c0.3-0.2,0.6-0.4,0.9-0.6C32.2,21.6,32.5,21.4,32.8,21.1z"/>
		<path class="st0" d="M9.4,28c0.4,0,1,0,1.6,0.1c-0.2-0.3-0.6-0.5-1-0.6c-0.6-0.1-1.2-0.1-1.7,0.1c-0.2,0.1-0.4,0.3-0.6,0.4
			c0,0,0,0.1,0,0.1c0.2,0.1,0.4,0.2,0.6,0.3c0.4,0.2,1,0.2,1.5,0.2c0.4,0,0.8-0.1,1.1-0.3c-1.2-0.3-2.2-0.3-2.2-0.3
			C8.8,28,9,28,9.4,28z"/>
		<path class="st0" d="M30.9,3.2c0.3-0.3,0.6-0.4,0.6-0.4c0,0-0.2,0.2-0.4,0.5c-0.3,0.3-0.7,0.7-1,1.3c0.4-0.1,0.7-0.3,1.1-0.6
			c0.4-0.3,0.8-0.7,1-1.1c0.1-0.2,0.2-0.4,0.3-0.7c0,0,0-0.1-0.1-0.1c-0.2-0.1-0.5-0.1-0.8,0c-0.3,0.1-0.6,0.2-0.8,0.4
			c-0.3,0.2-0.5,0.4-0.7,0.7c-0.3,0.4-0.4,0.9-0.3,1.3C30.2,3.9,30.6,3.5,30.9,3.2z"/>
		<path class="st0" d="M38.2,22.3c0.3,0,0.7-0.1,1.1-0.3c0.4-0.3,0.7-0.7,0.8-1.2c0-0.2,0-0.4,0-0.6c0,0,0-0.1-0.1,0
			c-0.2,0.1-0.4,0.1-0.6,0.3c-0.3,0.2-0.7,0.5-0.9,0.8c-0.2,0.3-0.4,0.6-0.4,0.9c0.5-0.3,0.8-0.6,1.1-0.8c0.2-0.2,0.4-0.4,0.4-0.4
			c0,0-0.1,0.2-0.3,0.5C39,21.6,38.7,22,38.2,22.3z"/>
	</g>
</g>
</svg>
