<svg width="91" height="91" viewBox="0 0 91 91" fill="none" xmlns="http://www.w3.org/2000/svg">
<g id="doughfin">
<path id="Vector" d="M2.76065 58.2524C3.17542 58.1145 3.57103 58.1212 3.91875 58.4239C5.48395 59.786 7.32023 60.6596 9.29732 61.174C12.5475 62.0199 13.945 64.314 14.4288 67.3984C14.5102 67.9157 14.5504 68.4368 14.5198 68.9598C14.5064 69.1993 14.5801 69.3027 14.8292 69.273C15.1989 69.229 15.5773 69.2318 15.9394 69.1543C16.3474 69.0671 16.5639 68.8669 16.5093 68.3477C16.3455 66.7883 16.2593 65.2183 15.6012 63.7613C14.4738 61.2641 12.7323 59.4431 10.0196 58.6672C8.76282 58.3071 8.06835 57.4296 8.09708 56.3673C8.12486 55.3223 8.8816 54.3893 9.94007 54.0971C10.8759 53.8385 12.0589 54.3222 12.6155 55.192C12.7151 55.3472 12.808 55.5062 12.9038 55.6633C13.0389 56.1978 13.0551 56.7371 12.9 57.2658C12.8233 57.5245 12.8626 57.6576 13.1136 57.7975C15.2688 58.9948 16.7268 60.811 17.6971 63.0438C18.6454 65.2269 19.0726 67.521 19.0937 69.8947C17.517 71.3277 14.2698 71.7396 12.2917 70.3986C11.9967 70.1984 11.853 70.2309 11.5905 70.4292C9.72742 71.8354 7.60472 72.3057 5.31727 72.0404C4.36033 71.9293 4.35076 71.8756 4.36991 72.8536C4.37566 73.1257 4.18408 73.5079 4.63812 73.6449C4.80384 73.8144 5.02703 73.8623 5.24351 73.8997C6.9227 74.1918 8.61051 74.257 10.2935 73.9705C10.6911 73.9035 11.0579 73.8834 11.4468 73.9677C12.9076 74.2838 14.3818 74.5137 15.88 74.3432C18.4701 74.0491 20.4491 72.8335 21.6053 70.4292C21.6398 70.3957 21.6743 70.3631 21.7097 70.3296C21.8074 70.2779 21.8256 70.1878 21.8285 70.0892C21.9952 69.7175 22.1532 69.341 22.3324 68.9751C22.4808 68.6715 22.6647 68.3812 23.0632 68.3937C23.4359 68.4061 23.7031 68.5632 23.8813 68.9253C24.5298 70.2424 25.2597 71.503 26.412 72.4667C28.5596 74.2627 31.7762 74.6535 34.1327 72.4168C34.5589 72.0126 34.8769 71.5404 35.1432 71.0231C35.6394 70.0623 35.9728 70.0326 36.6826 70.8727C36.8742 71.0997 37.0753 71.3191 37.2726 71.5413C37.309 71.5835 37.3454 71.6256 37.3818 71.6678C37.4135 71.7032 37.4451 71.7396 37.4767 71.776C38.4307 72.8278 39.6549 73.4571 41.0046 73.7378C42.9932 74.1506 44.977 74.0271 46.8411 73.1286C48.5547 72.3019 49.9494 71.1131 50.8278 69.3861C50.8278 69.3861 50.8479 69.3554 50.8479 69.3545C50.9514 69.3056 50.9801 69.2146 50.9897 69.1111C51.0156 69.0661 51.0414 69.0211 51.0682 68.9751C51.1669 68.818 51.2646 68.6609 51.3633 68.5038C51.962 67.5574 52.4055 67.5345 53.0837 68.4138C53.1076 68.4569 53.1315 68.499 53.1555 68.5422L53.1871 68.5182L53.1574 68.5441C53.2043 68.6648 53.2407 68.7903 53.2992 68.9042C55.7476 73.7234 61.3321 75.6344 66.2087 73.2981C67.9569 72.4609 69.3937 71.253 70.343 69.5259C70.5739 69.1064 70.7894 68.6782 71.0394 68.2701C71.4178 67.6504 71.9398 67.6322 72.4207 68.1647C72.708 68.4818 72.8776 68.8669 73.1199 69.2079C73.1199 69.3027 73.1477 69.3822 73.2473 69.4167L73.2464 69.4148C73.961 70.7626 75.0108 71.8182 76.2695 72.6343C78.8175 74.2867 81.6232 74.6679 84.5658 74.0807C85.2517 73.9437 85.9787 73.823 86.5468 73.3307C86.5525 73.2492 86.5582 73.1688 86.563 73.0874C86.5659 72.8805 86.5678 72.6726 86.5707 72.4647C86.5755 71.9676 86.2287 72.0979 85.9461 72.1161C83.4345 72.2741 80.991 71.9647 78.669 70.9637C76.0003 69.8133 73.9207 67.9789 72.4312 65.474C71.686 64.2211 71.6668 64.2307 70.9417 65.4501C70.2798 66.5631 69.4876 67.5709 68.5795 68.4952C64.8859 72.2569 59.6472 71.9896 56.1231 68.9952C54.7523 67.8304 53.6986 66.4195 52.7685 64.8993C52.4419 64.3657 52.4447 64.3667 52.1085 64.8974C50.9131 66.7844 49.6007 68.5584 47.6735 69.7903C45.5307 71.1601 43.2298 71.6084 40.769 70.9733C38.7526 70.4532 37.3138 69.1226 36.1711 67.4367C35.9852 67.1618 35.7975 66.8888 35.5551 66.5335C35.0168 67.5201 34.4823 68.4052 33.8175 69.2069C32.1287 71.2434 29.7388 71.5461 27.7962 70.6629C26.8699 70.2415 26.0691 69.6322 25.4101 68.8477C25.1725 67.8793 25.3334 66.9176 25.502 65.9673C26.026 63.0113 27.3038 60.4575 29.6775 58.5513C30.2082 58.125 30.621 57.7879 30.2503 57.0541C30.1564 56.8683 30.1967 56.6145 30.1756 56.3922C30.2455 56.2006 30.3145 56.0091 30.3854 55.8184C30.759 54.8251 31.4496 54.2034 32.5186 54.0779C33.5656 53.9544 34.3367 54.4199 34.8913 55.2858C35.5283 56.2801 35.1107 57.7074 33.9947 58.3846C33.5187 58.6739 32.9659 58.7812 32.4793 59.036C31.3461 59.6289 30.485 60.5342 29.7244 61.5399C28.4284 63.2527 27.8355 65.2298 27.5337 67.3237C27.4494 67.908 27.663 68.2548 28.1525 68.5517C29.4016 69.3104 29.416 69.2788 29.5578 67.8659C29.7742 65.7049 30.4725 63.7278 32.101 62.1827C32.5071 61.7976 32.9554 61.493 33.5646 61.3215C33.5062 61.6118 33.4947 61.8589 33.4037 62.0725C33.2629 62.3992 33.329 62.493 33.6863 62.4902C35.8233 62.4748 37.6865 61.8608 39.0285 60.0907C39.6003 59.3358 40.4174 59.4824 40.8992 60.1156C42.1665 61.7804 43.8333 62.9356 45.7634 63.6454C47.0499 64.1186 48.4427 64.2479 49.8278 64.2642C50.1084 64.2671 50.2607 64.132 50.3929 63.9031C50.6985 63.3743 51.0117 62.8494 51.437 62.4021C52.1861 61.6127 53.0118 61.6654 53.645 62.5448C53.6776 62.5898 53.7187 62.6319 53.7398 62.6827C54.327 64.0602 55.3424 64.474 56.8118 64.2776C58.3463 64.0736 59.9067 64.0812 61.2899 63.2431C61.6645 63.0161 62.0601 63.1243 62.4183 63.2996C62.8944 63.5324 63.3791 63.5621 63.8906 63.4845C66.0009 63.1664 67.7883 62.2555 69.1849 60.6213C69.3545 60.423 69.5202 60.22 69.6907 60.0226C70.2654 59.3569 70.7721 59.3531 71.3756 60.0083C71.413 60.0495 71.4561 60.0887 71.4829 60.1366C72.1965 61.401 73.4198 61.7076 74.7254 61.9164C77.7763 62.4049 80.6547 61.834 83.4489 60.6146C84.722 60.059 85.9088 59.3713 87.0046 58.5226C87.3495 58.2553 87.7192 58.1279 88.1531 58.24C88.4712 58.489 88.589 58.8138 88.588 59.2161C88.5832 65.3591 88.658 71.504 88.565 77.646C88.4769 83.4853 84.1568 88.7307 78.0282 89.4147C76.4486 89.5909 74.8556 89.4846 73.2694 89.4846C53.9228 89.4894 34.5762 89.4655 15.2305 89.5057C12.1231 89.5124 9.29924 88.8112 6.91791 86.815C4.1017 84.4547 2.42539 81.4594 2.41772 77.6862C2.40623 71.5423 2.4091 65.3993 2.40048 59.2554C2.40048 58.8674 2.43401 58.5092 2.7664 58.2505L2.76065 58.2524ZM63.9414 69.0489C64.4261 68.9751 64.882 68.8381 65.3907 68.4033C64.6838 68.4828 64.1761 68.2711 63.6511 68.1456C63.4548 68.0421 63.2632 67.9262 63.0592 67.84C62.9203 67.7806 62.7862 67.7528 62.7287 67.9837C62.4739 69.0211 62.768 69.3372 63.7776 69.0882C63.8322 69.0747 63.8858 69.0623 63.9404 69.0489H63.9414ZM32.1833 65.0334C32.0617 65.2776 31.8854 65.5689 32.1345 65.7786C32.5081 66.0938 33.6221 65.6953 33.8606 65.2049C34.0972 64.8859 34.3329 64.5679 34.6471 64.1445C34.1087 64.1445 33.7064 64.1617 33.307 64.1406C32.4535 64.0966 32.4535 64.0889 32.1929 64.9232C32.1824 64.9577 32.1862 64.996 32.1843 65.0334H32.1833ZM39.3963 65.9434C39.1118 66.1512 38.8417 66.384 38.539 66.5603C38.2583 66.7241 38.2803 66.8553 38.4815 67.0632C39.0151 67.614 39.5716 68.1398 40.2459 68.5096C41.1071 68.9818 42.0219 69.2606 43.0229 69.1121C43.7815 69.2989 44.4329 68.9761 45.2203 68.7337C43.2317 68.1973 41.5985 67.3323 40.2795 65.9156C39.9723 65.5855 39.6779 65.5947 39.3963 65.9434ZM83.0035 77.3605C82.9968 77.7887 82.9987 78.2179 82.9796 78.646C82.9681 78.9056 83.0562 79.0091 83.3282 79.01C84.2239 79.0129 85.1176 79.0196 86.0122 78.9593C86.3456 78.9363 86.4902 78.7773 86.5036 78.4784C86.5285 77.9209 86.5362 77.3624 86.5515 76.804C86.5582 76.5262 86.5554 76.2484 86.5736 75.9716C86.5946 75.6354 86.5209 75.5511 86.1684 75.6976C85.3963 76.0195 84.5792 76.1929 83.7449 76.2609C82.8895 76.3308 82.8885 76.3251 82.9633 77.1996C82.968 77.2542 82.9901 77.3069 83.0035 77.3605ZM9.46304 63.2517C9.25614 63.1712 9.05306 63.0802 8.84328 63.0122C7.49552 62.5802 6.16213 62.1137 4.93795 61.3828C4.77893 61.288 4.59502 61.06 4.4044 61.2171C4.24347 61.3503 4.31627 61.5945 4.37375 61.7919C4.37949 62.2747 4.3862 62.7584 4.39099 63.2412C4.3929 63.426 4.37279 63.5937 4.59694 63.7048C5.46958 64.1368 6.34701 64.3629 7.24743 63.8082C7.73213 63.5103 8.09133 63.5831 8.43809 64.0429C8.83466 64.5698 9.3251 64.996 10.0244 65.0784C10.5713 65.2441 11.1049 65.156 11.6614 65.042C11.2926 64.2929 11.2371 63.2986 10.056 63.4711C9.88356 63.3302 9.67857 63.2776 9.464 63.2507L9.46304 63.2517ZM86.5075 61.8925C86.6023 61.6491 86.5535 61.4068 86.564 61.0878C85.062 62.0572 83.4681 62.6003 81.8828 63.1626C81.5456 63.2718 81.2084 63.382 80.8712 63.4912C80.5609 63.5285 80.2505 63.5688 79.9392 63.6004C79.7783 63.6167 79.6806 63.654 79.6422 63.8475C79.4095 65.042 79.6566 65.3054 80.853 65.1081C81.5973 65.0238 82.2037 64.6799 82.6213 64.0678C82.9307 63.6138 83.2899 63.5764 83.7133 63.8236C84.5534 64.314 85.3906 64.1914 86.2345 63.8552C86.4414 63.7728 86.5774 63.6425 86.5592 63.3954C86.5228 62.8954 86.61 62.3906 86.5075 61.8925ZM8.80401 77.3452C8.82413 77.2188 8.86148 77.0923 8.86148 76.9659C8.86148 76.1507 8.85861 76.1526 8.02907 76.1833C7.18996 76.2139 6.35371 76.1957 5.52609 76.0233C4.72402 75.856 4.36385 76.1919 4.44559 77.031C4.44176 77.4755 4.43409 77.9209 4.43505 78.3654C4.43601 78.8031 4.66495 79.0005 5.09983 78.9976C5.87956 78.9928 6.65832 78.9976 7.43805 79.0024C8.50515 79.0068 8.96717 78.4717 8.82412 77.3969C8.82221 77.3787 8.81071 77.3625 8.80401 77.3452ZM36.582 64.5037C36.6519 64.6129 36.7487 64.7125 36.786 64.8313C36.9747 65.4309 37.332 65.3064 37.7238 65.065C38.2468 64.7431 38.7468 64.3926 39.1712 63.9414C39.8494 63.222 39.9662 63.2182 40.6396 63.9701C42.2786 65.8026 44.3237 66.8773 46.7261 67.34C47.3526 67.4607 47.7712 67.3036 48.0547 66.748C48.3354 66.566 48.525 66.3036 48.73 66.0488C48.6687 66.0037 48.6429 65.9683 48.6141 65.9664C45.2471 65.7202 42.4673 64.2996 40.2546 61.767C39.9653 61.4355 39.7613 61.4748 39.5045 61.7536C38.5581 62.7814 37.4202 63.5151 35.9536 63.9989C36.2075 64.2029 36.3952 64.3533 36.582 64.5046V64.5037ZM56.7016 66.5881C57.1624 67.1839 57.6815 67.521 58.5111 67.3161C59.559 67.0574 60.6185 66.8553 61.5955 66.3725C62.2076 66.0698 62.8168 66.0018 63.4826 66.225C64.1866 66.4606 64.9089 66.6781 65.6694 66.5948C66.5411 66.4999 67.4626 66.4242 68.091 65.7585C68.5929 65.2269 68.9732 64.5679 69.3066 63.9002C69.7472 63.3226 70.0221 62.6348 70.5212 62.0946C70.6217 61.9863 70.9273 61.9193 70.6859 61.675C70.457 61.4432 70.3612 61.7018 70.2568 61.8216C69.5183 62.6645 68.6619 63.359 67.6992 63.9328C65.9233 64.9903 64.086 65.6522 62.0064 64.9002C61.7497 64.8073 61.5467 64.9079 61.3311 65.0219C59.9192 65.7681 58.4067 66.0392 56.8214 65.9798C56.6116 65.9721 56.3807 65.9089 56.1537 66.0995C56.3453 66.27 56.5244 66.4281 56.7026 66.5871L56.7016 66.5881ZM11.0637 68.3008C11.5455 68.0555 12.0225 68.0632 12.4909 68.3688C12.5944 67.3802 12.193 66.9252 11.2869 67.0038C11.2313 67.0086 11.1758 67.0229 11.1202 67.0239C10.0397 67.0402 8.96398 66.9549 8.16318 66.1359C7.7781 65.7422 7.51756 65.3955 6.93899 65.8131C6.76752 65.9367 6.47058 65.8936 6.23015 65.9127C5.72055 65.953 5.23298 65.816 4.73966 65.7212C4.59693 65.6934 4.37279 65.566 4.3862 65.8706C4.40248 66.2537 4.26838 66.6503 4.4772 67.0181C4.31148 67.8094 4.44271 68.6111 4.38716 69.4043C4.36033 69.7845 4.51743 69.9158 4.87664 69.9857C7.22061 70.4407 9.3002 69.9608 11.0637 68.3008ZM76.963 67.4827C78.0071 68.5105 79.2926 69.1121 80.6557 69.5709C82.3569 70.1447 84.0955 70.3277 85.8791 70.0508C86.3236 69.9819 86.5678 69.8535 86.5324 69.3238C86.4778 68.5278 86.5142 67.726 86.5123 66.9262C86.6128 66.5114 86.5726 66.0995 86.5468 65.6618C86.0122 65.7643 85.5563 65.9328 85.063 65.9319C84.5706 65.9319 84.0926 65.8715 83.6328 65.7106C83.4164 65.6349 83.3292 65.7528 83.2171 65.8811C82.6931 66.4808 82.0236 66.8294 81.2496 66.975C79.6221 67.2816 78.0579 66.9961 76.5224 66.4549C76.2379 66.3543 75.9611 66.1771 75.5817 66.3285C76.054 66.7356 76.4553 67.1714 76.964 67.4837L76.963 67.4827ZM50.1439 75.8873C51.2914 75.4802 52.3125 74.848 53.2609 74.0999C54.1661 73.3862 54.1536 73.3709 53.2819 72.5481C52.939 72.0749 52.5951 71.6017 52.2417 71.1131C51.2081 72.4092 50.1736 73.5797 48.7549 74.4255C47.1754 75.3672 45.5201 75.9294 43.7126 76.0166C40.9989 76.1469 38.5706 75.3422 36.4613 73.6113C36.3023 73.4811 36.149 73.2387 35.922 73.5376C35.65 73.8958 35.2304 74.0865 34.9047 74.3949C37.7497 76.804 41.0324 77.7561 44.6944 77.4391C46.6035 77.2734 48.4273 76.759 50.142 75.8883L50.1439 75.8873ZM54.1622 87.3466C55.6546 87.3543 57.1461 87.3638 58.6385 87.3686C59.718 87.3725 60.7976 87.3686 61.9327 87.3686C60.629 83.5936 60.6041 79.9411 62.5285 76.3298C60.082 76.486 57.9344 75.9151 55.9755 74.6507C55.8184 74.5491 55.715 74.5616 55.5885 74.689C54.5588 75.7379 53.304 76.4764 52.0597 77.2293C51.1631 77.6699 50.2646 78.1058 49.2856 78.3845C51.3805 81.195 51.5252 84.2258 50.5127 87.428C51.0893 87.428 51.6305 87.4452 52.1698 87.4232C52.8336 87.3964 53.5042 87.5238 54.1613 87.3456L54.1622 87.3466ZM67.5057 87.3859C68.2816 87.3565 68.6795 86.9519 68.6993 86.1722C68.704 86.0046 68.7098 85.8369 68.7222 85.6693C68.7797 84.9087 69.1744 84.471 69.7865 84.4844C70.4493 84.4997 70.7951 84.9317 70.8037 85.7498C70.8095 86.2508 70.6275 86.9079 70.8765 87.2125C71.1658 87.5669 71.8536 87.2767 72.3642 87.3485C72.755 87.519 73.1678 87.3552 73.5634 87.4251C74.6621 87.6196 75.2513 87.2182 75.7915 86.1636C77.4496 82.9278 80.8827 81.8521 84.2411 83.3407C84.4193 83.4202 84.585 83.4077 84.6865 83.2631C85.175 82.5667 85.6712 81.8703 85.8379 80.9728C85.1109 80.9728 84.4212 80.9622 83.7334 80.9747C82.1874 81.0044 80.6394 80.8808 79.0962 81.0647C78.9688 80.8501 78.7447 80.8885 78.5474 80.8549C77.0693 80.6068 75.6229 80.2994 74.3528 79.4104C73.278 78.6585 72.2119 77.9085 71.4091 76.8538C70.9695 76.2752 71.0097 75.7589 71.4762 75.3863C71.9264 75.0261 72.5356 75.0875 72.9648 75.6047C74.7828 77.7964 77.1575 78.8165 79.9497 79.0024C80.8798 79.0637 80.8808 79.0819 80.8779 78.1336C80.8779 77.873 80.8626 77.6125 80.8549 77.3519C80.8655 77.2226 80.8664 77.0914 80.8875 76.963C80.9699 76.4668 80.8176 76.2829 80.263 76.2206C77.942 75.962 75.894 75.0271 74.0999 73.5347C73.2435 72.822 72.5471 71.9561 71.8316 71.0739C71.7502 71.1792 71.7032 71.2348 71.6611 71.2942C70.0413 73.5864 67.9224 75.1679 65.1675 75.8346C64.928 75.893 64.77 76.0233 64.6656 76.234C62.9308 79.7457 62.6885 83.3368 64.0947 87.0132C64.1684 87.2067 64.2431 87.4424 64.5468 87.429C65.5325 87.3849 66.521 87.4951 67.5067 87.3859H67.5057ZM10.943 77.2695C10.9344 77.715 10.943 78.1623 10.9123 78.6058C10.8884 78.9439 11.0407 79.0177 11.3376 79.0052C11.9143 78.9823 12.4929 79.0024 13.0686 78.9688C14.6845 78.875 16.2995 78.7782 17.8801 78.374C18.4385 78.2313 18.9098 78.4727 19.0956 78.9123C19.2661 79.3146 19.064 79.9354 18.6425 80.1806C18.3916 80.3271 18.109 80.4737 17.8283 80.5053C16.2047 80.6873 14.5954 81.0082 12.9565 81.0561C10.3683 80.8913 7.77715 81.0599 5.10462 80.9364C5.53759 82.0494 6.11999 82.9882 6.79914 83.8723C6.94186 84.0581 7.04244 83.9327 7.16122 83.8349C8.67086 82.5849 10.4353 82.3952 12.2591 82.7525C14.3847 83.1683 16.0064 84.4145 16.9844 86.3178C17.4567 87.2383 17.9979 87.5774 18.9558 87.4117C19.4395 87.3284 19.9443 87.565 20.4194 87.3236C21.0153 87.3236 21.612 87.3179 22.2078 87.3293C22.4693 87.3351 22.569 87.2431 22.5642 86.974C22.5555 86.4529 22.5805 85.9308 22.5862 85.4088C22.59 84.9873 22.8822 84.6836 23.1811 84.562C23.5527 84.4106 24.024 84.2603 24.3602 84.7775C24.5518 85.0716 24.6677 85.3618 24.6744 85.7009C24.683 86.1291 24.6878 86.5582 24.6744 86.9864C24.6658 87.2776 24.7836 87.3734 25.071 87.3725C28.0155 87.3629 30.9592 87.3619 33.9037 87.359C34.9957 87.5094 36.0944 87.3724 37.1883 87.4232C37.3885 87.4328 37.3943 87.2968 37.3713 87.1627C37.3426 86.9989 37.2918 86.8379 37.2477 86.677C36.4814 83.8742 36.719 81.217 38.3934 78.7686C38.4432 78.6949 38.5179 78.6278 38.4537 78.5205C37.4431 78.2993 36.5945 77.6977 35.6557 77.2992C34.9565 76.8069 34.1719 76.4333 33.5483 75.8384C33.2504 75.5539 32.9746 75.5377 32.5972 75.6564C30.3969 76.349 28.302 76.0971 26.3086 74.9217C25.3459 74.3547 24.5978 73.5567 23.842 72.7617C23.6361 72.4772 23.4301 72.1917 23.2069 71.8843C23.0671 72.071 22.9416 72.231 22.8247 72.3977C21.385 74.4639 19.4453 75.7963 16.9729 76.2944C15.1204 76.668 13.2745 76.5789 11.4737 75.9793C11.0512 75.8384 10.8357 75.8519 10.9018 76.3768C10.9392 76.6709 10.9296 76.9707 10.942 77.2676L10.943 77.2695ZM43.8017 87.5056C43.8017 87.5056 43.8017 87.5094 43.8017 87.5104C44.1934 87.5104 44.5852 87.5209 44.977 87.5085C45.9617 87.4769 46.4416 87.1263 46.774 86.2124C47.2606 84.8762 46.7443 83.7325 45.4109 83.2468C44.7461 83.0045 44.0574 82.8263 43.3917 82.5858C43.0171 82.4508 42.7508 82.1845 42.8121 81.7372C42.8715 81.309 43.1417 81.0858 43.5641 81.036C44.2001 80.9603 44.8132 80.9728 45.4071 81.2917C45.9014 81.5571 46.3602 81.4038 46.5585 80.989C46.7673 80.5513 46.5786 80.0992 46.0757 79.8463C45.7893 79.7026 45.4847 79.6135 45.1628 79.6078C44.9272 79.6039 44.7634 79.5426 44.773 79.26C44.7892 78.7763 44.453 78.7485 44.0919 78.7361C43.7289 78.7236 43.3754 78.7485 43.3639 79.2074C43.3553 79.5407 43.2001 79.6058 42.9223 79.6403C42.2326 79.7256 41.7747 80.1298 41.4855 80.7476C40.7555 82.309 41.4299 83.7372 43.1666 84.2871C43.6465 84.4384 44.1398 84.5486 44.613 84.7172C45.0096 84.8589 45.3008 85.1358 45.2155 85.6042C45.1303 86.0745 44.7979 86.29 44.3342 86.3025C43.7384 86.3188 43.1589 86.3149 42.6081 85.9864C42.2393 85.7661 41.8044 85.7862 41.4797 86.1396C41.2048 86.4385 41.3121 86.7853 41.4797 87.0765C41.6742 87.4127 42.0516 87.4769 42.4031 87.4979C42.8677 87.5267 43.3352 87.5046 43.8017 87.5046V87.5056ZM11.3434 86.4778C11.7352 86.4778 12.1269 86.4701 12.5187 86.4797C12.9268 86.4902 13.2189 86.3418 13.2889 85.9165C13.3626 85.4624 13.1586 85.1453 12.7228 85.0199C12.4938 84.9538 12.2429 84.949 12.0015 84.9442C11.7016 84.9384 11.5474 84.8273 11.5848 84.5064C11.647 83.9815 11.4267 83.7803 10.8826 83.7765C10.3539 83.7727 10.0924 83.9413 10.1431 84.4767C10.1795 84.8589 9.97743 84.9691 9.64983 84.9815C9.37108 84.9921 9.09042 84.9988 8.81455 85.0352C8.6517 85.0563 8.46012 85.1166 8.41702 85.2948C8.37487 85.4682 8.57603 85.5228 8.67278 85.6272C9.40652 86.4126 10.3357 86.5563 11.3434 86.4787V86.4778ZM83.1635 85.085C82.5054 84.9375 82.4537 84.9423 82.3952 84.2717C82.3311 83.5361 81.8176 83.8196 81.4517 83.7842C81.0532 83.7459 80.923 84.0074 80.9651 84.3541C81.0293 84.8819 80.8051 85.0725 80.2965 84.9959C80.17 84.9768 80.0312 84.9796 79.9085 85.0112C79.4928 85.1195 79.2026 85.3666 79.2045 85.8235C79.2064 86.2211 79.5972 86.472 80.0628 86.5103C81.3511 86.6167 82.2966 86.0027 83.1635 85.084V85.085ZM75.0606 63.7766C75.7685 64.2173 76.5339 64.5132 77.3356 64.7269C77.5377 64.7805 77.782 64.8744 77.7293 64.519C77.6968 64.3035 77.9621 63.9002 77.4391 63.9184C76.644 63.9452 75.8595 63.8379 75.0606 63.7766ZM31.4506 68.5814C31.8768 68.2567 32.2169 67.9827 32.4458 67.5613C31.2733 67.3994 31.4822 67.3956 31.4506 68.5814ZM59.4939 68.6743C59.8282 68.9052 60.1491 68.9244 60.4412 69.0211C60.5629 69.0613 60.7449 69.1887 60.8167 68.9818C60.8675 68.8343 60.8752 68.636 60.8167 68.4952C60.7363 68.2998 60.5629 68.4598 60.4345 68.4818C60.1443 68.5316 59.8579 68.5977 59.4939 68.6734V68.6743Z" fill="#6359E9"/>
<path id="Vector_2" d="M22.1475 60.3311C21.6379 59.4402 21.1283 58.5494 20.6177 57.6586C20.9041 56.7878 20.9741 55.8759 21.1158 54.9784C21.8467 50.3613 23.4905 46.0556 25.6745 41.9587C27.2588 38.9873 29.2637 36.2918 31.5349 33.8022C33.8309 31.2848 36.3128 28.9782 39.2114 27.1563C40.404 26.4072 40.4088 26.4149 39.9557 25.0633C39.6089 24.0278 39.9298 23.4531 40.9797 23.228C41.7853 23.3525 42.0449 23.9761 42.2317 24.638C42.8581 26.8594 43.021 29.1075 42.6148 31.3921C42.2384 33.5091 41.6406 35.5494 40.6195 37.4527C40.4212 37.7027 40.1808 37.925 40.0553 38.2938C41.3217 38.0859 42.4577 37.6271 43.4568 36.9776C47.1265 34.5934 48.9963 31.1536 49.1707 26.7875C49.2425 24.979 48.9398 23.2213 48.4043 21.5009C48.207 20.8687 48.2367 20.2959 48.6917 19.7824C49.6917 19.4539 50.1841 19.7039 50.5175 20.7087C50.9035 21.8716 51.0587 23.0853 51.2905 24.2807C51.4121 26.0461 51.4591 27.8086 51.052 29.5989C52.6708 29.0616 54.2532 28.6727 55.8721 28.4303C56.6806 28.3096 57.4804 28.1295 58.2889 28.0117C59.0044 27.9073 59.7343 27.892 60.446 27.7694C62.1492 27.4753 63.8648 27.4753 65.5641 27.6592C68.1034 27.9332 70.6122 28.4562 73.1592 28.6851C74.4313 28.7991 75.6996 28.7617 76.9113 28.2847C77.7284 27.9638 78.442 27.5031 78.8434 26.6783C78.898 26.5662 78.9736 26.4264 78.8874 26.3076C78.7763 26.1553 78.6547 26.3019 78.5416 26.3354C78.2207 26.4312 77.9008 26.5308 77.5809 26.6295C75.848 26.868 74.1363 26.7013 72.4226 26.4101C70.4599 26.0777 68.4856 25.8162 66.5239 25.4771C64.5458 25.1352 62.5687 24.7759 60.6098 24.3391C59.9211 24.1849 59.264 23.819 58.8109 23.2069C58.4191 22.6772 58.3626 22.0919 58.6682 21.5862C58.8875 21.2222 59.2199 21.0085 59.6395 21.0382C59.9929 21.0631 60.3838 21.1685 60.4748 21.5747C60.6414 22.318 61.22 22.4665 61.8197 22.5412C64.1435 22.8305 66.4338 23.3238 68.7519 23.6475C70.888 24.0614 73.0395 24.3794 75.1947 24.6667C76.3145 24.8162 77.4247 24.6227 78.4746 24.1878C78.8261 24.0422 79.2236 23.8746 79.0838 23.3477C79.1202 22.8937 78.8462 22.5766 78.5857 22.2643C77.8184 21.3428 76.7628 20.9511 75.643 20.6694C74.0893 20.2786 72.5146 19.997 70.9331 19.7527C71.0068 19.1541 70.9972 18.5544 70.9656 17.9538C70.9838 15.9882 70.3124 14.2152 69.364 12.5465C67.4818 9.23506 64.6359 7.00508 61.1769 5.54238C56.4277 3.53367 51.4763 3.36795 46.455 4.10553C44.0632 4.45708 41.7862 5.23681 39.5543 6.14585C36.8895 7.23114 34.3836 8.61434 32.0397 10.2744C31.303 10.7964 30.7178 10.8156 29.9055 10.4228C27.1908 9.10958 24.3286 8.41606 21.2844 8.78006C20.3055 8.89692 19.3638 9.17854 18.3312 9.5981C18.8437 9.84237 19.2537 10.0387 19.6637 10.2341C19.747 10.3041 19.8227 10.3864 19.9146 10.443C21.9799 11.716 23.0939 13.6251 23.5834 15.9451C23.774 16.8484 23.6188 17.7613 23.6255 18.6703C21.204 22.3956 18.9395 26.2013 17.563 30.4649C17.1406 31.7734 16.5812 33.0474 16.2651 34.3798C15.2842 38.5198 14.6328 42.7097 14.6251 46.9828C14.6223 48.8325 14.6874 50.6793 14.7583 52.5262C14.766 52.7302 14.7784 52.9438 14.7315 53.1392C14.6357 53.5454 14.3847 53.7321 13.945 53.6277C13.2419 53.4601 12.695 52.8356 12.6126 52.0798C12.3875 50.0146 12.3693 47.9455 12.4354 45.8717C12.5618 41.9443 13.0753 38.0658 14.0839 34.2725C15.4221 29.2388 17.244 24.3909 20.2317 20.0717C21.2327 18.6243 21.6666 17.1339 21.1024 15.447C20.5037 13.6577 19.2432 12.4641 17.5285 11.738C16.9806 11.5062 16.4107 11.3204 15.8436 11.1384C15.2037 10.9344 14.7267 10.5646 14.6673 9.86919C14.6098 9.20153 14.9958 8.73504 15.561 8.43522C17.5429 7.38537 19.6311 6.66215 21.886 6.52996C24.7731 6.36042 27.5443 6.82117 30.1229 8.18808C30.5712 8.42564 30.917 8.40552 31.3404 8.12199C33.6815 6.55487 36.126 5.17454 38.7449 4.11703C40.6339 3.35454 42.566 2.72521 44.5517 2.28362C47.6668 1.59106 50.8192 1.27687 54.0042 1.61884C58.2553 2.0748 62.3283 3.10836 65.8763 5.63625C69.3956 8.14306 71.9523 11.3472 72.9274 15.651C73.051 16.1961 73.1276 16.7517 73.2023 17.3063C73.3 18.0352 73.4121 18.0822 74.1535 18.1866C75.8202 18.4213 77.4927 18.6751 78.921 19.6799C80.126 20.5267 80.9785 21.6187 81.2563 23.1006C81.3914 23.8228 81.014 24.4139 80.8406 25.0662C80.695 25.6141 81.3588 26.2549 81.1059 26.9647C80.5772 28.4466 79.5187 29.4265 78.1374 30.076C76.3059 30.9371 74.3729 31.0358 72.3872 30.8174C69.6409 30.5156 66.9252 29.9898 64.178 29.711C62.6818 29.5597 61.2028 29.8557 59.7228 30.0539C59.3674 30.1018 59.4556 30.3748 59.4268 30.5626C59.0992 32.6987 58.421 34.7026 57.1174 36.445C55.7351 38.2918 53.9371 39.5591 51.6717 40.1032C51.0251 40.2584 50.4341 40.1032 49.9839 39.6099C49.5682 39.1539 49.5241 38.6127 49.7655 38.0428C50.1161 37.2171 50.437 36.3808 50.5414 35.4804C50.6477 34.5589 50.5539 33.6662 50.1525 32.7341C49.7751 33.3491 49.4494 33.9018 49.1036 34.4421C47.3066 37.2506 44.8592 39.221 41.6493 40.2028C40.8944 40.4337 40.1253 40.563 39.3359 40.5668C38.7765 40.5688 38.2478 40.4366 37.8522 40.0237C37.6347 39.7967 37.5073 39.8522 37.3052 40.0228C32.737 43.8677 29.37 48.5049 27.8728 54.3644C27.7282 54.9324 27.4964 55.3625 26.9762 55.6393C26.3258 55.9851 25.8804 56.5886 25.2875 57.0091C25.1572 56.0129 25.2578 55.0243 25.5451 54.076C26.5797 50.665 27.9293 47.4091 30.0817 44.5134C32.3031 41.5247 34.831 38.8436 37.8627 36.6902C38.8771 35.9699 39.289 35.0474 39.5879 33.965C40.2938 32.3414 40.4318 30.6162 40.585 28.7397C39.8264 29.2685 39.1693 29.689 38.5543 30.1612C35.3664 32.6086 32.5972 35.4622 30.2264 38.7124C28.2359 41.4414 26.6975 44.4061 25.4781 47.5461C24.7127 49.2894 24.1227 51.0912 23.7022 52.9486C23.227 55.0473 22.9636 57.1739 22.8391 59.3195C22.8123 59.7774 22.8046 60.2861 22.1475 60.3311Z" fill="#6359E9"/>
<path id="Vector_3" d="M70.9628 17.9567C70.9944 18.5573 71.004 19.1569 70.9302 19.7556C69.4388 19.8476 68.0144 20.1407 66.7519 21.2653C66.7519 20.7011 66.7471 20.2662 66.7519 19.8313C66.7749 18.2297 66.4003 16.7335 65.6024 15.3397C64.4654 13.354 62.7948 11.9603 60.72 11.0771C58.5992 10.1748 56.3606 9.80214 54.0531 9.92858C51.9955 10.0416 49.9983 10.4899 48.0327 11.0876C45.7069 11.7946 43.4971 12.785 41.3207 13.8569C41.1234 13.9546 40.9299 14.0801 40.6923 14.0562C40.3475 13.2132 39.6952 12.9718 38.9068 13.4134C38.6147 13.5772 38.3484 13.7851 38.0648 13.9642C33.3213 16.9643 29.4016 20.8352 26.1706 25.3967C24.1658 28.2263 22.4942 31.2513 21.1628 34.4679C20.3821 36.3559 19.6943 38.2784 19.0813 40.2163C18.4452 42.225 18.0008 44.2998 17.5716 46.3659C17.3369 47.4991 17.2795 48.6725 17.1952 49.8316C17.0898 51.2799 17.0371 52.7331 16.9624 54.1843C16.1559 53.9496 15.8685 53.5597 15.8465 52.7704C15.7516 49.3891 16.0256 46.0278 16.4394 42.68C16.8015 39.7498 17.6301 36.9173 18.4548 34.0905C19.1138 31.8308 19.975 29.643 20.9616 27.5098C21.682 25.9522 22.5699 24.4809 23.4464 23.0029C24.2146 21.7059 25.0576 20.475 25.9915 19.3016C27.5653 17.3216 29.2474 15.4556 31.2216 13.8454C32.8117 12.5494 34.4344 11.3175 36.2142 10.3012C39.5611 8.38925 43.1254 7.04915 46.9177 6.34701C48.9187 5.97631 50.9447 5.80389 52.9821 5.88148C57.1633 6.03953 61.1089 7.03095 64.5525 9.49274C67.3122 11.467 69.3765 14.0332 70.5451 17.2632C70.638 17.5199 70.6773 17.814 70.9628 17.9567Z" fill="#8EE7EC"/>
<path id="Vector_4" d="M16.9634 54.1852C17.0381 52.734 17.0898 51.2819 17.1961 49.8326C17.2804 48.6735 17.3379 47.5001 17.5726 46.3669C18.0008 44.3007 18.4452 42.225 19.0822 40.2172C19.6962 38.2784 20.383 36.3569 21.1637 34.4689C22.4942 31.2513 24.1667 28.2272 26.1716 25.3976C29.4035 20.8361 33.3223 16.9662 38.0658 13.9651C38.3493 13.786 38.6156 13.5782 38.9078 13.4144C39.6961 12.9728 40.3494 13.2142 40.6933 14.0571C40.677 14.6864 40.3197 15.0725 39.8063 15.3819C36.8981 17.1387 34.2984 19.2776 31.9314 21.7107C27.2799 26.4915 24.1093 32.1498 21.931 38.4135C20.1493 43.5354 19.0966 48.7789 19.1282 54.2188C19.1282 54.237 19.1272 54.2561 19.1263 54.2743C19.1138 55.1939 18.7996 55.51 18.3015 55.6096C17.8647 55.6968 17.1741 55.0397 17.0256 54.4573C17.0026 54.3672 16.9835 54.2753 16.9624 54.1843L16.9634 54.1852Z" fill="#6359E9"/>
<path id="Vector_5" d="M40.9807 23.2289C39.9308 23.4541 39.6099 24.0288 39.9567 25.0643C40.4097 26.4159 40.404 26.4072 39.2124 27.1573C36.3138 28.9792 33.8328 31.2858 31.5358 33.8032C29.2646 36.2927 27.2598 38.9892 25.6754 41.9596C23.4905 46.0565 21.8477 50.3623 21.1168 54.9793C20.975 55.8759 20.9051 56.7888 20.6187 57.6595C20.1417 57.4296 20.0229 57.0522 20.0075 56.5292C19.8734 51.9639 20.8352 47.6055 22.4962 43.3878C23.6792 40.3868 25.1467 37.5418 26.9753 34.8568C28.7541 32.2456 30.736 29.8365 33.0186 27.6707C34.7802 25.9982 36.7219 24.5518 38.8139 23.3123C39.3053 23.0211 39.8159 22.8161 40.403 22.8851C40.6492 22.9138 40.8925 22.9387 40.9807 23.2299V23.2289Z" fill="#8EE7EC"/>
<path id="Vector_6" d="M40.8791 47.1658C40.8791 47.8334 40.8935 48.4494 40.8734 49.0643C40.8628 49.3766 40.9672 49.5251 41.2738 49.619C41.8246 49.7875 42.3648 49.9897 42.8026 50.4016C44.0967 51.619 43.8917 53.6182 42.3591 54.6364C42.2815 54.6881 42.2039 54.7466 42.1177 54.7772C41.3772 55.0368 40.7919 55.3558 40.9069 56.3395C40.9567 56.761 40.5448 57.0637 40.0735 57.0762C39.6568 57.0877 39.1386 56.6556 39.198 56.2208C39.3101 55.3931 38.8829 55.1326 38.2143 54.874C37.423 54.5684 36.8866 53.9237 36.582 53.1229C36.3531 52.5214 36.558 51.9524 37.0485 51.734C37.5476 51.5118 38.0495 51.7464 38.3953 52.3135C38.6022 52.6536 38.7085 53.2599 39.199 53.1306C39.4624 53.0616 39.244 52.4725 39.289 52.121C39.2909 52.1028 39.2861 52.0836 39.289 52.0654C39.4289 51.2138 39.1951 50.6975 38.2698 50.3853C37.2209 50.0308 36.6423 49.139 36.672 47.9915C36.7056 46.707 37.3656 45.8113 38.583 45.3985C39.0467 45.2414 39.222 45.044 39.1923 44.5421C39.1511 43.8476 39.495 43.4386 40.0132 43.4147C40.5774 43.3878 40.9615 43.8055 40.9615 44.5459C40.9615 45.0009 41.0975 45.2299 41.5554 45.3726C42.3993 45.6351 43.0229 46.1906 43.3476 47.0355C43.5967 47.683 43.4338 48.276 42.9558 48.5049C42.475 48.7358 41.9376 48.4867 41.6033 47.8488C41.4433 47.5442 41.2747 47.274 40.882 47.1667L40.8791 47.1658ZM40.8619 51.3585C40.8619 51.9236 40.8734 52.4074 40.858 52.8911C40.8475 53.2379 40.9807 53.2302 41.2105 53.0683C41.5065 52.8605 41.6857 52.5846 41.6368 52.2158C41.5813 51.7982 41.3494 51.5137 40.8628 51.3575L40.8619 51.3585ZM39.2746 47.1533C38.8474 47.3928 38.6568 47.7175 38.6779 48.1256C38.697 48.4925 38.9001 48.7674 39.2746 48.8833V47.1533Z" fill="#6359E9"/>
<path id="Vector_7" d="M66.5574 50.5021C66.3304 51.4227 66.6666 51.8939 67.5785 52.1804C68.6332 52.5118 69.2089 53.5118 69.182 54.5674C69.1533 55.6815 68.3918 56.7706 67.2557 57.1355C66.7193 57.308 66.5737 57.5733 66.5881 58.0867C66.6024 58.605 66.1829 59.0236 65.7422 59.0226C65.3131 59.0226 64.8399 58.6011 64.8485 58.1136C64.8571 57.579 64.6694 57.3559 64.1493 57.1863C63.1703 56.8664 62.5438 56.1288 62.2459 55.1412C62.0783 54.5847 62.2833 54.077 62.7 53.8921C63.1483 53.6929 63.6904 53.8758 64.0075 54.3557C64.2019 54.6498 64.3408 54.9832 64.6292 55.2073C64.7163 55.2753 64.8198 55.3673 64.9242 55.2878C64.9769 55.2466 64.9778 55.124 64.9836 55.0378C64.9922 54.9075 64.9683 54.7743 64.9865 54.6469C65.1225 53.6948 64.9596 53.0444 63.8705 52.6411C62.8072 52.2464 62.1923 51.2819 62.2909 50.0519C62.3934 48.7808 63.1281 47.9493 64.2958 47.5451C64.7776 47.3784 64.9577 47.1504 64.9022 46.6782C64.8916 46.5862 64.9022 46.4914 64.9117 46.3985C64.9673 45.8448 65.2777 45.5124 65.7327 45.5153C66.2173 45.5182 66.6187 45.8726 66.5775 46.4272C66.5229 47.1658 66.7346 47.5269 67.5 47.7319C68.3573 47.9618 68.8563 48.6792 69.0977 49.5337C69.2587 50.1017 69.0556 50.6113 68.6332 50.779C68.182 50.9581 67.7318 50.7675 67.4118 50.2569C67.1973 49.914 66.9664 49.3086 66.6532 49.4053C66.3313 49.505 66.613 50.1314 66.5564 50.5021H66.5574ZM64.974 49.2617C64.5152 49.4829 64.2901 49.7885 64.3121 50.2138C64.3332 50.6334 64.5238 50.9734 64.974 51.1841V49.2626V49.2617ZM66.5402 55.4247C67.0124 55.1872 67.2251 54.8558 67.1896 54.3921C67.159 53.9965 66.9185 53.7503 66.5402 53.6076V55.4247Z" fill="#6359E9"/>
<path id="Vector_8" d="M77.5789 26.6323C77.8989 26.5337 78.2188 26.4341 78.5397 26.3383C78.6537 26.3047 78.7744 26.1582 78.8855 26.3105C78.9727 26.4293 78.897 26.5691 78.8414 26.6812C78.4401 27.505 77.7265 27.9667 76.9094 28.2876C75.6976 28.7637 74.4294 28.802 73.1573 28.688C70.6103 28.4591 68.1015 27.936 65.5622 27.6621C63.8628 27.4791 62.1473 27.4782 60.4441 27.7722C59.7324 27.8949 59.0025 27.9111 58.2869 28.0146C57.4785 28.1324 56.6786 28.3125 55.8702 28.4332C54.2513 28.6755 52.6689 29.0644 51.05 29.6018C51.4572 27.8115 51.4102 26.049 51.2886 24.2836C53.4544 24.2156 55.5579 24.5729 57.6107 25.2415C59.8004 25.9551 62.0543 26.2789 64.3408 26.5097C66.9875 26.777 69.6141 27.2492 72.2578 27.551C73.8326 27.7301 75.4294 27.7885 76.9381 27.1142C77.1833 27.005 77.4946 26.9647 77.577 26.6323H77.5789Z" fill="#8EE7EC"/>
<path id="Vector_9" d="M39.5879 33.966C39.29 35.0484 38.8781 35.9709 37.8627 36.6912C34.831 38.8445 32.3031 41.5257 30.0817 44.5143C27.9303 47.41 26.5797 50.6669 25.5451 54.077C25.2578 55.0243 25.1562 56.0129 25.2875 57.0101C24.5001 57.922 23.7481 58.8588 23.2136 59.9489C23.1332 60.1136 23.092 60.3014 22.9952 60.4537C22.8659 60.6577 22.8266 61.0256 22.4952 60.9566C22.2174 60.8991 22.1417 60.6098 22.1475 60.3311C22.8036 60.2861 22.8123 59.7784 22.8391 59.3205C22.9636 57.1739 23.227 55.0473 23.7021 52.9495C24.1227 51.0922 24.7127 49.2904 25.4781 47.547C25.9398 47.6476 26.1917 47.9532 26.2837 48.5394C26.4867 48.2051 26.64 47.9991 26.7473 47.7712C27.9533 45.2069 29.4821 42.8562 31.3529 40.7268C33.2313 38.5888 35.2678 36.6241 37.6366 35.0321C38.2497 34.6202 38.8484 34.1585 39.5869 33.9669L39.5879 33.966Z" fill="#8EE7EC"/>
<path id="Vector_10" d="M78.7533 41.154C78.7782 43.8467 76.5942 46.0259 73.8336 46.0613C71.1371 46.0958 68.8247 43.8553 68.7931 41.1761C68.7606 38.4691 71.0375 36.1625 73.7541 36.15C76.4601 36.1375 78.7284 38.4078 78.7533 41.154ZM73.7914 37.765C71.9408 37.743 70.4465 39.1837 70.4254 41.0113C70.4034 42.9223 71.844 44.43 73.7215 44.4607C75.6315 44.4923 77.167 43.0717 77.1929 41.2508C77.2197 39.3206 75.7245 37.788 73.7914 37.765Z" fill="#6359E9"/>
<path id="Vector_11" d="M19.0928 69.8957C19.0717 67.521 18.6445 65.2278 17.6961 63.0448C16.7258 60.8119 15.2679 58.9958 13.1126 57.7984C12.8617 57.6595 12.8233 57.5264 12.899 57.2668C13.0551 56.738 13.0379 56.1987 12.9028 55.6642C14.1558 55.6997 15.2612 56.1911 16.2852 56.8491C19.1014 58.6586 20.6053 61.3129 21.2969 64.5429C21.7404 66.612 21.0172 68.182 19.5985 69.5671C19.4539 69.7089 19.3112 69.8631 19.0918 69.8957H19.0928Z" fill="#8EE7EC"/>
<path id="Vector_12" d="M71.8823 54.691C71.89 52.8308 72.6046 51.2914 73.9811 50.0481C74.3096 49.7511 74.642 49.6486 75.0999 49.7693C76.919 50.2512 78.7476 50.6995 80.5762 51.143C80.8885 51.2186 81.0484 51.4294 81.1988 51.6612C82.0207 52.9275 81.9881 54.3107 81.7142 55.714C81.4709 56.9631 80.8272 57.9919 79.9152 58.8713C79.5704 59.2036 79.2275 59.2975 78.7533 59.149C76.9055 58.5676 75.0549 57.9871 73.1276 57.7103C72.7923 57.6624 72.6142 57.4258 72.4619 57.1643C72.0155 56.3999 71.8718 55.5627 71.8795 54.69L71.8823 54.691ZM80.4478 54.2322C80.444 53.8538 80.3942 53.4869 80.286 53.1258C80.1997 52.8384 80.0455 52.6449 79.7371 52.5559C78.2859 52.1382 76.8222 51.7733 75.347 51.4504C74.9131 51.3556 74.6229 51.5031 74.3767 51.8211C73.4897 52.963 73.1832 54.235 73.4954 55.6575C73.573 56.01 73.7387 56.1891 74.0951 56.2821C75.5013 56.6499 76.9036 57.0292 78.2974 57.4421C78.8539 57.6068 79.2332 57.4469 79.5551 57.0072C80.1624 56.1796 80.3952 55.2351 80.4478 54.2322Z" fill="#6359E9"/>
<path id="Vector_13" d="M48.6917 19.7844C48.2367 20.2968 48.207 20.8706 48.4043 21.5028C48.9408 23.2232 49.2425 24.9809 49.1707 26.7894C48.9963 31.1555 47.1265 34.5953 43.4568 36.9795C42.4577 37.628 41.3217 38.0878 40.0553 38.2957C40.1818 37.9269 40.4222 37.7037 40.6195 37.4546C40.6942 37.5131 40.7546 37.4824 40.8159 37.4278C42.9616 35.4948 44.8687 33.3769 46.1284 30.7369C46.9761 28.96 47.4254 27.0902 47.4302 25.1284C47.433 24.0479 47.1687 22.9923 46.9426 21.9358C46.6428 20.5392 47.3392 19.702 48.6917 19.7853V19.7844Z" fill="#8EE7EC"/>
<path id="Vector_14" d="M23.6226 18.6732C23.6169 17.7642 23.7711 16.8513 23.5805 15.948C23.091 13.627 21.977 11.7189 19.9118 10.4459C19.8198 10.3893 19.7441 10.307 19.6608 10.237C20.5181 9.84238 21.4358 9.86345 22.3352 9.92571C24.3995 10.0675 26.3709 10.5685 28.1717 11.6298C28.188 11.6394 28.2052 11.6461 28.2215 11.6557C29.2963 12.2448 29.2982 12.2946 28.4255 13.1126C26.7626 14.6711 25.2645 16.3723 23.9752 18.2565C23.8727 18.406 23.8123 18.5966 23.6217 18.6742L23.6226 18.6732Z" fill="#8EE7EC"/>
<path id="Vector_15" d="M57.2639 55.1767C57.2639 55.6297 57.2668 56.0301 57.263 56.4315C57.261 56.6106 57.3511 56.7016 57.5158 56.7476C57.6586 56.7878 57.7994 56.8386 57.9383 56.8942C58.8205 57.2447 59.2554 57.8003 59.2563 58.5753C59.2573 59.423 58.8176 60.0648 57.9306 60.3771C57.5455 60.5121 57.3329 60.6673 57.3405 61.1099C57.3463 61.4355 57.1308 61.6779 56.7859 61.7057C56.4258 61.7344 56.1786 61.4796 56.1757 61.1769C56.17 60.6146 55.8596 60.4767 55.3998 60.3301C54.8471 60.1548 54.4755 59.7104 54.259 59.1692C54.1115 58.8004 54.0856 58.4067 54.4659 58.1682C54.8711 57.9143 55.2428 58.0484 55.5627 58.3913C55.7524 58.5954 55.8146 59.0772 56.1432 58.946C56.3625 58.8588 56.1757 58.4 56.239 58.1174C56.374 57.512 55.8798 57.4766 55.5282 57.3252C54.6431 56.943 54.1881 56.102 54.4199 55.2054C54.5866 54.5626 54.9956 54.1096 55.6364 53.9352C55.9966 53.8375 56.1844 53.6871 56.1729 53.3001C56.1623 52.9371 56.2457 52.6076 56.7074 52.6114C57.1902 52.6152 57.3587 52.9313 57.3415 53.3538C57.3281 53.6756 57.4421 53.8097 57.7591 53.8806C58.3521 54.0128 58.8167 54.3509 59.0513 54.9314C59.2209 55.3491 59.2084 55.7725 58.7611 55.9995C58.3454 56.2102 58.0034 56.0263 57.7831 55.6288C57.6835 55.4477 57.5685 55.2906 57.2639 55.1786V55.1767ZM57.2371 58.0005C57.2371 58.3205 57.2371 58.5954 57.2371 58.8703C57.2371 59.1079 57.3444 59.1155 57.5063 58.9948C57.6768 58.8674 57.7994 58.7036 57.7726 58.4823C57.74 58.2151 57.5704 58.0685 57.2371 58.0015V58.0005ZM56.3022 55.1556C55.9717 55.2935 55.8453 55.4813 55.8596 55.7734C55.8692 55.966 55.9746 56.1183 56.147 56.1269C56.3721 56.1384 56.2888 55.9229 56.2984 55.7974C56.3127 55.6039 56.3022 55.4085 56.3022 55.1556Z" fill="#6359E9"/>
<path id="Vector_16" d="M70.3401 69.5278C69.3899 71.254 67.9531 72.4619 66.2059 73.3C61.3292 75.6363 55.7447 73.7263 53.2963 68.9062C53.2379 68.7912 53.2015 68.6657 53.1545 68.546C53.8519 69.0067 54.3883 69.6533 55.056 70.16C56.7198 71.4225 58.5944 72.0998 60.6204 72.4417C62.835 72.8163 64.9491 72.4609 66.9894 71.5624C68 71.117 68.9119 70.5135 69.7683 69.8248C69.9416 69.6849 70.0815 69.4991 70.3401 69.5288V69.5278Z" fill="#8EE7EC"/>
<path id="Vector_17" d="M30.1698 56.3941C30.1909 56.6164 30.1507 56.8702 30.2446 57.056C30.6143 57.7898 30.2015 58.127 29.6717 58.5532C27.2981 60.4604 26.0203 63.0141 25.4963 65.9693C25.3277 66.9195 25.1677 67.8812 25.4043 68.8496C24.1792 67.6475 23.5087 66.2748 23.8928 64.4903C24.5039 61.6587 25.8325 59.2678 28.0998 57.444C28.7052 56.9574 29.3863 56.5618 30.1689 56.3941H30.1698Z" fill="#8EE7EC"/>
<path id="Vector_18" d="M54.7054 49.754C54.7303 50.5395 54.5598 50.7952 53.6297 51.1353C52.7551 51.4552 51.8758 51.7646 51.0012 52.0855C50.4418 52.2915 50.0012 52.1488 49.595 51.7167C48.4379 50.4868 48.1218 48.9944 48.1879 47.3756C48.1994 47.0997 48.3124 46.8583 48.5988 46.7663C49.6458 46.433 50.6429 45.9608 51.7043 45.6619C52.2541 45.5077 52.6881 45.6197 53.0865 45.9952C54.1134 46.9618 54.6766 48.138 54.7044 49.754H54.7054ZM53.5827 49.3986C53.5511 48.7118 53.3001 48.0432 52.895 47.4177C52.5903 46.9474 52.1842 46.7711 51.6535 46.8909C50.9591 47.048 50.2971 47.2999 49.6831 47.6629C49.4896 47.7779 49.2645 47.9168 49.3 48.1697C49.4283 49.0758 49.5835 49.9772 50.187 50.7234C50.3403 50.9121 50.5127 50.9456 50.7311 50.8987C51.6516 50.7014 52.5041 50.3307 53.3356 49.9025C53.5147 49.8105 53.6364 49.6803 53.5827 49.3986Z" fill="#6359E9"/>
<path id="Vector_19" d="M62.5524 42.975C62.5697 43.2078 62.4538 43.4262 62.2612 43.6244C61.4298 44.4808 60.5753 45.3122 59.6443 46.0613C59.1902 46.4263 58.7103 46.4799 58.1873 46.2232C57.0436 45.6619 56.1978 44.7979 55.5991 43.6829C55.3108 43.1464 55.3883 42.6503 55.7514 42.1713C56.5991 41.0554 57.7017 40.2325 58.8368 39.4423C59.0054 39.3254 59.1778 39.3244 59.3694 39.3608C60.5926 39.5898 62.3695 41.4519 62.5515 42.7049C62.562 42.7777 62.5524 42.8533 62.5524 42.975ZM58.695 45.1322C58.9412 45.1628 59.1117 45.0182 59.2784 44.863C59.7142 44.4559 60.1548 44.0536 60.5868 43.6417C61.5208 42.7499 61.5313 42.5459 60.7114 41.5286C60.6184 41.4127 60.515 41.3035 60.4068 41.2019C59.5504 40.3992 59.3435 40.3868 58.4048 41.0841C58.2103 41.2278 58.0178 41.3772 57.8406 41.541C56.3482 42.9204 56.1891 43.2442 58.0024 44.8017C58.1969 44.9693 58.4038 45.1437 58.696 45.1312L58.695 45.1322Z" fill="#6359E9"/>
<path id="Vector_20" d="M13.3099 31.6757C13.3291 32.1288 13.1567 32.51 12.8751 32.8117C12.2371 33.4966 11.5216 34.0915 10.7083 34.5666C10.2236 34.8501 9.79638 34.8185 9.38353 34.4325C8.43905 33.5474 7.60664 32.5713 6.94569 31.4554C6.67748 31.0023 6.69472 30.5952 7.06351 30.1823C7.8806 29.2666 8.84232 28.5405 9.89505 27.9236C10.2169 27.7358 10.4947 27.7828 10.7485 28.051C11.5953 28.9466 12.3655 29.9064 13.0935 30.8998C13.2611 31.1297 13.3473 31.3979 13.3099 31.6757ZM8.1354 30.622C7.8873 30.8136 7.94286 31.0933 8.06164 31.2743C8.55016 32.0157 9.0454 32.7562 9.79447 33.2801C10.0924 33.488 10.3405 33.5024 10.6594 33.3098C11.1796 32.9966 11.6106 32.5924 12.0206 32.1565C12.262 31.9008 12.2745 31.6402 12.0522 31.3605C11.716 30.9371 11.4009 30.4965 11.056 30.0808C10.0474 28.8652 9.99946 28.8671 8.80496 29.9917C8.53005 30.1478 8.32314 30.3748 8.13444 30.622H8.1354Z" fill="#6359E9"/>
<path id="Vector_21" d="M45.5268 59.7899C45.6514 58.2601 46.2376 56.9593 47.4225 55.943C47.708 55.6978 47.9848 55.6336 48.343 55.7409C49.1697 55.988 49.9418 56.351 50.6995 56.7553C51.2062 57.0254 51.3518 57.4392 51.2253 57.9747C50.9198 59.2649 50.3872 60.4805 49.9676 61.7334C49.846 62.0965 49.5385 62.2459 49.1544 62.1262C48.1419 61.8101 47.115 61.5371 46.137 61.1214C45.5412 60.8675 45.5249 60.3349 45.5259 59.7908L45.5268 59.7899ZM46.6504 59.674C46.5652 60.2343 47.1093 60.311 47.5604 60.4566C49.1007 60.9537 49.1879 60.9355 49.6812 59.4134C50.3096 57.4766 50.3096 57.8109 48.5748 57.0024C48.3009 56.875 48.0873 56.9047 47.8689 57.1078C47.1591 57.7678 46.7242 58.559 46.6504 59.674Z" fill="#6359E9"/>
<path id="Vector_22" d="M21.6043 70.4302C20.4472 72.8345 18.4692 74.0501 15.879 74.3441C14.3818 74.5146 12.9067 74.2847 11.4459 73.9686C11.057 73.8843 10.6901 73.9045 10.2926 73.9715C8.60859 74.2579 6.92174 74.1918 5.24255 73.9006C5.02607 73.8633 4.80383 73.8144 4.63716 73.6458C5.19082 73.4581 5.73108 73.6889 6.27325 73.7272C7.76373 73.8326 9.25996 73.7924 10.5905 73.1209C11.5407 72.642 12.4038 72.6439 13.3904 72.7943C16.2852 73.2368 18.882 72.4743 21.1829 70.6783C21.3141 70.5758 21.4156 70.4321 21.6043 70.4311V70.4302Z" fill="#8EE7EC"/>
<path id="Vector_23" d="M82.5073 46.8937C82.5897 46.2069 82.6414 45.7586 81.9594 45.5182C81.4507 45.3381 81.1519 44.8592 81.1739 44.2729C81.1959 43.6762 81.5628 43.3093 82.0839 43.1187C82.3713 43.0143 82.515 42.8974 82.5054 42.5755C82.4968 42.2978 82.6692 42.1196 82.9623 42.1215C83.2324 42.1234 83.4058 42.3131 83.3914 42.5478C83.3637 42.9865 83.6232 43.111 83.9566 43.2394C84.2344 43.3457 84.494 43.5085 84.6003 43.8208C84.6884 44.0785 84.7526 44.339 84.47 44.5201C84.2229 44.6791 83.9815 44.6513 83.7507 44.4607C83.63 44.3611 83.5112 44.0354 83.3503 44.2796C83.2305 44.4607 83.1635 44.8237 83.5006 44.9971C83.6491 45.0737 83.8081 45.1293 83.9614 45.1973C84.5333 45.4521 84.8149 45.9081 84.8216 46.5192C84.8283 47.137 84.4672 47.5346 83.9259 47.7453C83.6252 47.8622 83.4135 47.9503 83.4259 48.3392C83.4336 48.5921 83.2391 48.798 82.9499 48.7885C82.6587 48.7789 82.5178 48.5739 82.5111 48.3028C82.5025 47.9723 82.355 47.8133 82.0322 47.7319C81.6117 47.6265 81.3224 47.3229 81.1452 46.9349C81.0053 46.6294 80.9651 46.3056 81.3099 46.0949C81.6701 45.8745 81.9527 46.0383 82.1778 46.3334C82.2755 46.4617 82.3435 46.6131 82.5054 46.8947L82.5073 46.8937ZM83.2947 46.4713C83.3799 46.5451 83.2171 46.7989 83.4949 46.7424C83.6338 46.7137 83.7784 46.6159 83.7468 46.4359C83.721 46.2864 83.6223 46.1427 83.4671 46.1303C83.1999 46.1083 83.3617 46.3382 83.2947 46.4713Z" fill="#6359E9"/>
<path id="Vector_24" d="M60.5859 16.8695C60.5974 17.9462 59.5993 18.9855 58.5417 18.9979C57.2984 19.0123 56.2332 18.017 56.2179 16.8264C56.2026 15.652 57.1787 14.6634 58.3799 14.6357C59.5178 14.6098 60.5725 15.6779 60.5859 16.8695ZM58.4709 15.9758C58.4565 15.5869 58.286 15.3876 57.9162 15.3924C57.4823 15.3982 57.263 15.6539 57.2419 16.0553C57.2237 16.4087 57.4402 16.6137 57.7946 16.6089C58.2161 16.6032 58.4297 16.3551 58.4699 15.9767L58.4709 15.9758Z" fill="#6359E9"/>
<path id="Vector_25" d="M7.84037 46.7108C7.95628 46.2309 7.95628 45.8372 7.37867 45.6609C6.7819 45.4789 6.60277 44.9732 6.58553 44.4348C6.56733 43.8955 6.88344 43.522 7.40166 43.3601C7.61527 43.293 7.76278 43.226 7.78194 42.9664C7.79918 42.7269 7.98118 42.6215 8.21491 42.6177C8.45247 42.6139 8.6498 42.7346 8.65267 42.9587C8.65554 43.2633 8.84712 43.3131 9.05498 43.3955C9.29829 43.4923 9.54064 43.6063 9.6939 43.8294C9.8759 44.0938 9.96403 44.3936 9.68432 44.636C9.44102 44.8467 9.17185 44.8122 8.94195 44.5689C8.86724 44.4894 8.79539 44.3965 8.64405 44.4023C8.52527 44.817 8.57125 45.0718 9.07606 45.2452C9.61535 45.431 10.0426 45.8334 10.0004 46.501C9.9602 47.1208 9.63355 47.5499 9.05211 47.7549C8.80785 47.8411 8.68907 47.9407 8.69098 48.2223C8.6929 48.5164 8.51377 48.7157 8.19192 48.6994C7.8739 48.6831 7.7944 48.4388 7.80493 48.1859C7.81547 47.9187 7.68232 47.8401 7.45913 47.775C6.97923 47.6342 6.66121 47.3095 6.50411 46.8334C6.40449 46.5317 6.45717 46.2749 6.76083 46.1236C7.04532 45.9818 7.25223 46.0968 7.43518 46.3334C7.54055 46.4694 7.59324 46.6744 7.84229 46.7108H7.84037ZM8.49749 46.1322C8.66129 46.4186 8.42948 46.6792 8.69673 46.8162C8.82317 46.8803 8.94195 46.7357 8.97644 46.6064C9.04828 46.3391 8.85862 46.2577 8.49749 46.1322Z" fill="#6359E9"/>
<path id="Vector_26" d="M86.542 73.3316C85.9749 73.824 85.2478 73.9447 84.561 74.0817C81.6184 74.6689 78.8127 74.2876 76.2647 72.6352C75.006 71.8191 73.9562 70.7635 73.2416 69.4158C73.8719 69.684 74.256 70.274 74.8221 70.6275C76.918 71.9379 79.1556 72.8364 81.6308 73.1362C83.266 73.3345 84.9001 73.3767 86.541 73.3307L86.542 73.3316Z" fill="#8EE7EC"/>
<path id="Vector_27" d="M66.3495 35.1413C66.1924 35.5963 66.3294 35.8262 66.7643 35.945C67.3084 36.0925 67.6187 36.49 67.6321 37.0504C67.6446 37.5935 67.3352 37.9623 66.8304 38.1434C66.6206 38.2181 66.4798 38.2957 66.452 38.5476C66.4214 38.8292 66.2135 38.9662 65.9357 38.947C65.6828 38.9288 65.496 38.7737 65.5018 38.5208C65.5095 38.2315 65.3571 38.2018 65.1359 38.153C64.724 38.0629 64.4376 37.8206 64.3494 37.3809C64.3044 37.1577 64.3303 36.9594 64.5401 36.8483C64.7633 36.7305 64.9769 36.7832 65.1464 36.9728C65.2633 37.1041 65.3179 37.3435 65.5593 37.2631C65.6819 37.2219 65.6234 37.0686 65.6282 36.9642C65.6378 36.741 65.6598 36.536 65.3524 36.445C64.8016 36.2831 64.36 35.9824 64.3696 35.3205C64.3782 34.6902 64.7307 34.3175 65.3188 34.1729C65.5238 34.1221 65.5114 33.9986 65.543 33.853C65.5909 33.6365 65.7671 33.5675 65.9673 33.5646C66.1675 33.5618 66.3811 33.625 66.3965 33.8376C66.4185 34.1375 66.6034 34.1901 66.8266 34.2553C66.9492 34.2907 67.0699 34.3568 67.1714 34.4363C67.4818 34.6777 67.6638 34.9929 67.3975 35.3473C67.1427 35.6864 66.8381 35.5235 66.5679 35.3138C66.499 35.2601 66.4309 35.2055 66.3495 35.1413Z" fill="#6359E9"/>
<path id="Vector_28" d="M50.8268 69.3861C49.9485 71.1131 48.5528 72.3029 46.8401 73.1286C44.976 74.0271 42.9922 74.1516 41.0036 73.7378C39.654 73.4571 38.4298 72.8287 37.4757 71.776C37.6318 71.7597 37.7621 71.8143 37.8914 71.9015C40.0285 73.3412 42.3552 73.2301 44.7059 72.6707C46.9349 72.14 48.8881 71.0547 50.5835 69.5106C50.6487 69.4512 50.7445 69.4263 50.8268 69.3851V69.3861Z" fill="#8EE7EC"/>
<path id="Vector_29" d="M79.0819 23.3516C79.2217 23.8784 78.8252 24.046 78.4727 24.1916C77.4228 24.6265 76.3136 24.82 75.1928 24.6706C73.0385 24.3823 70.8861 24.0652 68.75 23.6514C68.8755 23.4177 69.1006 23.478 69.296 23.478C71.4178 23.4723 73.5395 23.455 75.6612 23.477C76.44 23.4847 77.2169 23.5939 77.9995 23.5748C78.3778 23.5652 78.7399 23.524 79.0809 23.3525L79.0819 23.3516Z" fill="#8EE7EC"/>
<path id="Vector_30" d="M83.3684 34.6126C83.2727 35.3511 82.9518 36.0322 82.4565 36.6318C82.242 36.8924 81.9527 36.8502 81.6883 36.7334C81.1787 36.5073 80.6806 36.2573 80.1767 36.0188C79.9813 35.9258 79.9219 35.7659 79.9334 35.5609C79.9813 34.7534 80.2697 34.0426 80.7955 33.4296C80.9325 33.2696 81.1011 33.1269 81.3253 33.1958C81.9287 33.3798 82.5389 33.5541 83.082 33.8884C83.3349 34.0445 83.3742 34.3022 83.3675 34.6135L83.3684 34.6126ZM81.8128 35.9124C82.2161 35.9153 82.6395 35.3195 82.6261 34.7687C82.6203 34.5436 81.8693 34.0321 81.5101 34.0091C81.1912 33.988 80.7256 34.7103 80.6883 35.286C80.6691 35.581 81.2563 35.9076 81.8138 35.9124H81.8128Z" fill="#6359E9"/>
<path id="Vector_31" d="M86.5659 72.4667C86.563 72.6745 86.5611 72.8814 86.5582 73.0893C86.4538 72.8805 86.4596 72.6726 86.5659 72.4667Z" fill="#8EE7EC"/>
<path id="Vector_32" d="M21.8275 70.0901C21.8247 70.1888 21.8065 70.2788 21.7088 70.3306C21.6886 70.2214 21.7346 70.1438 21.8275 70.0901Z" fill="#8EE7EC"/>
<path id="Vector_33" d="M73.2435 69.4177C73.1439 69.3822 73.1171 69.3037 73.1161 69.2089C73.2119 69.2462 73.2579 69.3142 73.2435 69.4177Z" fill="#8EE7EC"/>
<path id="Vector_34" d="M50.9878 69.1121C50.9792 69.2156 50.9495 69.3066 50.846 69.3554C50.8307 69.2376 50.8642 69.1495 50.9878 69.1121Z" fill="#8EE7EC"/>
<path id="Vector_35" d="M12.9565 81.0571C14.5954 81.0082 16.2037 80.6883 17.8283 80.5063C18.11 80.4747 18.3916 80.3281 18.6425 80.1815C19.064 79.9363 19.2661 79.3146 19.0956 78.9133C18.9088 78.4736 18.4376 78.2322 17.8801 78.375C16.2995 78.7792 14.6845 78.875 13.0686 78.9698C12.4929 79.0033 11.9143 78.9842 11.3376 79.0062C11.0407 79.0177 10.8884 78.9439 10.9123 78.6068C10.9439 78.1623 10.9344 77.7159 10.943 77.2695C11.1106 77.2753 11.2782 77.2724 11.4449 77.2897C13.241 77.4745 15.0351 77.6259 16.8398 77.3912C19.9319 76.9898 22.0708 75.1574 23.843 72.7636C24.5987 73.5596 25.3468 74.3566 26.3095 74.9237C28.3029 76.098 30.3978 76.3509 32.5981 75.6584C32.9765 75.5396 33.2523 75.5568 33.5493 75.8404C34.1729 76.4352 34.9574 76.8088 35.6567 77.3011C34.2112 79.2122 33.5598 81.3923 33.489 83.7631C33.4526 84.9806 33.67 86.1732 33.9056 87.361C30.9611 87.3638 28.0175 87.3638 25.0729 87.3744C24.7865 87.3753 24.6677 87.2795 24.6763 86.9883C24.6897 86.5602 24.684 86.131 24.6763 85.7028C24.6696 85.3638 24.5537 85.0735 24.3621 84.7794C24.0259 84.2622 23.5546 84.4126 23.183 84.5639C22.8831 84.6865 22.5919 84.9892 22.5881 85.4107C22.5833 85.9327 22.5575 86.4538 22.5661 86.9759C22.5709 87.2451 22.4703 87.3361 22.2097 87.3313C21.6139 87.3188 21.0172 87.3265 20.4214 87.3246C20.3486 87.133 20.2652 86.9462 20.2049 86.7508C19.6579 84.9681 18.5611 83.5936 17.0706 82.5111C15.8445 81.6213 14.4479 81.2046 12.9584 81.0561L12.9565 81.0571ZM23.8736 77.8548C24.6006 77.8443 25.1869 77.2561 25.1888 76.5329C25.1907 75.7982 24.5729 75.2445 23.7788 75.2704C23.0546 75.2944 22.5105 75.8557 22.5201 76.5693C22.5287 77.2695 23.1552 77.8644 23.8736 77.8548ZM23.9292 81.2448C23.9119 81.8923 24.411 82.5054 24.98 82.5351C25.5969 82.5667 26.1879 82.0025 26.207 81.3626C26.2272 80.7074 25.7204 80.1681 25.0806 80.1643C24.4139 80.1595 23.9454 80.5982 23.9282 81.2448H23.9292ZM28.4035 79.6585C28.4092 80.2256 28.9064 80.8339 29.3729 80.8454C29.962 80.8607 30.5779 80.2208 30.5722 79.6011C30.5664 78.9861 30.0836 78.5215 29.4524 78.5244C28.8384 78.5273 28.3958 79.0052 28.4025 79.6585H28.4035ZM28.3949 83.3819C28.4035 84.0476 28.8317 84.4988 29.4562 84.4997C30.098 84.5016 30.5549 83.9528 30.5396 83.1999C30.5319 82.7841 29.8844 82.3196 29.347 82.3435C28.7953 82.3684 28.3872 82.8138 28.3949 83.3809V83.3819Z" fill="#8EE7EC"/>
<path id="Vector_36" d="M52.0597 77.2303C53.304 76.4783 54.5579 75.7398 55.5885 74.6899C55.714 74.5616 55.8184 74.5501 55.9755 74.6516C57.9344 75.916 60.083 76.4869 62.5285 76.3308C60.6041 79.9421 60.628 83.5945 61.9327 87.3696C60.7985 87.3696 59.718 87.3725 58.6385 87.3696C57.1461 87.3648 55.6546 87.3552 54.1622 87.3476C54.2216 86.6809 54.2781 86.0142 54.3414 85.3484C54.6268 82.3483 53.9141 79.6298 52.0597 77.2312V77.2303ZM57.672 78.4372C57.058 78.4439 56.6097 78.8865 56.6039 79.4938C56.5972 80.1289 57.1461 80.7342 57.7285 80.7333C58.3099 80.7333 58.8214 80.1787 58.8157 79.558C58.809 78.9085 58.3214 78.4305 57.6729 78.4382L57.672 78.4372ZM58.7975 83.3914C58.8004 82.7822 58.3387 82.3119 57.7486 82.3215C57.1509 82.332 56.7016 82.7583 56.6901 83.3273C56.6777 83.9624 57.1777 84.4748 57.7994 84.4633C58.3368 84.4538 58.7956 83.9604 58.7975 83.3914Z" fill="#8EE7EC"/>
<path id="Vector_37" d="M33.9056 87.361C33.67 86.1732 33.4526 84.9806 33.489 83.7631C33.5608 81.3933 34.2122 79.2131 35.6567 77.3011C36.5954 77.6987 37.4441 78.3012 38.4547 78.5225C38.5179 78.6307 38.4442 78.6978 38.3943 78.7706C36.719 81.2189 36.4814 83.8761 37.2487 86.6789C37.2928 86.8399 37.3435 87.0008 37.3723 87.1646C37.3953 87.2977 37.3895 87.4338 37.1893 87.4251C36.0954 87.3744 34.9967 87.5113 33.9047 87.361H33.9056Z" fill="#FCFDFD"/>
<path id="Vector_38" d="M43.8017 87.5056C43.3352 87.5056 42.8677 87.5267 42.4031 87.4989C42.0525 87.4769 41.6742 87.4136 41.4797 87.0774C41.3111 86.7853 41.2048 86.4395 41.4797 86.1406C41.8044 85.7871 42.2393 85.767 42.6081 85.9873C43.1589 86.3159 43.7384 86.3197 44.3342 86.3034C44.7988 86.291 45.1303 86.0755 45.2155 85.6051C45.3008 85.1367 45.0096 84.8599 44.613 84.7181C44.1398 84.5486 43.6465 84.4394 43.1666 84.288C41.4299 83.7382 40.7546 82.31 41.4855 80.7486C41.7748 80.1308 42.2326 79.7265 42.9223 79.6413C43.2001 79.6068 43.3553 79.5417 43.3639 79.2083C43.3754 78.7495 43.7298 78.7236 44.0919 78.737C44.453 78.7495 44.7892 78.7773 44.773 79.261C44.7634 79.5445 44.9272 79.6049 45.1628 79.6087C45.4856 79.6145 45.7893 79.7036 46.0757 79.8472C46.5786 80.0992 46.7673 80.5513 46.5585 80.99C46.3602 81.4057 45.9014 81.559 45.4071 81.2927C44.8132 80.9737 44.2001 80.9613 43.5641 81.0369C43.1417 81.0877 42.8715 81.3099 42.8122 81.7381C42.7508 82.1855 43.0181 82.4517 43.3917 82.5868C44.0574 82.8272 44.7461 83.0054 45.4109 83.2478C46.7443 83.7334 47.2606 84.8771 46.774 86.2134C46.4416 87.1272 45.9617 87.4778 44.977 87.5094C44.5852 87.5219 44.1934 87.5114 43.8017 87.5114C43.8017 87.5094 43.8017 87.5075 43.8017 87.5066V87.5056Z" fill="#FCFDFD"/>
<path id="Vector_39" d="M86.5113 66.9271C86.5132 67.727 86.4778 68.5287 86.5314 69.3248C86.5678 69.8545 86.3236 69.9828 85.8781 70.0518C84.0945 70.3286 82.3569 70.1447 80.6547 69.5719C79.2917 69.1121 78.0052 68.5105 76.9621 67.4837C77.1766 67.4492 77.3586 67.5498 77.5531 67.613C78.9717 68.0747 80.4038 68.4741 81.9201 68.3851C82.7401 68.3372 83.4662 68.1111 83.8541 67.2988C83.9825 67.0316 84.1894 66.998 84.4528 67.0114C85.1406 67.0478 85.8293 67.0641 86.5103 66.9262L86.5113 66.9271Z" fill="#8EE7EC"/>
<path id="Vector_40" d="M23.843 72.7636C22.0709 75.1574 19.9319 76.9898 16.8398 77.3912C15.0351 77.6259 13.24 77.4736 11.4449 77.2897C11.2792 77.2724 11.1106 77.2762 10.943 77.2695C10.9315 76.9726 10.9401 76.6728 10.9028 76.3797C10.8357 75.8547 11.0522 75.8413 11.4746 75.9821C13.2764 76.5818 15.1223 76.6699 16.9739 76.2973C19.4462 75.7992 21.386 74.4667 22.8257 72.4006C22.9416 72.2339 23.068 72.0739 23.2079 71.8871C23.4301 72.1946 23.6361 72.4801 23.843 72.7646V72.7636Z" fill="#FCFDFD"/>
<path id="Vector_41" d="M11.0637 68.3008C9.3002 69.9608 7.22061 70.4397 4.87664 69.9857C4.51743 69.9158 4.36034 69.7855 4.38716 69.4043C4.44272 68.6102 4.31148 67.8084 4.4772 67.0182C5.27513 66.9655 6.07976 67.1111 6.87577 66.9329C7.11333 66.8802 7.24839 67.0632 7.36429 67.2394C7.89784 68.0498 8.68906 68.3535 9.61631 68.3602C10.0991 68.363 10.5809 68.3218 11.0637 68.3008Z" fill="#8EE7EC"/>
<path id="Vector_42" d="M36.582 64.5037C36.3952 64.3533 36.2075 64.2029 35.9536 63.9979C37.4202 63.5142 38.5581 62.7804 39.5045 61.7526C39.7603 61.4748 39.9653 61.4355 40.2546 61.766C42.4673 64.2987 45.2481 65.7192 48.6141 65.9654C48.6428 65.9673 48.6687 66.0028 48.73 66.0478C48.525 66.3026 48.3354 66.5651 48.0547 66.7471C47.9647 66.6302 47.8325 66.6273 47.7022 66.611C44.7768 66.247 42.291 65.0324 40.3551 62.7795C40.062 62.4384 39.8417 62.4586 39.5314 62.7258C38.6501 63.4835 37.7046 64.1416 36.582 64.5027V64.5037Z" fill="#FCFDFD"/>
<path id="Vector_43" d="M36.582 64.5037C37.7047 64.1425 38.6491 63.4845 39.5314 62.7268C39.8427 62.4595 40.062 62.4394 40.3551 62.7804C42.2911 65.0334 44.7768 66.248 47.7022 66.612C47.8325 66.6283 47.9647 66.6302 48.0547 66.748C47.7712 67.3036 47.3526 67.4597 46.7261 67.34C44.3247 66.8773 42.2786 65.8026 40.6396 63.9701C39.9672 63.2182 39.8503 63.222 39.1712 63.9414C38.7459 64.3916 38.2468 64.7422 37.7238 65.065C37.332 65.3064 36.9747 65.4309 36.786 64.8313C36.7487 64.7125 36.6519 64.6119 36.582 64.5037Z" fill="#8EE7EC"/>
<path id="Vector_44" d="M56.7016 66.5881C57.8367 66.5775 58.9728 66.6848 60.1069 66.499C60.8857 66.3716 61.6051 66.0507 62.3666 65.8706C62.5898 65.8179 62.8072 65.7853 63.0285 65.8189C65.1378 66.1331 66.9463 65.4108 68.6121 64.2C68.8228 64.0477 69.0115 63.8533 69.3066 63.9012C68.9732 64.5678 68.5929 65.2278 68.091 65.7585C67.4626 66.4242 66.5402 66.4999 65.6694 66.5948C64.9089 66.6771 64.1866 66.4606 63.4825 66.225C62.8168 66.0018 62.2076 66.0708 61.5955 66.3725C60.6194 66.8543 59.559 67.0574 58.5111 67.3161C57.6815 67.521 57.1614 67.1839 56.7016 66.5881Z" fill="#8EE7EC"/>
<path id="Vector_45" d="M8.80401 77.3452C8.81071 77.3625 8.82221 77.3787 8.82412 77.3969C8.96717 78.4723 8.50514 79.0075 7.43805 79.0024C6.65832 78.9985 5.87955 78.9928 5.09983 78.9976C4.66494 79.0005 4.43696 78.8022 4.43505 78.3654C4.43409 77.9209 4.44175 77.4755 4.44559 77.031C5.88818 77.2762 7.33939 77.3969 8.80401 77.3452Z" fill="#8EE7EC"/>
<path id="Vector_46" d="M80.8703 63.4912C81.2074 63.382 81.5446 63.2718 81.8818 63.1626C82.4968 63.358 83.0868 63.2076 83.6807 63.0477C84.6722 62.7814 85.5936 62.3494 86.5065 61.8925C86.61 62.3906 86.5228 62.8954 86.5582 63.3954C86.5764 63.6435 86.4404 63.7728 86.2335 63.8552C85.3887 64.1914 84.5515 64.314 83.7123 63.8236C83.2889 63.5755 82.9297 63.6138 82.6203 64.0678C82.2027 64.6799 81.5964 65.0238 80.8521 65.1081C80.8578 64.5688 80.8645 64.0305 80.8703 63.4912Z" fill="#8EE7EC"/>
<path id="Vector_47" d="M10.0224 65.0794C9.32223 64.997 8.83274 64.5698 8.43617 64.0439C8.08942 63.5841 7.73021 63.5113 7.24551 63.8092C6.34509 64.3638 5.46766 64.1378 4.59502 63.7057C4.37087 63.5946 4.39098 63.427 4.38907 63.2421C4.38428 62.7593 4.37757 62.2756 4.37183 61.7928C5.22627 62.1453 6.02898 62.6176 6.91695 62.8887C7.74553 63.1425 8.58369 63.3408 9.46304 63.2507C9.67761 63.2776 9.8826 63.3293 10.055 63.4711C10.0445 64.0075 10.0339 64.5429 10.0234 65.0794H10.0224Z" fill="#8EE7EC"/>
<path id="Vector_48" d="M86.5515 76.804C86.5372 77.3625 86.5295 77.9209 86.5036 78.4784C86.4902 78.7773 86.3456 78.9363 86.0122 78.9593C85.1176 79.0196 84.2238 79.0129 83.3282 79.01C83.0562 79.01 82.9681 78.9056 82.9795 78.646C82.9987 78.2179 82.9968 77.7887 83.0035 77.3605C83.446 77.3529 83.8953 77.3902 84.3292 77.3261C85.0821 77.2159 85.8829 77.281 86.5515 76.804Z" fill="#8EE7EC"/>
<path id="Vector_49" d="M39.3963 65.9434C39.6773 65.596 39.9717 65.5867 40.2795 65.9156C41.5975 67.3323 43.2317 68.1973 45.2203 68.7337C44.4329 68.977 43.7815 69.2989 43.0229 69.1121C42.952 68.9081 42.7461 68.8793 42.5918 68.7912C41.3217 68.0718 40.1856 67.203 39.3963 65.9434Z" fill="#FCFDFD"/>
<path id="Vector_50" d="M39.3963 65.9434C40.1846 67.203 41.3207 68.0718 42.5918 68.7912C42.7461 68.8784 42.952 68.9081 43.0229 69.1121C42.0219 69.2606 41.1071 68.9818 40.2459 68.5096C39.5716 68.1398 39.0151 67.614 38.4815 67.0632C38.2803 66.8553 38.2583 66.7241 38.539 66.5603C38.8417 66.384 39.1118 66.1513 39.3963 65.9434Z" fill="#8EE7EC"/>
<path id="Vector_51" d="M72.3642 87.3485C71.8546 87.2767 71.1658 87.5669 70.8765 87.2125C70.6284 86.9079 70.8095 86.2508 70.8037 85.7498C70.7951 84.9317 70.4493 84.4997 69.7865 84.4844C69.1744 84.47 68.7797 84.9087 68.7222 85.6693C68.7098 85.836 68.704 86.0046 68.6993 86.1722C68.6788 86.9519 68.281 87.3565 67.5057 87.3859C66.4856 85.0678 66.3543 82.6577 66.8534 80.2112C67.4722 77.1776 69.4713 75.0827 71.7588 73.2023C71.9666 73.0318 72.1716 73.0653 72.3555 73.255C72.5509 73.4562 72.7511 73.6516 72.9427 73.8566C75.0836 76.145 77.736 77.2753 80.854 77.3538C80.8616 77.6144 80.876 77.8749 80.877 78.1355C80.8798 79.0838 80.8789 79.0665 79.9488 79.0043C77.1565 78.8194 74.7819 77.7983 72.9638 75.6066C72.5347 75.0894 71.9254 75.0281 71.4752 75.3882C71.0087 75.7609 70.9675 76.2772 71.4082 76.8557C72.2109 77.9104 73.277 78.6604 74.3518 79.4123C75.622 80.3013 77.0684 80.6088 78.5464 80.8568C78.7437 80.8904 78.9679 80.8521 79.0943 81.0666C78.9631 81.1959 78.7878 81.1854 78.625 81.2208C77.6105 81.4373 76.6718 81.832 75.8126 82.4144C74.0338 83.6204 72.9609 85.3197 72.3622 87.3504L72.3642 87.3485ZM69.7721 81.5207C70.456 81.5207 71.0317 80.9546 71.0336 80.2821C71.0346 79.6461 70.4522 79.057 69.82 79.056C69.1571 79.056 68.5489 79.6949 68.5604 80.3798C68.5709 81.0178 69.1044 81.5197 69.7721 81.5197V81.5207Z" fill="#8EE7EC"/>
<path id="Vector_52" d="M50.1439 75.8873C50.1717 75.8202 50.1803 75.7254 50.2301 75.6919C51.4696 74.8595 52.3614 73.6889 53.2819 72.5481C54.1536 73.3709 54.1651 73.3862 53.2609 74.0999C52.3126 74.848 51.2914 75.4802 50.1439 75.8873Z" fill="#8EE7EC"/>
<path id="Vector_53" d="M86.5075 61.8925C85.5946 62.3494 84.6731 62.7804 83.6817 63.0477C83.0878 63.2076 82.4977 63.358 81.8828 63.1626C83.4681 62.6003 85.062 62.0572 86.564 61.0878C86.5535 61.4068 86.6033 61.6501 86.5075 61.8925Z" fill="#FCFDFD"/>
<path id="Vector_54" d="M32.1833 65.0334C32.1862 64.997 32.1814 64.9577 32.192 64.9232C32.4525 64.088 32.4525 64.0966 33.306 64.1406C33.7064 64.1607 34.1078 64.1445 34.6461 64.1445C34.3319 64.5679 34.0963 64.8868 33.8597 65.2049C33.3003 65.1474 32.7418 65.0909 32.1824 65.0334H32.1833Z" fill="#FCFDFD"/>
<path id="Vector_55" d="M32.1833 65.0334C32.7428 65.0909 33.3012 65.1474 33.8606 65.2049C33.6231 65.6963 32.5081 66.0947 32.1345 65.7796C31.8854 65.5698 32.0626 65.2786 32.1833 65.0343V65.0334Z" fill="#8EE7EC"/>
<path id="Vector_56" d="M63.9414 69.0489C63.7393 68.7816 63.2546 68.6054 63.6511 68.1465C64.1761 68.272 64.6838 68.4837 65.3907 68.4042C64.882 68.8391 64.4261 68.9751 63.9414 69.0498V69.0489Z" fill="#8EE7EC"/>
<path id="Vector_57" d="M31.4506 68.5814C31.4822 67.3956 31.2734 67.3994 32.4458 67.5613C32.2169 67.9818 31.8768 68.2567 31.4506 68.5814Z" fill="#FCFDFD"/>
<path id="Vector_58" d="M40.8619 51.3585C41.3485 51.5146 41.5813 51.7991 41.6359 52.2168C41.6847 52.5846 41.5056 52.8614 41.2096 53.0693C40.9807 53.2302 40.8465 53.2379 40.8571 52.8921C40.8724 52.4083 40.8609 51.9246 40.8609 51.3594L40.8619 51.3585Z" fill="#FCFDFD"/>
<path id="Vector_59" d="M39.2746 47.1533V48.8833C38.9001 48.7674 38.697 48.4934 38.6779 48.1256C38.6568 47.7175 38.8484 47.3928 39.2746 47.1533Z" fill="#FCFDFD"/>
<path id="Vector_60" d="M64.974 49.2617V51.1832C64.5238 50.9734 64.3332 50.6324 64.3121 50.2128C64.2901 49.7875 64.5152 49.482 64.974 49.2607V49.2617Z" fill="#FCFDFD"/>
<path id="Vector_61" d="M66.5402 55.4247V53.6076C66.9185 53.7503 67.159 53.9956 67.1896 54.3921C67.2251 54.8558 67.0124 55.1872 66.5402 55.4247Z" fill="#FCFDFD"/>
<path id="Vector_62" d="M57.2371 58.0005C57.5704 58.0676 57.7409 58.2151 57.7726 58.4814C57.7994 58.7036 57.6768 58.8665 57.5063 58.9939C57.3444 59.1146 57.2371 59.1069 57.2371 58.8693C57.2371 58.5944 57.2371 58.3195 57.2371 57.9996V58.0005Z" fill="#FCFDFD"/>
<path id="Vector_63" d="M56.3022 55.1556C56.3022 55.4085 56.3127 55.6039 56.2983 55.7974C56.2888 55.9219 56.3721 56.1384 56.147 56.1269C55.9746 56.1183 55.8692 55.966 55.8596 55.7734C55.8443 55.4803 55.9717 55.2935 56.3022 55.1556Z" fill="#FCFDFD"/>
<path id="Vector_64" d="M53.5827 49.3986C53.6364 49.6803 53.5147 49.8096 53.3356 49.9025C52.5041 50.3316 51.6516 50.7023 50.7311 50.8987C50.5127 50.9456 50.3403 50.9121 50.187 50.7234C49.5835 49.9772 49.4283 49.0758 49.3 48.1697C49.2645 47.9168 49.4896 47.7779 49.6831 47.6629C50.2971 47.2989 50.9591 47.047 51.6535 46.8909C52.1842 46.7711 52.5903 46.9474 52.895 47.4177C53.3001 48.0432 53.5521 48.7118 53.5827 49.3986ZM51.7503 50.1496C51.825 50.1142 51.8997 50.0797 51.9744 50.0443C52.4524 49.9533 52.9448 49.8374 53.167 49.3574C53.4036 48.8459 52.9448 47.662 52.4151 47.2549C52.1641 47.0623 51.1976 47.2118 50.7886 47.501C50.6382 47.6074 50.5558 47.7022 50.7732 47.8191C50.6391 47.9129 50.505 48.0078 50.3719 48.1016C50.1314 48.1131 50.0155 48.2817 49.9274 48.4695C49.6362 49.0835 49.8278 49.6266 50.1985 50.1324C50.5366 50.5922 50.7962 50.6132 51.3135 50.2473C51.3757 50.2368 51.437 50.2263 51.4993 50.2157C51.6085 50.2904 51.689 50.2531 51.7522 50.1496H51.7503Z" fill="#FCFDFD"/>
<path id="Vector_65" d="M58.695 45.1322C58.4028 45.1446 58.1959 44.9693 58.0015 44.8026C56.1882 43.2451 56.3472 42.9213 57.8396 41.542C58.0168 41.3782 58.2094 41.2297 58.4038 41.0851C59.3425 40.3877 59.5494 40.4002 60.4058 41.2029C60.514 41.3044 60.6175 41.4136 60.7104 41.5295C61.5304 42.5468 61.5198 42.7508 60.5859 43.6426C60.1548 44.0545 59.7132 44.4568 59.2774 44.864C59.1107 45.0191 58.9402 45.1628 58.694 45.1331L58.695 45.1322ZM58.5504 41.5027C58.2563 41.7029 57.9306 41.8724 57.8243 42.2537C57.0292 42.7518 56.9478 43.248 57.5647 43.8735C57.7467 44.0584 57.9344 44.2394 58.1337 44.407C58.7515 44.9262 59.0676 44.8525 59.4853 44.1034C59.5887 44.0277 59.6922 43.952 59.7956 43.8764C60.4288 43.6005 60.8991 43.0114 60.8436 42.5162C60.7564 41.7374 60.2056 41.3063 59.5686 41.0103C59.0992 40.7919 58.8713 41.2929 58.5504 41.5037V41.5027Z" fill="#FCFDFD"/>
<path id="Vector_66" d="M8.13541 30.622C8.32411 30.3748 8.53102 30.1469 8.80593 29.9917C8.88735 30.2877 9.0569 30.1152 9.19005 30.0568C9.92507 29.7343 10.5522 29.8895 11.0714 30.5224C11.1422 30.6086 11.2275 30.6814 11.2965 30.7695C11.8259 31.4458 11.7585 32.0582 11.0943 32.6067C10.4526 33.1374 10.1115 33.1336 9.50615 32.5588C8.9228 32.0052 8.29537 31.4783 8.13541 30.6229V30.622ZM10.1451 31.5406C10.1767 31.349 10.2342 31.1526 9.97073 30.9764C10.1891 30.9898 10.3347 31.0032 10.4813 31.0071C10.5991 31.0109 10.7342 31.1871 10.8261 31.0214C10.9008 30.8873 10.8271 30.7254 10.738 30.6038C10.4985 30.2781 10.1614 30.1766 9.79735 30.3154C9.39216 30.4697 9.37301 30.85 9.39887 31.213C9.42761 31.6172 9.72072 31.6642 10.0464 31.6421C9.9123 31.8787 9.64409 31.7379 9.46018 31.8337C9.72647 32.5521 10.0292 32.623 10.7984 32.2676C11.101 32.1278 11.1212 31.9506 11.0675 31.6977C10.9976 31.3701 10.7639 31.1795 10.4602 31.1191C10.125 31.0521 10.3146 31.4448 10.1451 31.5406Z" fill="#8EE7EC"/>
<path id="Vector_67" d="M8.1354 30.622C8.29537 31.4774 8.92279 32.0042 9.50615 32.5579C10.1115 33.1326 10.4525 33.1365 11.0943 32.6058C11.7578 32.0572 11.8252 31.4448 11.2965 30.7685C11.2284 30.6814 11.1422 30.6076 11.0714 30.5214C10.5515 29.8879 9.92443 29.7327 9.19004 30.0559C9.0569 30.1143 8.88639 30.2867 8.80593 29.9907C9.99947 28.8671 10.0474 28.8652 11.056 30.0808C11.4009 30.4965 11.716 30.9371 12.0522 31.3605C12.2735 31.6402 12.2611 31.9008 12.0206 32.1565C11.6106 32.5924 11.1796 32.9966 10.6595 33.3098C10.3405 33.5024 10.0924 33.488 9.79448 33.2801C9.04444 32.7562 8.54921 32.0157 8.06165 31.2743C7.94287 31.0933 7.88731 30.8136 8.1354 30.622Z" fill="#FCFDFD"/>
<path id="Vector_68" d="M46.6504 59.674C46.7242 58.5599 47.1591 57.7678 47.8689 57.1078C48.0873 56.9047 48.3009 56.875 48.5749 57.0024C50.3096 57.8109 50.3096 57.4766 49.6812 59.4134C49.1879 60.9355 49.1007 60.9537 47.5604 60.4566C47.1093 60.311 46.5652 60.2334 46.6504 59.674ZM49.6372 58.4862C49.64 58.0829 49.596 57.9545 49.3919 57.7793C48.6381 57.1298 47.9934 57.2198 47.4781 58.0609C47.3334 58.2975 47.2003 58.5484 47.1064 58.809C46.9579 59.2218 46.8545 59.7132 47.2281 60.0054C47.6802 60.3589 48.2779 60.4489 48.8507 60.5265C48.8843 60.5313 48.9456 60.4652 48.9657 60.4202C49.2396 59.7927 49.6084 59.1989 49.6362 58.4871L49.6372 58.4862Z" fill="#FCFDFD"/>
<path id="Vector_69" d="M83.2947 46.4713C83.3618 46.3382 83.1999 46.1083 83.4671 46.1303C83.6223 46.1427 83.72 46.2864 83.7468 46.4359C83.7784 46.6159 83.6338 46.7136 83.4949 46.7424C83.2171 46.7999 83.379 46.5451 83.2947 46.4713Z" fill="#FCFDFD"/>
<path id="Vector_70" d="M58.4709 15.9758C58.4297 16.3541 58.2161 16.6022 57.7955 16.608C57.4411 16.6128 57.2237 16.4087 57.2428 16.0543C57.2639 15.6539 57.4842 15.3972 57.9172 15.3915C58.2869 15.3867 58.4574 15.5859 58.4718 15.9748L58.4709 15.9758Z" fill="#FCFDFD"/>
<path id="Vector_71" d="M8.49748 46.1322C8.85957 46.2577 9.04827 46.3401 8.97643 46.6064C8.94195 46.7357 8.82317 46.8803 8.69672 46.8162C8.42851 46.6792 8.66032 46.4186 8.49748 46.1322Z" fill="#8EE7EC"/>
<path id="Vector_72" d="M81.8128 35.9124C81.2553 35.9086 80.6682 35.581 80.6873 35.286C80.7247 34.7103 81.1902 33.988 81.5092 34.0091C81.8684 34.033 82.6194 34.5445 82.6251 34.7687C82.6385 35.3195 82.2151 35.9153 81.8119 35.9124H81.8128ZM82.0906 34.7725C82.0648 34.5628 81.8425 34.4124 81.5992 34.4689C81.2687 34.5465 81.1615 34.8932 81.1203 35.1835C81.0887 35.4028 81.2582 35.6136 81.5111 35.65C81.7151 35.6797 82.1098 35.1279 82.0906 34.7725Z" fill="#8EE7EC"/>
<path id="Vector_73" d="M23.8736 77.8548C23.1552 77.8644 22.5287 77.2695 22.5201 76.5693C22.5115 75.8547 23.0556 75.2943 23.7788 75.2704C24.5729 75.2445 25.1907 75.7982 25.1888 76.5329C25.1869 77.2552 24.6007 77.8443 23.8736 77.8548Z" fill="#6359E9"/>
<path id="Vector_74" d="M23.9292 81.2448C23.9464 80.5992 24.4148 80.1595 25.0815 80.1643C25.7214 80.1691 26.2272 80.7074 26.208 81.3626C26.1888 82.0015 25.5969 82.5667 24.9809 82.5351C24.4119 82.5054 23.9129 81.8923 23.9301 81.2448H23.9292Z" fill="#6359E9"/>
<path id="Vector_75" d="M28.4035 79.6585C28.3968 79.0052 28.8384 78.5273 29.4533 78.5244C30.0836 78.5215 30.5664 78.9861 30.5731 79.6011C30.5789 80.2218 29.9629 80.8607 29.3738 80.8454C28.9064 80.8339 28.4102 80.2256 28.4044 79.6585H28.4035Z" fill="#6359E9"/>
<path id="Vector_76" d="M28.3949 83.3819C28.3872 82.8138 28.7962 82.3684 29.347 82.3445C29.8854 82.3205 30.5319 82.7851 30.5396 83.2008C30.554 83.9537 30.0971 84.5016 29.4562 84.5007C28.8317 84.4997 28.4035 84.0486 28.3949 83.3828V83.3819Z" fill="#6359E9"/>
<path id="Vector_77" d="M69.7721 81.5207C69.1044 81.5207 68.5709 81.0187 68.5604 80.3808C68.5489 79.6959 69.1571 79.056 69.82 79.057C70.4512 79.057 71.0346 79.6461 71.0336 80.2831C71.0327 80.9555 70.456 81.5216 69.7721 81.5216V81.5207Z" fill="#6359E9"/>
<path id="Vector_78" d="M57.672 78.4372C58.3205 78.4305 58.808 78.9085 58.8147 79.557C58.8214 80.1777 58.309 80.7323 57.7275 80.7323C57.1451 80.7323 56.5972 80.1279 56.603 79.4928C56.6087 78.8865 57.057 78.443 57.671 78.4362L57.672 78.4372Z" fill="#6359E9"/>
<path id="Vector_79" d="M58.7975 83.3914C58.7946 83.9614 58.3367 84.4537 57.7994 84.4633C57.1777 84.4748 56.6777 83.9623 56.6901 83.3273C56.7016 82.7583 57.1509 82.331 57.7486 82.3215C58.3396 82.3119 58.8004 82.7822 58.7975 83.3914Z" fill="#6359E9"/>
<path id="Vector_80" d="M76.4218 41.199C76.5444 42.5554 75.2484 43.7413 73.7426 43.7681C72.3766 43.793 71.1821 42.5784 71.1793 41.1904C71.1764 39.7383 72.3144 38.5648 73.7292 38.562C75.3451 38.5581 76.4228 39.6128 76.4218 41.199ZM74.6928 40.8437C75.2474 40.563 75.2359 40.0438 74.6554 39.6674C74.4562 39.5381 74.2033 39.4748 74.2033 39.1683C74.2033 38.7995 73.9629 38.7871 73.6765 38.7871C73.3575 38.7871 73.3604 38.9595 73.3968 39.1865C73.4284 39.3867 73.2588 39.4116 73.1334 39.4892C72.4983 39.8762 72.3661 40.3293 72.686 40.9845C72.7751 41.1665 72.8786 41.2977 72.6659 41.5142C72.2339 41.9548 72.4006 42.5937 72.9734 42.8054C73.1305 42.8639 73.3 42.8495 73.2962 43.088C73.2924 43.3495 73.4064 43.4884 73.7004 43.497C73.9763 43.5047 74.0731 43.3984 74.0596 43.1426C74.0539 43.0334 74.1219 42.9941 74.2186 42.9529C75.1296 42.5727 75.3863 41.4615 74.7043 40.8303L74.6938 40.8427L74.6928 40.8437Z" fill="#8EE7EC"/>
<path id="Vector_81" d="M76.2264 56.0857C75.5894 56.1508 75.03 55.8893 74.4677 55.6546C74.2685 55.5713 74.1458 55.397 74.1257 55.1776C74.0405 54.2638 74.1851 53.4007 74.6938 52.6162C74.8748 52.3375 75.1239 52.1928 75.4476 52.2522C75.9879 52.3509 76.5233 52.4783 77.0598 52.5932C77.0751 52.8193 77.1048 52.9879 76.7609 53.0463C75.8011 53.2082 75.5683 53.8117 76.1134 54.6853C75.8624 54.69 75.6009 54.714 75.5453 54.9918C75.4898 55.2696 75.7551 55.3615 75.9294 55.4794C76.1545 55.6307 76.2657 55.8156 76.2264 56.0857Z" fill="#8EE7EC"/>
<path id="Vector_82" d="M77.6623 52.8078C78.2744 52.8078 78.8156 53.0626 79.3577 53.2992C79.7064 53.4505 79.738 53.8136 79.7428 54.1124C79.7562 54.9218 79.5867 55.6968 79.125 56.3846C78.9823 56.5972 78.7907 56.7859 78.5368 56.7466C77.942 56.6547 77.3337 56.5847 76.8117 56.2389C76.9352 56.0493 76.9917 55.8069 77.3356 55.8932C77.6144 55.9631 77.8146 55.7667 77.9678 55.5292C78.3491 54.9381 77.8462 54.2571 78.1613 53.6546C78.1814 53.6162 77.9927 53.4783 77.9142 53.3758C77.7858 53.2082 77.5559 53.0808 77.6613 52.8078H77.6623Z" fill="#8EE7EC"/>
<path id="Vector_83" d="M77.6623 52.8078C77.5569 53.0808 77.7859 53.2082 77.9152 53.3758C77.9937 53.4783 78.1824 53.6163 78.1623 53.6546C77.8472 54.2571 78.3501 54.9381 77.9688 55.5292C77.8156 55.7667 77.6163 55.9631 77.3366 55.8932C76.9927 55.807 76.9362 56.0493 76.8126 56.239C76.6076 56.2246 76.4084 56.1901 76.2274 56.0867C76.2666 55.8165 76.1555 55.6317 75.9304 55.4803C75.7561 55.3625 75.4907 55.2696 75.5463 54.9927C75.6019 54.7159 75.8634 54.692 76.1143 54.6862C75.5693 53.8117 75.8021 53.2091 76.7619 53.0473C77.1057 52.9888 77.0761 52.8202 77.0607 52.5942C77.283 52.6047 77.5148 52.5884 77.6632 52.8078H77.6623ZM76.735 54.8625C76.6258 54.8692 76.4831 54.7609 76.4007 54.9132C76.3749 54.9602 76.4065 55.0646 76.4467 55.1154C76.7571 55.5081 77.1086 55.2667 77.3883 55.1058C77.7092 54.9219 77.4171 54.7245 77.2772 54.6019C77.0483 54.4027 77.0234 54.2542 77.3079 54.1153C77.6048 53.9697 77.5148 53.8586 77.3184 53.6823C76.9352 53.3385 76.646 53.7331 76.44 53.8691C76.1833 54.0377 76.5329 54.2149 76.6824 54.3538C76.7494 54.4171 76.8337 54.4621 76.9008 54.5253C76.9841 54.6048 77.0454 54.7073 76.9898 54.8203C76.9381 54.9247 76.8337 54.8835 76.737 54.8625H76.735Z" fill="#6359E9"/>
<path id="Vector_84" d="M51.9735 50.0452C51.8987 50.0806 51.824 50.1151 51.7493 50.1506C51.6535 50.1305 51.5692 50.1487 51.4974 50.2167C51.4351 50.2272 51.3738 50.2377 51.3115 50.2483C51.2071 50.141 51.0692 50.0797 50.9552 49.9743C50.3843 49.4475 50.5213 48.7367 50.3709 48.1026C50.505 48.0087 50.6391 47.9139 50.7732 47.82C51.0366 47.6533 51.325 47.5537 51.6056 47.73C51.9955 47.9742 52.439 48.3823 52.4285 48.7386C52.416 49.1467 52.4582 49.7339 51.9744 50.0462L51.9735 50.0452ZM51.7416 48.6007C51.46 48.4685 51.2378 48.595 51.0261 48.6678C50.846 48.7291 50.8815 48.9149 50.9437 49.0461C51.0299 49.2291 51.142 49.1362 51.2455 49.0413C51.4025 48.8976 51.5635 48.7588 51.7416 48.6007ZM51.916 49.0653C51.4715 49.1888 51.2991 49.4322 51.0941 49.6314C51.4332 49.6314 51.665 49.4628 51.916 49.0653Z" fill="#6359E9"/>
<path id="Vector_85" d="M51.9735 50.0452C52.4572 49.7329 52.416 49.1457 52.4275 48.7377C52.438 48.3823 51.9936 47.9733 51.6047 47.729C51.324 47.5528 51.0357 47.6524 50.7723 47.8191C50.5548 47.7022 50.6362 47.6074 50.7866 47.501C51.1956 47.2127 52.1622 47.0623 52.4131 47.2549C52.9428 47.662 53.4017 48.8459 53.1651 49.3574C52.9438 49.8374 52.4505 49.9533 51.9725 50.0443L51.9735 50.0452Z" fill="#8EE7EC"/>
<path id="Vector_86" d="M50.3699 48.1016C50.5203 48.7358 50.3834 49.4465 50.9543 49.9734C51.0682 50.0787 51.2062 50.14 51.3106 50.2473C50.7943 50.6132 50.5337 50.5912 50.1966 50.1324C49.8249 49.6276 49.6343 49.0844 49.9255 48.4695C50.0146 48.2817 50.1305 48.1131 50.3699 48.1016Z" fill="#8EE7EC"/>
<path id="Vector_87" d="M51.4974 50.2157C51.5692 50.1477 51.6545 50.1295 51.7493 50.1496C51.687 50.2531 51.6066 50.2904 51.4974 50.2157Z" fill="#8EE7EC"/>
<path id="Vector_88" d="M59.7956 43.8764C59.6922 43.952 59.5887 44.0277 59.4853 44.1034C58.2189 43.7969 58.0695 43.6398 57.8712 42.4137C57.8626 42.3591 57.8396 42.3073 57.8243 42.2537C57.9306 41.8724 58.2563 41.7019 58.5504 41.5027C59.0973 41.7546 59.7755 41.8006 59.9479 42.5851C60.0514 43.0554 59.8924 43.452 59.7956 43.8764ZM59.4623 43.0765C59.1625 43.1235 58.8598 43.2595 58.5312 42.9338C58.5571 43.3878 58.8282 43.4673 59.06 43.4846C59.2765 43.4999 59.4824 43.3754 59.4709 43.089C59.5217 43.0909 59.5303 43.0746 59.4948 43.0411C59.4834 43.0526 59.4728 43.065 59.4613 43.0765H59.4623Z" fill="#6359E9"/>
<path id="Vector_89" d="M59.7956 43.8764C59.8924 43.452 60.0514 43.0555 59.9479 42.5851C59.7755 41.8006 59.0983 41.7546 58.5504 41.5027C58.8712 41.292 59.1002 40.792 59.5686 41.0094C60.2056 41.3054 60.7564 41.7364 60.8436 42.5152C60.8991 43.0104 60.4288 43.5995 59.7956 43.8754V43.8764Z" fill="#8EE7EC"/>
<path id="Vector_90" d="M57.8243 42.2537C57.8406 42.3073 57.8626 42.3591 57.8712 42.4137C58.0695 43.6398 58.2189 43.7969 59.4853 44.1034C59.0676 44.8525 58.7515 44.9262 58.1337 44.407C57.9354 44.2404 57.7476 44.0584 57.5647 43.8735C56.9478 43.248 57.0292 42.7518 57.8243 42.2537Z" fill="#8EE7EC"/>
<path id="Vector_91" d="M10.1451 31.5406C10.3146 31.4438 10.124 31.0521 10.4602 31.1191C10.7629 31.1795 10.9976 31.3701 11.0675 31.6977C11.1212 31.9506 11.101 32.1278 10.7984 32.2676C10.0292 32.623 9.72743 32.5521 9.46017 31.8337C9.64505 31.7379 9.91326 31.8797 10.0464 31.6421L10.033 31.6536C10.0742 31.6124 10.1154 31.5703 10.1575 31.5291L10.1451 31.5406Z" fill="#6359E9"/>
<path id="Vector_92" d="M10.0464 31.6421C9.72072 31.6642 9.42856 31.6182 9.39887 31.213C9.373 30.85 9.39216 30.4697 9.79735 30.3155C10.1613 30.1766 10.4985 30.2781 10.738 30.6038C10.8271 30.7254 10.9008 30.8873 10.8261 31.0214C10.7342 31.1871 10.5991 31.0099 10.4813 31.0071C10.3347 31.0032 10.1891 30.9898 9.97073 30.9764C10.2351 31.1517 10.1767 31.349 10.1451 31.5406L10.1575 31.5291C10.078 31.5329 10.0292 31.5665 10.033 31.6536L10.0464 31.6421Z" fill="#6359E9"/>
<path id="Vector_93" d="M49.6372 58.4862C49.6094 59.1979 49.2396 59.7927 48.9666 60.4192C48.9465 60.4652 48.8852 60.5303 48.8517 60.5255C48.2789 60.4479 47.6811 60.3579 47.229 60.0044C46.8554 59.7123 46.9579 59.2209 47.1074 58.808C47.2012 58.5475 47.3334 58.2965 47.479 58.0599C47.9944 57.2189 48.639 57.1288 49.3929 57.7783C49.5969 57.9536 49.64 58.081 49.6381 58.4852L49.6372 58.4862ZM47.41 59.2199C47.3746 59.4 47.3823 59.5236 47.4742 59.6356C47.89 60.1424 48.6371 60.0447 48.8661 59.4345C48.9762 59.1414 48.9934 58.8147 49.0969 58.5187C49.1946 58.24 49.1649 58.0245 48.8775 57.9373C48.5892 57.8501 48.2769 57.6959 48.0049 58.0091C47.5662 58.5159 47.5825 58.6672 48.1122 58.8128C48.2559 58.8521 48.5346 58.8004 48.4398 59.0513C48.3421 59.308 48.1677 59.0427 48.0298 59.013C47.7578 58.9555 47.4235 58.7122 47.411 59.219L47.41 59.2199Z" fill="#8EE7EC"/>
<path id="Vector_94" d="M82.0906 34.7725C82.1098 35.1279 81.7151 35.6787 81.5111 35.65C81.2582 35.6136 81.0887 35.4028 81.1203 35.1835C81.1615 34.8932 81.2687 34.5474 81.5992 34.4689C81.8425 34.4114 82.0657 34.5618 82.0906 34.7725Z" fill="#6359E9"/>
<path id="Vector_95" d="M74.7033 40.8312C75.3854 41.4625 75.1277 42.5736 74.2177 42.9539C74.1209 42.9941 74.0529 43.0344 74.0587 43.1436C74.0721 43.3993 73.9753 43.5057 73.6995 43.498C73.4064 43.4903 73.2914 43.3514 73.2952 43.089C73.2991 42.8505 73.1295 42.8648 72.9724 42.8064C72.3996 42.5947 72.2329 41.9558 72.6649 41.5152C72.8776 41.2987 72.7741 41.1665 72.6851 40.9854C72.3642 40.3293 72.4963 39.8772 73.1324 39.4902C73.2588 39.4135 73.4274 39.3877 73.3958 39.1875C73.3604 38.9604 73.3575 38.788 73.6755 38.788C73.9619 38.788 74.2024 38.8005 74.2024 39.1693C74.2024 39.4758 74.4552 39.539 74.6545 39.6683C75.235 40.0457 75.2465 40.564 74.6918 40.8446L74.6756 40.8111L74.7024 40.8331L74.7033 40.8312ZM74.4897 40.7134C74.0098 39.7335 73.9514 39.7277 73.1017 40.5841C73.3738 40.8849 73.6468 41.1876 73.9217 41.4874C74.0156 41.5899 74.098 41.7039 74.0003 41.8303C73.8939 41.9663 73.7493 41.9644 73.6027 41.8696C73.4619 41.7786 73.3556 41.5899 73.1084 41.6818C73.2569 42.0631 73.4772 42.3092 73.891 42.2882C74.1554 42.2748 74.3528 42.1474 74.4064 41.8657C74.4763 41.497 74.3662 41.2259 73.9964 41.0736C73.8824 41.0266 73.7876 40.9213 73.6966 40.8293C73.5443 40.676 73.6027 40.5189 73.7253 40.3858C73.8776 40.221 73.9897 40.359 74.097 40.4586C74.1995 40.5544 74.2407 40.7287 74.4897 40.7124V40.7134Z" fill="#6359E9"/>
<path id="Vector_96" d="M76.735 54.8625C76.8318 54.8845 76.9371 54.9257 76.9879 54.8203C77.0435 54.7073 76.9812 54.6038 76.8988 54.5253C76.8318 54.4621 76.7475 54.417 76.6804 54.3538C76.532 54.214 76.1814 54.0368 76.4381 53.8691C76.644 53.7341 76.9333 53.3384 77.3165 53.6823C77.5128 53.8586 77.6029 53.9697 77.3059 54.1153C77.0224 54.2542 77.0473 54.4027 77.2753 54.6019C77.4151 54.7236 77.7073 54.9209 77.3864 55.1058C77.1077 55.2657 76.7561 55.5081 76.4448 55.1153C76.4046 55.0646 76.3739 54.9602 76.3988 54.9132C76.4821 54.7609 76.6239 54.8692 76.7331 54.8625H76.735Z" fill="#FCFDFD"/>
<path id="Vector_97" d="M51.7416 48.6007C51.5625 48.7588 51.4016 48.8977 51.2455 49.0413C51.143 49.1352 51.0309 49.2281 50.9437 49.0461C50.8815 48.9139 50.846 48.7291 51.0261 48.6678C51.2378 48.595 51.46 48.4685 51.7416 48.6007Z" fill="#8EE7EC"/>
<path id="Vector_98" d="M51.916 49.0653C51.6641 49.4628 51.4332 49.6314 51.0941 49.6314C51.3001 49.4322 51.4725 49.1888 51.916 49.0653Z" fill="#8EE7EC"/>
<path id="Vector_99" d="M59.4719 43.0899C59.4834 43.3764 59.2774 43.5009 59.0609 43.4846C58.8282 43.4674 58.558 43.3878 58.5322 42.9338C58.8607 43.2595 59.1634 43.1235 59.4632 43.0765L59.4728 43.0899H59.4719Z" fill="#8EE7EC"/>
<path id="Vector_100" d="M59.4623 43.0763C59.4737 43.0649 59.4842 43.0525 59.4956 43.0411C59.5299 43.0744 59.5223 43.0906 59.4718 43.0887L59.4623 43.0763Z" fill="#8EE7EC"/>
<path id="Vector_101" d="M10.0339 31.6536C10.0301 31.5665 10.079 31.5329 10.1585 31.5291C10.1173 31.5703 10.0761 31.6124 10.0339 31.6536Z" fill="#8EE7EC"/>
<path id="Vector_102" d="M47.41 59.2199C47.4225 58.7132 47.7578 58.9555 48.0288 59.014C48.1677 59.0437 48.3421 59.309 48.4388 59.0523C48.5346 58.8004 48.2549 58.8531 48.1112 58.8138C47.5815 58.6682 47.5652 58.5159 48.0039 58.0101C48.276 57.6969 48.5883 57.8511 48.8766 57.9383C49.164 58.0254 49.1936 58.241 49.0959 58.5197C48.9925 58.8157 48.9743 59.1423 48.8651 59.4355C48.6352 60.0466 47.889 60.1443 47.4733 59.6366C47.3813 59.5245 47.3736 59.401 47.4091 59.2209L47.41 59.2199Z" fill="#6359E9"/>
<path id="Vector_103" d="M74.4897 40.7134C74.2416 40.7307 74.2004 40.5563 74.097 40.4596C73.9897 40.359 73.8776 40.222 73.7253 40.3868C73.6027 40.5199 73.5443 40.677 73.6966 40.8303C73.7876 40.9213 73.8815 41.0276 73.9964 41.0745C74.3662 41.2268 74.4763 41.4979 74.4064 41.8667C74.3528 42.1483 74.1554 42.2757 73.891 42.2892C73.4772 42.3102 73.2579 42.064 73.1084 41.6828C73.3556 41.5908 73.4619 41.7795 73.6027 41.8705C73.7483 41.9654 73.8939 41.9673 74.0003 41.8313C74.0989 41.7048 74.0156 41.5899 73.9217 41.4883C73.6468 41.1876 73.3738 40.8849 73.1017 40.5851C73.9514 39.7287 74.0098 39.7344 74.4897 40.7144V40.7134Z" fill="#FCFDFD"/>
<path id="Vector_104" d="M74.7033 40.8312L74.6756 40.8092L74.6928 40.8437L74.7033 40.8312Z" fill="#FCFDFD"/>
</g>
</svg>
